<?xml version="1.0" standalone="no"?>
<!DOCTYPE svg PUBLIC "-//W3C//DTD SVG 20010904//EN"
 "http://www.w3.org/TR/2001/REC-SVG-20010904/DTD/svg10.dtd">
<svg version="1.0" xmlns="http://www.w3.org/2000/svg"
 width="1000.000000pt" height="1000.000000pt" viewBox="0 0 1000.000000 1000.000000"
 preserveAspectRatio="xMidYMid meet">

<g transform="translate(0.000000,1000.000000) scale(0.100000,-0.100000)"
fill="#000000" stroke="none">
<path d="M5333 9792 c-9 -6 -6 -27 13 -87 35 -116 90 -369 114 -530 24 -159
38 -501 25 -610 l-9 -70 -8 95 c-28 314 -163 761 -333 1101 l-43 85 -39 -3
c-177 -17 -502 -78 -683 -128 -147 -40 -349 -106 -355 -114 -2 -4 32 -68 76
-142 169 -282 299 -571 368 -815 30 -106 64 -265 58 -271 -2 -1 -13 28 -25 65
-57 175 -234 487 -406 716 -98 129 -282 345 -301 352 -25 10 -361 -155 -563
-278 -128 -77 -352 -228 -370 -251 -10 -12 6 -28 89 -92 295 -227 550 -523
705 -820 64 -124 63 -124 -27 -5 -122 163 -353 376 -551 508 -114 76 -169 109
-307 178 l-125 63 -60 -52 c-161 -136 -437 -431 -583 -623 l-61 -81 56 -27
c304 -148 652 -418 872 -676 l55 -65 -65 50 c-224 173 -447 298 -710 398 -153
58 -348 113 -360 101 -27 -28 -184 -305 -265 -469 -85 -173 -185 -408 -185
-434 0 -5 15 -12 33 -15 343 -56 563 -123 814 -250 105 -53 239 -135 198 -121
-270 92 -546 132 -835 121 -149 -5 -297 -20 -308 -30 -8 -8 -63 -236 -91 -376
-31 -154 -75 -470 -66 -478 3 -3 29 0 58 7 219 51 452 76 646 68 139 -6 301
-25 301 -36 0 -4 -39 -12 -88 -19 -310 -42 -668 -183 -892 -350 -150 -112
-300 -287 -300 -351 0 -14 16 -127 35 -252 l35 -227 -29 -113 c-51 -195 -207
-609 -406 -1076 -45 -105 -52 -116 -104 -154 -202 -151 -271 -225 -271 -292 0
-35 -14 -140 -34 -253 -33 -185 -32 -354 3 -421 37 -74 162 -155 322 -211 124
-44 167 -48 216 -24 63 32 230 215 308 337 25 40 44 56 82 73 57 24 140 37
180 28 26 -7 25 -8 -27 -30 -75 -30 -140 -73 -140 -91 0 -29 -61 -160 -105
-225 -24 -35 -41 -68 -39 -71 8 -14 106 -31 141 -24 45 8 148 54 215 95 42 26
49 28 44 12 -18 -55 -36 -168 -42 -257 -7 -114 13 -285 46 -381 22 -64 98
-210 132 -255 101 -131 224 -258 309 -316 24 -16 62 -42 84 -57 39 -27 149
-86 160 -86 3 0 -12 24 -34 53 -21 28 -50 75 -64 102 -63 126 -106 333 -92
441 l7 59 25 -85 c27 -95 98 -237 161 -322 113 -153 218 -241 442 -368 350
-198 388 -226 452 -324 l38 -59 0 55 c0 77 -33 180 -87 266 -27 44 -105 135
-203 237 -88 91 -186 198 -218 238 -170 208 -278 427 -331 669 -20 94 -47 326
-38 334 3 3 10 -32 16 -78 46 -321 186 -604 413 -839 40 -41 143 -136 228
-210 85 -75 186 -169 223 -209 114 -123 186 -298 187 -455 1 -76 13 -58 36 55
24 122 15 349 -19 481 -47 181 -126 345 -210 436 -22 24 -36 43 -32 43 4 0 35
-13 69 -30 126 -60 235 -191 298 -357 l33 -87 3 89 c10 290 -144 685 -375 964
-31 36 -72 81 -92 99 -163 149 -270 274 -346 403 -134 228 -152 447 -50 604
50 78 71 92 147 99 85 8 220 47 312 90 75 34 216 124 277 176 l37 30 53 -42
c71 -55 196 -183 284 -289 189 -227 358 -500 601 -974 182 -355 264 -564 298
-768 6 -34 13 -40 75 -71 179 -91 468 -166 741 -193 157 -15 592 -9 740 11
597 79 1133 274 1598 583 396 262 734 627 940 1013 127 237 221 507 271 773 8
43 7 47 -8 42 -9 -4 -74 -22 -146 -40 -223 -57 -459 -85 -727 -85 l-167 0
-113 103 c-523 475 -1231 1042 -1848 1479 -474 336 -925 580 -1386 751 -82 31
-161 59 -177 62 -15 4 -29 11 -32 15 -3 5 21 50 53 102 33 51 78 129 102 173
24 44 83 152 131 240 107 194 154 301 181 410 23 93 19 144 -14 177 -18 18
-29 20 -97 15 -201 -14 -682 -183 -1071 -375 -177 -88 -247 -145 -330 -269
-86 -128 -182 -356 -236 -557 -28 -107 -28 -63 1 70 105 489 348 936 705 1294
459 460 1102 754 1890 862 148 20 692 17 847 -5 1266 -180 2297 -967 2782
-2123 287 -687 346 -1454 166 -2181 -218 -881 -776 -1649 -1545 -2125 -169
-105 -172 -108 -45 -42 148 77 442 261 540 338 11 9 58 46 105 82 206 162 450
395 617 588 543 631 897 1383 1032 2196 35 212 51 385 57 625 5 206 -4 477
-17 490 -3 2 -57 -7 -120 -20 -77 -17 -158 -27 -249 -30 l-135 -5 60 19 c121
38 339 141 405 190 l24 19 -13 94 c-25 183 -110 556 -152 664 l-9 24 -107 -54
c-120 -60 -245 -112 -343 -145 -78 -25 -202 -60 -197 -55 2 2 47 26 100 53
123 63 265 156 395 260 120 96 116 71 45 251 -46 117 -226 491 -283 588 l-31
53 -42 -48 c-93 -107 -177 -190 -277 -270 -101 -82 -256 -181 -316 -203 -28
-10 -28 -10 6 17 153 122 278 257 387 423 61 92 133 222 133 240 0 40 -282
405 -454 586 l-72 78 -39 -65 c-122 -203 -281 -415 -415 -550 -106 -107 -175
-157 -101 -73 112 128 284 467 386 766 l23 67 -106 93 c-131 115 -256 213
-387 304 -126 88 -235 158 -238 153 -1 -2 -24 -71 -52 -154 -60 -181 -155
-403 -220 -517 -40 -70 -161 -238 -170 -238 -2 0 18 42 45 93 58 111 101 231
140 391 34 135 78 395 82 475 l3 54 -150 77 c-209 106 -366 171 -605 250 -113
37 -206 67 -206 67 -1 -1 -7 -84 -13 -185 -20 -313 -51 -520 -111 -728 -26
-91 -88 -245 -74 -184 42 187 48 246 48 530 0 214 -4 321 -17 430 -10 80 -20
154 -23 166 -5 18 -23 24 -139 47 -168 34 -394 63 -593 76 -178 13 -451 14
-469 3z m-3372 -5238 c11 -48 10 -136 -2 -178 -23 -84 -116 -145 -278 -181
-84 -19 -150 -60 -192 -117 l-31 -43 7 35 c22 116 69 292 90 337 25 56 80 100
154 124 55 18 225 58 236 55 6 -2 13 -16 16 -32z m-1347 -1626 c-24 -116 -68
-206 -119 -246 -47 -38 -135 -63 -230 -68 l-90 -5 63 60 c40 38 97 77 154 107
102 52 167 107 205 171 14 24 26 43 27 43 2 0 -3 -28 -10 -62z"/>
</g>
</svg>
