<?xml version="1.0" standalone="no"?>
<!DOCTYPE svg PUBLIC "-//W3C//DTD SVG 20010904//EN"
 "http://www.w3.org/TR/2001/REC-SVG-20010904/DTD/svg10.dtd">
<svg version="1.0" xmlns="http://www.w3.org/2000/svg"
 width="680.000000pt" height="680.000000pt" viewBox="0 0 680.000000 680.000000"
 preserveAspectRatio="xMidYMid meet">

<g transform="translate(0.000000,680.000000) scale(0.100000,-0.100000)"
fill="#000000" stroke="none">
<path d="M4006 6193 c-37 -4 -38 -5 -32 -36 8 -38 38 -78 166 -215 238 -258
355 -470 395 -716 22 -133 17 -145 -11 -31 -29 119 -110 290 -183 386 -80 105
-213 224 -394 353 -184 130 -211 156 -205 198 4 27 3 28 -31 22 -85 -15 -283
-78 -373 -118 -206 -93 -400 -254 -501 -417 -77 -124 -109 -223 -114 -354 -6
-139 11 -224 70 -349 60 -127 115 -204 222 -315 193 -200 472 -369 667 -403
46 -8 75 -7 138 6 44 9 111 16 149 16 209 0 539 -108 716 -235 183 -130 329
-351 388 -585 29 -117 31 -358 4 -440 -37 -108 -71 -164 -147 -240 -83 -83
-164 -135 -285 -181 -148 -57 -219 -72 -355 -72 -109 -1 -134 2 -196 25 -211
75 -345 258 -344 468 2 257 138 460 308 460 67 0 109 -18 197 -84 110 -83 148
-99 240 -103 65 -4 87 -1 115 15 87 47 134 185 112 329 -33 208 -169 348 -412
425 -64 20 -96 23 -215 23 -161 0 -220 -13 -351 -74 -169 -79 -346 -229 -475
-401 -112 -148 -112 -170 -3 -89 79 59 152 95 209 103 l40 6 -40 -13 c-92 -31
-150 -72 -255 -182 -44 -45 -70 -65 -84 -63 -17 3 -28 -14 -63 -92 -156 -351
-163 -720 -21 -1078 61 -154 88 -151 88 9 0 53 4 118 9 145 12 61 46 153 66
180 12 15 12 11 -1 -21 -47 -115 -56 -249 -28 -410 9 -49 13 -107 10 -127 -6
-34 -1 -43 54 -111 232 -289 572 -471 994 -532 157 -23 174 -8 41 35 -119 39
-196 81 -260 143 l-60 58 65 -51 c82 -64 187 -105 336 -130 130 -22 158 -33
151 -60 -4 -15 5 -18 62 -23 93 -9 352 9 498 33 295 50 554 151 790 308 46 30
80 58 77 63 -9 15 -55 10 -124 -11 -153 -48 -282 -60 -385 -37 -46 11 -42 12
70 12 144 0 205 16 397 106 132 62 147 66 165 48 16 -16 55 14 135 103 239
267 401 573 499 942 15 61 26 112 23 115 -8 9 -42 -35 -104 -135 -64 -102
-162 -205 -240 -251 -83 -48 -103 -51 -32 -4 131 86 209 192 306 414 47 110
67 145 87 154 24 12 26 19 37 125 44 429 9 800 -114 1205 -17 57 -29 80 -38
77 -18 -7 -47 -76 -91 -214 -43 -134 -90 -239 -136 -307 -39 -57 -142 -167
-184 -196 -21 -15 -15 -5 20 34 67 72 110 135 150 222 57 125 76 204 109 452
17 128 29 165 56 172 11 3 20 10 20 15 0 18 -136 282 -193 377 -177 288 -412
545 -673 734 -57 41 -73 45 -76 20 -3 -41 7 -75 67 -227 78 -198 103 -289 117
-432 10 -96 9 -126 -6 -220 -10 -60 -22 -116 -28 -124 -7 -11 -8 -9 -4 10 14
58 17 200 8 270 -26 182 -93 344 -232 565 -45 72 -90 147 -101 167 -22 42 -25
88 -7 106 15 15 -59 48 -222 102 -193 63 -373 103 -615 136 -108 14 -523 27
-599 17z"/>
<path d="M2680 5555 c-145 -76 -341 -232 -443 -354 -119 -141 -168 -232 -211
-393 -73 -278 -220 -449 -756 -879 -267 -214 -456 -383 -870 -774 -317 -301
-365 -352 -380 -401 -31 -106 -21 -298 22 -413 27 -74 55 -112 182 -256 73
-83 118 -143 143 -195 82 -164 289 -311 529 -375 98 -26 269 -40 354 -28 l75
10 105 -53 c120 -60 218 -131 279 -201 63 -72 127 -210 149 -323 21 -107 26
-103 43 40 29 243 -39 425 -204 546 -32 24 -56 44 -53 44 19 0 128 -64 174
-101 105 -86 208 -258 248 -414 24 -97 25 -279 1 -359 -10 -32 -16 -60 -14
-62 8 -8 144 114 198 179 162 193 207 443 150 837 -12 85 -21 186 -19 225 l3
69 250 43 c138 23 283 43 323 44 39 1 72 4 72 7 0 3 -18 49 -39 103 -22 54
-52 147 -67 206 -26 100 -28 122 -29 313 0 230 7 283 65 460 154 474 534 871
926 968 57 14 104 29 104 33 0 25 -52 34 -200 34 -145 1 -160 3 -230 29 -357
135 -695 432 -831 731 -92 204 -98 441 -15 629 14 31 22 56 18 56 -4 -1 -27
-12 -52 -25z m-101 -1030 c3 -282 -102 -407 -441 -529 -51 -18 -106 -36 -122
-40 l-29 -7 26 35 c15 19 67 117 116 218 50 101 112 217 139 258 62 94 155
195 235 256 l62 46 6 -68 c4 -38 7 -114 8 -169z"/>
</g>
</svg>
