<?xml version="1.0" standalone="no"?>
<!DOCTYPE svg PUBLIC "-//W3C//DTD SVG 20010904//EN"
 "http://www.w3.org/TR/2001/REC-SVG-20010904/DTD/svg10.dtd">
<svg version="1.0" xmlns="http://www.w3.org/2000/svg"
 width="590.000000pt" height="602.000000pt" viewBox="0 0 590.000000 602.000000"
 preserveAspectRatio="xMidYMid meet">

<g transform="translate(0.000000,602.000000) scale(0.100000,-0.100000)"
fill="#000000" stroke="none">
<path d="M392 6000 c-43 -18 -137 -87 -179 -133 -54 -59 -75 -100 -112 -228
-45 -156 -60 -234 -73 -397 -17 -201 -16 -924 0 -1122 42 -490 151 -954 307
-1295 20 -45 35 -93 35 -116 0 -121 55 -214 156 -265 51 -25 223 -151 374
-274 25 -20 61 -42 80 -50 144 -55 212 -105 315 -234 111 -138 150 -172 276
-235 108 -54 117 -62 177 -137 133 -165 168 -193 347 -274 107 -48 143 -77
218 -180 115 -157 133 -172 272 -229 146 -61 147 -61 229 -185 42 -63 91 -126
109 -140 101 -82 299 -246 340 -282 37 -33 57 -44 89 -46 36 -3 43 -7 51 -33
15 -48 45 -72 126 -102 66 -24 89 -28 176 -26 268 4 670 173 1005 424 478 356
882 876 1058 1359 122 335 152 676 83 940 -23 87 -41 114 -91 140 -26 13 -45
32 -54 53 -15 37 -76 92 -286 258 -196 155 -247 192 -327 235 -79 43 -122 81
-166 144 -106 154 -190 219 -382 296 -58 23 -68 32 -99 83 -127 206 -140 218
-386 336 -72 35 -94 56 -143 140 -80 139 -105 160 -297 260 -115 60 -115 60
-170 143 -67 99 -81 114 -284 289 -133 115 -165 148 -191 198 -25 49 -40 64
-80 85 -44 22 -62 25 -155 25 -119 0 -162 -12 -300 -80 -144 -70 -330 -205
-580 -419 -125 -107 -494 -476 -570 -570 -30 -36 -57 -63 -60 -59 -4 5 -12 26
-19 48 -11 34 -10 53 3 116 23 111 29 250 17 379 -11 127 -34 206 -85 291 -23
39 -42 93 -61 175 -57 253 -93 340 -189 455 -60 74 -164 167 -218 198 -78 43
-227 64 -286 41z m128 -76 c143 -42 284 -190 380 -398 42 -93 94 -246 105
-313 4 -23 26 -86 50 -140 56 -128 85 -246 85 -345 0 -63 -3 -78 -15 -78 -17
0 -20 -25 -5 -35 15 -10 12 -35 -5 -35 -8 0 -15 -7 -15 -15 0 -8 5 -15 11 -15
6 0 9 -21 7 -52 -2 -43 -6 -52 -20 -50 -27 4 -31 -17 -5 -27 32 -12 42 -40 21
-56 -22 -15 -10 -35 16 -28 16 4 20 0 20 -20 0 -14 5 -38 12 -52 10 -23 10
-28 -5 -36 -21 -12 -22 -29 -2 -29 12 0 15 -15 15 -76 0 -120 -30 -318 -53
-356 -11 -18 -22 -44 -23 -57 -2 -13 -10 -31 -18 -40 -9 -10 -16 -23 -16 -30
0 -26 -43 -111 -56 -111 -10 0 -13 -7 -8 -24 4 -17 -1 -31 -15 -45 -12 -12
-21 -28 -21 -36 0 -8 -4 -23 -9 -33 -5 -9 -12 -26 -16 -36 -4 -13 -9 -16 -16
-9 -6 6 -2 33 15 79 13 38 30 93 37 122 11 43 16 52 33 50 10 -2 21 3 23 10 3
6 -2 12 -11 12 -22 0 -20 37 2 49 13 7 14 13 5 22 -16 16 -5 39 18 39 23 0 25
16 4 27 -12 7 -14 20 -9 57 4 26 13 50 20 53 19 7 18 33 -1 33 -8 0 -15 -6
-15 -12 0 -7 -7 -26 -15 -42 -9 -16 -13 -37 -10 -46 9 -28 -32 -193 -50 -206
-11 -9 -15 -20 -10 -34 4 -13 0 -31 -9 -45 -9 -13 -16 -34 -16 -45 0 -12 -14
-50 -31 -86 -25 -51 -34 -62 -45 -53 -7 6 -19 7 -25 3 -9 -5 -7 -11 7 -21 17
-13 18 -16 4 -41 -9 -15 -26 -28 -39 -30 -19 -3 -22 -8 -17 -28 12 -46 -86
-111 -109 -73 -4 5 -18 14 -32 20 -17 6 -23 15 -21 31 2 17 -3 24 -18 26 -23
3 -48 42 -49 75 0 12 -5 22 -12 22 -20 0 -25 13 -13 34 9 19 8 21 -14 21 -19
0 -27 8 -36 36 -7 19 -9 46 -6 60 4 13 2 24 -3 24 -17 0 -29 32 -60 169 -33
140 -37 181 -21 181 18 0 10 22 -9 27 -15 4 -21 17 -27 59 -3 30 -4 58 0 61 3
3 1 12 -4 18 -6 7 -15 50 -20 96 -8 72 -7 85 6 92 14 8 13 12 -7 33 -20 21
-21 26 -9 34 12 8 13 13 3 29 -18 29 -29 206 -14 215 9 6 9 11 0 22 -21 25 3
469 32 614 16 79 66 209 97 254 88 128 189 126 301 -6 82 -97 121 -175 215
-431 30 -79 30 -46 1 70 -35 138 -87 259 -159 366 -127 191 -239 234 -343 131
-111 -112 -161 -351 -169 -818 -3 -214 -5 -240 -21 -252 -17 -13 -17 -14 5
-20 22 -6 30 -38 12 -49 -6 -4 -4 -14 4 -28 9 -14 16 -62 20 -127 2 -58 8
-113 12 -123 5 -13 1 -20 -15 -24 -26 -7 -27 -23 -1 -30 25 -7 30 -25 26 -100
-2 -38 1 -64 8 -66 6 -2 10 -29 10 -60 0 -31 4 -57 8 -57 4 0 8 -12 9 -27 0
-16 11 -77 23 -138 18 -81 21 -114 13 -124 -9 -10 -7 -16 6 -26 15 -10 57
-124 62 -165 2 -18 48 -109 81 -162 13 -21 24 -44 24 -53 0 -8 5 -15 11 -15 6
0 24 -11 41 -25 21 -18 41 -25 72 -25 42 0 44 1 87 70 27 42 51 69 62 70 14 0
16 4 9 18 -12 22 12 82 33 82 8 0 15 -7 15 -15 0 -8 -7 -15 -16 -15 -12 0 -14
-7 -9 -28 7 -33 -19 -102 -39 -102 -9 0 -13 -11 -12 -32 1 -26 -3 -32 -16 -30
-20 3 -24 -18 -8 -34 7 -7 4 -19 -10 -36 -11 -15 -20 -31 -20 -36 0 -5 -11
-17 -25 -26 -14 -9 -22 -22 -19 -30 3 -9 -5 -21 -20 -31 -34 -23 -92 -13 -99
16 -4 16 -11 19 -26 14 -24 -7 -81 42 -81 71 0 9 -11 27 -25 40 -25 23 -34 54
-15 54 6 0 10 7 10 15 0 8 -9 15 -19 15 -24 0 -32 31 -12 46 15 11 6 38 -9 29
-11 -7 -25 20 -33 63 -6 27 -4 32 13 32 11 0 20 5 20 10 0 10 -13 14 -37 11
-7 -1 -14 18 -18 46 -4 26 -10 57 -15 68 -17 39 -22 86 -10 100 13 16 5 35
-14 35 -8 0 -18 24 -26 63 -6 34 -16 77 -22 95 -8 28 -7 36 8 46 20 15 11 38
-11 29 -8 -3 -15 -3 -15 0 0 2 -11 58 -24 123 -39 193 -39 191 -19 198 17 7
16 9 -3 24 -14 11 -24 33 -28 65 -5 43 -4 47 15 47 12 0 19 5 16 13 -2 6 -10
12 -18 12 -19 0 -29 15 -29 43 0 15 6 22 20 22 28 0 25 19 -4 30 -23 8 -24 15
-32 127 -5 65 -9 294 -9 508 0 421 6 485 54 654 61 210 149 332 247 340 6 1
34 -6 64 -15z m2279 -660 c34 -44 28 -61 -28 -73 -178 -38 -440 -182 -676
-371 -272 -218 -576 -533 -793 -822 -61 -82 -93 -112 -77 -70 4 9 9 61 12 116
l6 98 65 77 c274 323 627 642 938 847 219 146 386 222 486 223 39 1 50 -3 67
-25z m14 -161 c8 -14 -40 -166 -78 -246 -29 -60 -40 -75 -50 -67 -18 15 -31
-6 -15 -25 14 -17 -27 -101 -53 -109 -13 -3 -17 -10 -13 -24 10 -29 -127 -136
-161 -127 -20 5 -23 2 -23 -21 0 -19 -7 -28 -28 -36 -16 -6 -33 -21 -38 -32
-6 -15 -17 -20 -36 -19 -22 1 -27 -3 -30 -25 -2 -21 -9 -28 -30 -30 -18 -2
-28 -9 -28 -19 0 -19 -139 -163 -157 -163 -8 0 -17 -10 -22 -22 -5 -13 -30
-43 -55 -67 -38 -38 -47 -42 -61 -31 -20 16 -33 4 -19 -18 13 -20 -9 -62 -32
-62 -8 0 -17 -8 -21 -17 -13 -38 -25 -45 -44 -27 -17 15 -19 15 -19 2 0 -9 7
-19 16 -22 12 -5 6 -18 -33 -65 -40 -49 -52 -58 -72 -54 -22 5 -23 4 -17 -22
9 -37 -26 -77 -61 -69 -24 6 -30 -5 -12 -23 14 -14 -10 -53 -33 -53 -12 0 -18
-8 -18 -24 0 -25 -70 -120 -95 -130 -8 -3 -15 -13 -15 -21 0 -18 -84 -140
-104 -152 -7 -5 -18 -22 -25 -40 -7 -17 -26 -44 -42 -60 -15 -15 -29 -33 -29
-40 0 -18 -60 -104 -76 -110 -8 -3 -14 -13 -14 -23 0 -38 -46 -94 -123 -152
-88 -65 -209 -138 -228 -138 -7 0 -20 -6 -28 -14 -14 -13 -19 -12 -39 4 l-22
18 21 57 c13 36 28 59 40 62 14 4 17 11 13 27 -3 13 5 45 19 77 14 30 32 71
41 93 11 26 20 36 31 33 21 -9 28 9 13 33 -11 18 -10 23 5 34 9 7 17 25 17 40
0 16 10 37 25 50 15 14 23 30 19 39 -6 17 21 77 36 77 5 0 8 12 8 28 -2 57
102 230 271 452 333 439 642 765 926 977 121 91 310 197 462 259 111 45 129
49 136 37z m335 -203 c92 -74 152 -129 152 -140 0 -79 -162 -449 -305 -695
-293 -505 -780 -1068 -1255 -1451 -163 -132 -380 -274 -418 -274 -12 0 -22 -4
-22 -10 0 -8 -90 -60 -105 -60 -3 0 -5 7 -5 16 0 9 -6 14 -12 11 -7 -2 -12
-13 -10 -25 2 -16 -4 -23 -23 -28 -34 -8 -82 14 -152 69 -43 34 -52 46 -47 65
4 21 2 23 -23 18 -23 -5 -37 3 -83 43 -30 27 -53 51 -50 53 3 3 50 28 105 57
300 159 597 410 985 836 173 189 521 621 649 805 232 333 365 588 437 839 3 9
8 10 17 4 6 -6 81 -65 165 -133z m304 -260 c23 -17 64 -37 92 -45 72 -22 113
-52 180 -134 57 -70 58 -72 51 -119 -31 -221 -157 -578 -297 -842 -236 -446
-627 -910 -1063 -1261 -162 -131 -405 -289 -444 -289 -11 0 -21 -5 -21 -10 0
-6 -34 -27 -75 -47 -58 -27 -79 -33 -87 -25 -18 18 -28 14 -28 -8 0 -13 -7
-20 -19 -20 -11 0 -23 -4 -26 -10 -16 -26 -120 8 -129 42 -4 16 -8 17 -23 8
-28 -18 -96 24 -87 53 5 17 3 19 -20 15 -21 -4 -32 1 -52 24 -18 23 -22 34
-14 43 12 15 -3 30 -19 20 -15 -9 -33 33 -25 57 5 18 3 20 -17 15 -17 -5 -31
1 -51 20 -35 33 -36 53 -3 53 14 0 25 6 25 13 0 6 21 21 48 31 26 10 55 26 64
34 10 8 27 12 39 9 15 -4 23 0 26 14 3 10 16 22 29 25 13 3 24 10 24 15 0 5 7
9 15 9 8 0 15 -4 15 -10 0 -5 5 -10 11 -10 6 0 8 8 4 19 -4 14 4 25 37 44 73
43 289 206 378 286 522 467 960 1025 1218 1553 68 139 147 330 173 416 7 23
16 42 21 42 4 0 27 -14 50 -30z m-1002 -260 c0 -5 -5 -10 -11 -10 -5 0 -7 5
-4 10 3 6 8 10 11 10 2 0 4 -4 4 -10z m-66 -104 c-25 -37 -42 -52 -48 -46 -6
6 -16 10 -23 10 -16 0 -17 -27 -1 -32 6 -2 9 -12 5 -21 -5 -13 -13 -16 -32
-11 -26 6 -33 -4 -14 -23 9 -9 7 -18 -7 -36 -11 -14 -45 -59 -77 -100 -32 -42
-70 -87 -85 -100 -15 -13 -34 -35 -42 -49 -29 -49 -113 -148 -127 -148 -7 0
-13 -6 -13 -13 0 -19 -120 -157 -136 -157 -8 0 -14 -8 -14 -17 0 -10 -14 -31
-30 -47 -24 -23 -32 -27 -44 -17 -18 15 -34 -5 -17 -22 17 -17 -114 -146 -142
-139 -17 4 -19 2 -14 -17 4 -17 -4 -33 -36 -67 -23 -24 -49 -44 -59 -44 -24 0
-23 17 2 30 11 6 20 20 20 30 0 13 7 20 20 20 15 0 20 7 20 25 0 23 115 194
161 238 11 10 19 21 19 25 0 4 7 15 14 25 12 16 17 16 35 6 26 -17 42 -2 18
16 -13 9 -16 18 -10 28 21 37 199 246 210 246 7 1 20 17 29 36 20 44 34 53 46
31 5 -9 13 -16 18 -16 15 0 12 22 -5 34 -13 9 4 30 98 126 158 162 280 271
290 261 5 -5 -8 -34 -29 -65z m1661 -121 c87 -26 140 -63 176 -121 21 -35 22
-40 10 -118 -37 -250 -141 -553 -270 -790 -78 -144 -96 -173 -171 -287 -316
-474 -801 -955 -1220 -1208 -55 -34 -92 -50 -105 -47 -15 4 -23 -1 -30 -17 -7
-15 -17 -21 -31 -19 -13 2 -24 -4 -28 -13 -7 -20 -84 -55 -103 -48 -8 3 -19
-2 -26 -10 -7 -9 -32 -23 -56 -32 l-44 -15 -88 42 c-53 25 -89 48 -92 60 -3
10 -14 18 -27 18 -19 0 -21 4 -16 25 6 24 4 26 -21 23 -24 -3 -28 0 -25 19 2
17 -2 23 -16 23 -22 0 -57 35 -70 71 -10 25 -8 26 77 62 47 20 94 37 103 37 9
0 20 5 23 10 4 6 25 20 47 31 29 15 43 18 51 10 17 -17 27 -13 27 8 0 11 11
26 25 33 114 60 348 220 480 330 545 454 956 1029 1119 1568 20 69 89 342 112
448 4 22 7 21 57 -23 40 -35 71 -51 132 -70z m427 -401 c30 -15 30 -17 24 -71
-35 -299 -232 -767 -465 -1109 -113 -165 -141 -202 -247 -329 -254 -303 -569
-595 -850 -786 -50 -33 -78 -46 -93 -42 -16 4 -21 1 -21 -16 0 -14 -8 -23 -25
-27 -14 -4 -29 -4 -32 0 -3 3 -11 -4 -18 -17 -8 -15 -19 -21 -38 -20 -20 1
-27 -3 -27 -16 0 -12 -20 -27 -62 -46 -35 -15 -77 -34 -95 -42 -18 -8 -37 -12
-43 -8 -6 4 -20 -2 -31 -14 -11 -12 -23 -21 -28 -21 -4 0 -33 28 -63 63 -46
52 -54 66 -46 81 9 16 7 17 -21 11 -44 -9 -40 11 6 30 25 11 40 12 47 5 16
-16 26 -12 26 10 0 22 20 26 38 8 10 -10 14 -8 19 10 6 26 58 54 93 50 15 -2
25 2 25 10 0 19 34 42 61 42 13 0 27 6 31 13 4 8 31 27 58 42 311 177 730 558
1016 926 292 376 506 822 585 1219 14 74 28 141 30 148 3 9 24 -4 60 -37 31
-29 70 -59 86 -67z m214 -106 c32 -25 87 -86 130 -145 41 -56 98 -122 126
-147 l52 -46 -12 -117 c-19 -195 -82 -389 -212 -658 -272 -560 -710 -1063
-1232 -1413 -76 -52 -98 -61 -98 -42 0 6 -7 10 -16 10 -12 0 -15 -6 -10 -26 6
-24 5 -26 -18 -20 -19 5 -26 2 -31 -14 -9 -29 -103 -81 -133 -73 -19 4 -23 2
-20 -13 2 -15 -18 -30 -102 -71 -102 -50 -105 -51 -116 -31 -12 23 -28 10 -18
-15 3 -9 -3 -16 -15 -20 -15 -3 -21 0 -21 10 0 11 -7 14 -25 9 -17 -4 -25 -2
-26 6 -1 7 -2 20 -3 28 0 8 -7 14 -15 12 -22 -5 -63 28 -57 45 9 22 -3 36 -20
22 -20 -17 -43 -4 -37 20 4 15 1 21 -10 21 -8 0 -17 -5 -19 -11 -2 -6 -27 3
-58 20 -30 17 -67 36 -82 42 -16 6 -28 17 -28 25 0 8 -9 14 -20 14 -16 0 -48
37 -38 44 13 10 142 56 158 56 10 0 21 4 24 9 3 5 25 19 48 31 38 20 43 20 53
6 13 -17 25 -11 25 13 0 9 24 29 57 46 83 44 314 197 423 281 402 308 792 768
1013 1196 120 231 189 433 268 785 23 103 38 153 47 153 8 0 38 -19 68 -42z
m-3768 -350 c-4 -27 -28 -36 -28 -10 0 20 8 32 22 32 5 0 8 -10 6 -22z m4220
-55 c15 -10 97 -84 182 -164 85 -81 167 -157 182 -169 35 -27 44 -63 60 -232
19 -222 -5 -408 -88 -656 -167 -502 -577 -1005 -1075 -1317 -9 -5 -28 -19 -43
-29 -20 -14 -30 -16 -39 -7 -17 17 -27 13 -27 -13 0 -24 -16 -36 -50 -36 -10
0 -21 -7 -24 -16 -3 -8 -14 -14 -25 -12 -11 2 -27 -8 -39 -22 -20 -24 -21 -24
-35 -6 -10 13 -16 15 -21 8 -4 -7 -5 -16 -2 -21 7 -11 -11 -26 -41 -35 -18 -6
-23 -3 -23 9 0 9 -6 15 -12 12 -7 -2 -12 -14 -11 -25 3 -21 -9 -28 -57 -37
-12 -2 -27 -8 -34 -13 -6 -4 -28 -14 -50 -21 -30 -10 -40 -11 -46 -1 -9 15
-30 4 -30 -16 0 -9 -10 -14 -29 -14 -17 0 -33 -4 -36 -10 -10 -15 -35 -12 -35
5 0 22 -21 18 -27 -5 -5 -20 -13 -23 -70 -35 -26 -5 -33 -3 -33 9 0 9 -4 16
-10 16 -5 0 -10 -7 -10 -15 0 -23 -31 -31 -42 -12 -7 13 -13 14 -27 5 -26 -16
-107 31 -198 116 -65 61 -72 70 -57 81 13 9 14 14 4 20 -7 4 -16 2 -21 -6 -6
-11 -13 -10 -33 6 -14 11 -54 43 -90 70 -36 28 -65 54 -66 58 0 4 8 10 18 13
44 15 170 66 194 79 14 8 33 15 41 15 9 0 17 4 19 8 3 7 194 112 204 112 2 0
4 -7 4 -15 0 -18 16 -20 26 -4 3 6 0 15 -7 20 -11 7 -10 11 6 23 23 18 45 20
45 6 0 -5 5 -10 10 -10 6 0 10 11 10 25 0 20 6 27 30 31 17 4 30 12 30 18 1 6
48 44 105 84 366 260 777 715 997 1107 182 323 268 574 342 998 8 42 15 44 54
20z m-3728 -82 c0 -5 -7 -14 -15 -21 -12 -10 -15 -10 -15 2 0 8 3 18 7 21 9
10 23 9 23 -2z m4278 -458 c41 -142 42 -412 2 -598 -70 -329 -229 -640 -484
-947 -155 -186 -459 -468 -505 -468 -12 0 -21 -6 -21 -14 0 -20 -21 -31 -30
-16 -11 18 -29 3 -23 -19 6 -24 -13 -36 -32 -21 -15 12 -17 10 -19 -20 -1 -10
-10 -14 -30 -12 -23 3 -27 0 -22 -16 5 -15 -2 -25 -30 -41 -20 -12 -43 -20
-51 -16 -9 3 -17 -3 -20 -15 -5 -19 -14 -24 -41 -21 -7 1 -15 -5 -18 -14 -9
-22 -81 -57 -103 -50 -12 3 -21 0 -25 -10 -8 -22 -93 -56 -122 -49 -17 5 -24
2 -24 -9 0 -18 -57 -41 -65 -26 -10 15 -22 10 -28 -10 -8 -31 -221 -81 -215
-50 2 6 -3 14 -11 17 -10 3 -13 -1 -8 -17 4 -16 1 -21 -13 -21 -11 0 -22 5
-25 11 -5 7 -13 5 -25 -6 -13 -12 -23 -13 -44 -5 -27 10 -44 35 -31 48 3 4 12
-1 19 -11 17 -22 26 -22 26 3 0 14 9 21 38 25 20 4 46 11 57 16 62 29 195 67
201 57 4 -7 13 -3 23 10 9 11 45 32 81 47 97 41 244 116 345 178 56 35 94 52
100 46 16 -15 25 -10 25 14 0 17 10 29 37 43 20 10 46 29 58 40 11 12 58 53
105 91 410 337 724 824 834 1298 46 193 51 242 49 438 l-3 187 28 -14 c19 -10
32 -28 40 -53z"/>
<path d="M584 5270 c-28 -11 -79 -77 -102 -131 -54 -128 -81 -307 -89 -594 -5
-179 -9 -222 -21 -231 -13 -10 -13 -12 2 -21 24 -13 37 -142 15 -140 -23 3
-26 -18 -3 -21 19 -3 22 -14 33 -105 13 -108 41 -248 71 -358 14 -51 15 -70 7
-79 -9 -9 -7 -15 8 -26 19 -14 19 -16 2 -25 -21 -12 -13 -29 14 -29 10 0 19
-4 19 -8 0 -5 15 -33 34 -64 22 -37 30 -60 24 -66 -16 -16 1 -36 17 -22 19 16
35 4 35 -26 0 -23 10 -31 23 -18 4 4 21 8 38 9 18 2 44 15 62 33 18 16 38 27
46 24 11 -3 12 2 7 22 -7 28 3 53 31 82 10 10 18 27 18 38 0 14 7 22 23 24 26
4 29 17 5 31 -17 10 -16 12 5 29 17 13 20 20 11 29 -14 14 17 162 38 179 15
13 17 34 4 34 -5 0 -8 24 -5 53 2 28 6 81 8 117 3 36 8 76 12 89 5 18 4 22 -7
19 -8 -3 -13 -15 -12 -27 2 -12 -4 -24 -12 -27 -17 -7 -21 -34 -5 -34 6 0 10
-9 10 -20 0 -11 -7 -20 -15 -20 -18 0 -20 -27 -3 -32 15 -5 -15 -218 -34 -232
-7 -6 -13 -31 -14 -56 -1 -59 -20 -108 -36 -92 -16 16 -28 15 -28 -3 0 -8 7
-15 15 -15 19 0 19 -4 -1 -46 -9 -19 -23 -34 -30 -34 -8 0 -14 -8 -14 -18 0
-23 -27 -48 -61 -57 -44 -11 -89 23 -129 98 -34 64 -34 66 -16 80 21 16 6 33
-19 23 -14 -5 -20 12 -16 38 1 4 -4 14 -10 22 -12 14 -29 77 -33 124 -2 14 -9
36 -16 50 -8 14 -14 51 -14 82 -1 33 -5 59 -12 62 -17 7 -27 86 -12 103 10 12
9 18 -6 29 -15 10 -17 21 -12 48 4 23 3 36 -4 36 -5 0 -10 7 -10 15 0 8 5 15
10 15 6 0 10 7 10 15 0 8 -7 15 -15 15 -23 0 -21 115 3 129 15 10 15 12 1 23
-22 18 -24 204 -4 383 23 213 57 309 135 379 36 32 47 37 73 32 17 -4 41 -13
54 -21 37 -25 102 -113 144 -197 22 -43 41 -78 44 -78 2 0 -4 24 -14 53 -49
141 -141 273 -211 301 -22 9 -41 16 -43 15 -1 0 -11 -4 -23 -9z"/>
<path d="M1066 4523 c-11 -11 -6 -23 9 -23 8 0 15 4 15 9 0 13 -16 22 -24 14z"/>
<path d="M475 4480 c-4 -6 -3 -16 3 -22 6 -6 12 -6 17 2 4 6 3 16 -3 22 -6 6
-12 6 -17 -2z"/>
<path d="M1006 4483 c-11 -11 -6 -23 9 -23 8 0 15 4 15 9 0 13 -16 22 -24 14z"/>
<path d="M197 4463 c-12 -11 -8 -23 8 -23 8 0 15 7 15 15 0 16 -12 20 -23 8z"/>
<path d="M336 4453 c-11 -11 -6 -23 9 -23 8 0 15 4 15 9 0 13 -16 22 -24 14z"/>
<path d="M500 4415 c0 -8 7 -15 15 -15 8 0 15 7 15 15 0 8 -7 15 -15 15 -8 0
-15 -7 -15 -15z"/>
<path d="M580 4414 c0 -17 22 -14 28 4 2 7 -3 12 -12 12 -9 0 -16 -7 -16 -16z"/>
<path d="M942 4408 c6 -18 28 -21 28 -4 0 9 -7 16 -16 16 -9 0 -14 -5 -12 -12z"/>
<path d="M1015 4410 c-4 -6 -3 -16 3 -22 6 -6 12 -6 17 2 4 6 3 16 -3 22 -6 6
-12 6 -17 -2z"/>
<path d="M200 4385 c0 -9 5 -15 11 -13 6 2 11 8 11 13 0 5 -5 11 -11 13 -6 2
-11 -4 -11 -13z"/>
<path d="M342 4368 c6 -18 28 -21 28 -4 0 9 -7 16 -16 16 -9 0 -14 -5 -12 -12z"/>
<path d="M482 4358 c6 -18 28 -21 28 -4 0 9 -7 16 -16 16 -9 0 -14 -5 -12 -12z"/>
<path d="M552 4358 c6 -18 28 -21 28 -4 0 9 -7 16 -16 16 -9 0 -14 -5 -12 -12z"/>
<path d="M917 4354 c-8 -8 1 -24 14 -24 5 0 9 7 9 15 0 15 -12 20 -23 9z"/>
<path d="M622 4339 c2 -6 8 -10 13 -10 5 0 11 4 13 10 2 6 -4 11 -13 11 -9 0
-15 -5 -13 -11z"/>
<path d="M1037 4344 c-8 -8 1 -24 14 -24 5 0 9 7 9 15 0 15 -12 20 -23 9z"/>
<path d="M860 4325 c0 -9 5 -15 11 -13 6 2 11 8 11 13 0 5 -5 11 -11 13 -6 2
-11 -4 -11 -13z"/>
<path d="M247 4324 c-8 -8 1 -24 14 -24 5 0 9 7 9 15 0 15 -12 20 -23 9z"/>
<path d="M437 4324 c-8 -8 1 -24 14 -24 5 0 9 7 9 15 0 15 -12 20 -23 9z"/>
<path d="M747 4323 c-12 -11 -8 -23 8 -23 8 0 15 7 15 15 0 16 -12 20 -23 8z"/>
<path d="M976 4323 c-11 -11 -6 -23 9 -23 8 0 15 4 15 9 0 13 -16 22 -24 14z"/>
<path d="M546 4285 c4 -9 11 -14 16 -13 15 5 11 23 -6 26 -11 2 -14 -2 -10
-13z"/>
<path d="M672 4288 c6 -18 28 -21 28 -4 0 9 -7 16 -16 16 -9 0 -14 -5 -12 -12z"/>
<path d="M817 4293 c-12 -11 -8 -23 8 -23 8 0 15 7 15 15 0 16 -12 20 -23 8z"/>
<path d="M920 4276 c0 -9 5 -16 10 -16 6 0 10 4 10 9 0 6 -4 13 -10 16 -5 3
-10 -1 -10 -9z"/>
<path d="M1080 4275 c0 -9 5 -15 11 -13 6 2 11 8 11 13 0 5 -5 11 -11 13 -6 2
-11 -4 -11 -13z"/>
<path d="M482 4259 c2 -6 8 -10 13 -10 5 0 11 4 13 10 2 6 -4 11 -13 11 -9 0
-15 -5 -13 -11z"/>
<path d="M610 4256 c0 -9 7 -16 16 -16 17 0 14 22 -4 28 -7 2 -12 -3 -12 -12z"/>
<path d="M987 4253 c-12 -11 -8 -23 8 -23 8 0 15 7 15 15 0 16 -12 20 -23 8z"/>
<path d="M252 4239 c2 -6 8 -10 13 -10 5 0 11 4 13 10 2 6 -4 11 -13 11 -9 0
-15 -5 -13 -11z"/>
<path d="M732 4238 c6 -18 28 -21 28 -4 0 9 -7 16 -16 16 -9 0 -14 -5 -12 -12z"/>
<path d="M870 4234 c0 -9 5 -14 12 -12 18 6 21 28 4 28 -9 0 -16 -7 -16 -16z"/>
<path d="M1085 4230 c-4 -6 -3 -16 3 -22 6 -6 12 -6 17 2 4 6 3 16 -3 22 -6 6
-12 6 -17 -2z"/>
<path d="M807 4224 c-8 -8 1 -24 14 -24 5 0 9 7 9 15 0 15 -12 20 -23 9z"/>
<path d="M560 4204 c0 -9 5 -14 12 -12 18 6 21 28 4 28 -9 0 -16 -7 -16 -16z"/>
<path d="M666 4213 c-11 -11 -6 -23 9 -23 8 0 15 4 15 9 0 13 -16 22 -24 14z"/>
<path d="M476 4192 c-3 -6 -1 -14 5 -17 15 -10 25 3 12 16 -7 7 -13 7 -17 1z"/>
<path d="M912 4179 c2 -6 8 -10 13 -10 5 0 11 4 13 10 2 6 -4 11 -13 11 -9 0
-15 -5 -13 -11z"/>
<path d="M1037 4184 c-8 -8 1 -24 14 -24 5 0 9 7 9 15 0 15 -12 20 -23 9z"/>
<path d="M770 4166 c0 -9 7 -16 16 -16 9 0 14 5 12 12 -6 18 -28 21 -28 4z"/>
<path d="M972 4169 c2 -6 8 -10 13 -10 5 0 11 4 13 10 2 6 -4 11 -13 11 -9 0
-15 -5 -13 -11z"/>
<path d="M847 4163 c-12 -11 -8 -23 8 -23 8 0 15 7 15 15 0 16 -12 20 -23 8z"/>
<path d="M242 4148 c6 -18 28 -21 28 -4 0 9 -7 16 -16 16 -9 0 -14 -5 -12 -12z"/>
<path d="M570 4135 c0 -9 5 -15 11 -13 6 2 11 8 11 13 0 5 -5 11 -11 13 -6 2
-11 -4 -11 -13z"/>
<path d="M637 4143 c-12 -11 -8 -23 8 -23 8 0 15 7 15 15 0 16 -12 20 -23 8z"/>
<path d="M1100 4135 c0 -8 7 -15 15 -15 8 0 15 7 15 15 0 8 -7 15 -15 15 -8 0
-15 -7 -15 -15z"/>
<path d="M710 4125 c0 -9 5 -15 11 -13 6 2 11 8 11 13 0 5 -5 11 -11 13 -6 2
-11 -4 -11 -13z"/>
<path d="M505 4119 c-10 -15 3 -25 16 -12 7 7 7 13 1 17 -6 3 -14 1 -17 -5z"/>
<path d="M872 4098 c6 -18 28 -21 28 -4 0 9 -7 16 -16 16 -9 0 -14 -5 -12 -12z"/>
<path d="M1036 4103 c-11 -11 -6 -23 9 -23 8 0 15 4 15 9 0 13 -16 22 -24 14z"/>
<path d="M782 4088 c6 -18 28 -21 28 -4 0 9 -7 16 -16 16 -9 0 -14 -5 -12 -12z"/>
<path d="M570 4071 c0 -5 7 -11 15 -15 9 -3 15 0 15 9 0 8 -7 15 -15 15 -8 0
-15 -4 -15 -9z"/>
<path d="M655 4070 c-4 -6 -3 -16 3 -22 6 -6 12 -6 17 2 4 6 3 16 -3 22 -6 6
-12 6 -17 -2z"/>
<path d="M362 4058 c6 -18 28 -21 28 -4 0 9 -7 16 -16 16 -9 0 -14 -5 -12 -12z"/>
<path d="M726 4063 c-11 -11 -6 -23 9 -23 8 0 15 4 15 9 0 13 -16 22 -24 14z"/>
<path d="M1092 4059 c2 -6 8 -10 13 -10 5 0 11 4 13 10 2 6 -4 11 -13 11 -9 0
-15 -5 -13 -11z"/>
<path d="M860 4046 c0 -9 7 -16 16 -16 9 0 14 5 12 12 -6 18 -28 21 -28 4z"/>
<path d="M505 4031 c-7 -12 12 -24 25 -16 11 7 4 25 -10 25 -5 0 -11 -4 -15
-9z"/>
<path d="M997 4034 c-8 -8 1 -24 14 -24 5 0 9 7 9 15 0 15 -12 20 -23 9z"/>
<path d="M262 4009 c2 -6 8 -10 13 -10 5 0 11 4 13 10 2 6 -4 11 -13 11 -9 0
-15 -5 -13 -11z"/>
<path d="M816 4013 c-11 -11 -6 -23 9 -23 8 0 15 4 15 9 0 13 -16 22 -24 14z"/>
<path d="M622 3999 c2 -6 8 -10 13 -10 5 0 11 4 13 10 2 6 -4 11 -13 11 -9 0
-15 -5 -13 -11z"/>
<path d="M1120 3994 c0 -9 5 -14 12 -12 18 6 21 28 4 28 -9 0 -16 -7 -16 -16z"/>
<path d="M742 3988 c6 -18 28 -21 28 -4 0 9 -7 16 -16 16 -9 0 -14 -5 -12 -12z"/>
<path d="M565 3981 c-7 -12 12 -24 25 -16 11 7 4 25 -10 25 -5 0 -11 -4 -15
-9z"/>
<path d="M1056 3983 c-11 -11 -6 -23 9 -23 8 0 15 4 15 9 0 13 -16 22 -24 14z"/>
<path d="M680 3965 c0 -8 7 -15 15 -15 8 0 15 7 15 15 0 8 -7 15 -15 15 -8 0
-15 -7 -15 -15z"/>
<path d="M860 3946 c0 -9 7 -16 16 -16 9 0 14 5 12 12 -6 18 -28 21 -28 4z"/>
<path d="M252 3938 c6 -18 28 -21 28 -4 0 9 -7 16 -16 16 -9 0 -14 -5 -12 -12z"/>
<path d="M382 3938 c6 -18 28 -21 28 -4 0 9 -7 16 -16 16 -9 0 -14 -5 -12 -12z"/>
<path d="M520 3936 c0 -9 7 -16 16 -16 17 0 14 22 -4 28 -7 2 -12 -3 -12 -12z"/>
<path d="M982 3938 c6 -18 28 -21 28 -4 0 9 -7 16 -16 16 -9 0 -14 -5 -12 -12z"/>
<path d="M627 3934 c-8 -8 1 -24 14 -24 5 0 9 7 9 15 0 15 -12 20 -23 9z"/>
<path d="M790 3931 c0 -17 18 -21 24 -6 3 9 0 15 -9 15 -8 0 -15 -4 -15 -9z"/>
<path d="M1116 3933 c-11 -11 -6 -23 9 -23 8 0 15 4 15 9 0 13 -16 22 -24 14z"/>
<path d="M697 3904 c-8 -8 1 -24 14 -24 5 0 9 7 9 15 0 15 -12 20 -23 9z"/>
<path d="M572 3888 c5 -15 28 -18 29 -3 0 6 -7 12 -17 13 -10 3 -15 -1 -12
-10z"/>
<path d="M512 3869 c2 -6 8 -10 13 -10 5 0 11 4 13 10 2 6 -4 11 -13 11 -9 0
-15 -5 -13 -11z"/>
<path d="M792 3869 c2 -6 8 -10 13 -10 5 0 11 4 13 10 2 6 -4 11 -13 11 -9 0
-15 -5 -13 -11z"/>
<path d="M850 3866 c0 -9 7 -16 16 -16 9 0 14 5 12 12 -6 18 -28 21 -28 4z"/>
<path d="M272 3861 c2 -7 7 -12 11 -12 12 1 9 15 -3 20 -7 2 -11 -2 -8 -8z"/>
<path d="M622 3834 c3 -17 21 -21 26 -6 1 5 -4 12 -13 16 -11 4 -15 1 -13 -10z"/>
<path d="M685 3830 c-4 -6 -3 -16 3 -22 6 -6 12 -6 17 2 4 6 3 16 -3 22 -6 6
-12 6 -17 -2z"/>
<path d="M742 3828 c6 -18 28 -21 28 -4 0 9 -7 16 -16 16 -9 0 -14 -5 -12 -12z"/>
<path d="M1085 3820 c-4 -7 -1 -16 6 -21 17 -10 26 8 11 23 -6 6 -12 6 -17 -2z"/>
<path d="M550 3805 c0 -8 7 -15 15 -15 8 0 15 7 15 15 0 8 -7 15 -15 15 -8 0
-15 -7 -15 -15z"/>
<path d="M875 3801 c-6 -11 9 -23 19 -14 9 9 7 23 -3 23 -6 0 -12 -4 -16 -9z"/>
<path d="M275 3790 c-3 -5 1 -10 9 -10 9 0 16 5 16 10 0 6 -4 10 -9 10 -6 0
-13 -4 -16 -10z"/>
<path d="M810 3785 c0 -9 5 -15 11 -13 6 2 11 8 11 13 0 5 -5 11 -11 13 -6 2
-11 -4 -11 -13z"/>
<path d="M412 3778 c6 -18 28 -21 28 -4 0 9 -7 16 -16 16 -9 0 -14 -5 -12 -12z"/>
<path d="M586 3763 c-11 -11 -6 -23 9 -23 8 0 15 4 15 9 0 13 -16 22 -24 14z"/>
<path d="M666 3763 c-11 -11 -6 -23 9 -23 8 0 15 4 15 9 0 13 -16 22 -24 14z"/>
<path d="M950 3756 c0 -9 7 -16 16 -16 9 0 14 5 12 12 -6 18 -28 21 -28 4z"/>
<path d="M740 3746 c0 -9 7 -16 16 -16 9 0 14 5 12 12 -6 18 -28 21 -28 4z"/>
<path d="M430 3705 c0 -9 5 -15 11 -13 6 2 11 8 11 13 0 5 -5 11 -11 13 -6 2
-11 -4 -11 -13z"/>
<path d="M802 3709 c2 -6 8 -10 13 -10 5 0 11 4 13 10 2 6 -4 11 -13 11 -9 0
-15 -5 -13 -11z"/>
<path d="M570 3695 c0 -8 7 -15 16 -15 14 0 14 3 4 15 -7 8 -14 15 -16 15 -2
0 -4 -7 -4 -15z"/>
<path d="M635 3701 c-7 -12 12 -24 25 -16 11 7 4 25 -10 25 -5 0 -11 -4 -15
-9z"/>
<path d="M702 3678 c6 -18 28 -21 28 -4 0 9 -7 16 -16 16 -9 0 -14 -5 -12 -12z"/>
<path d="M946 3673 c-11 -11 -6 -23 9 -23 8 0 15 4 15 9 0 13 -16 22 -24 14z"/>
<path d="M335 3660 c-4 -6 -3 -16 3 -22 6 -6 12 -6 17 2 4 6 3 16 -3 22 -6 6
-12 6 -17 -2z"/>
<path d="M832 3649 c2 -6 8 -10 13 -10 5 0 11 4 13 10 2 6 -4 11 -13 11 -9 0
-15 -5 -13 -11z"/>
<path d="M452 3639 c2 -6 8 -10 13 -10 5 0 11 4 13 10 2 6 -4 11 -13 11 -9 0
-15 -5 -13 -11z"/>
<path d="M630 3626 c0 -9 7 -16 16 -16 9 0 14 5 12 12 -6 18 -28 21 -28 4z"/>
<path d="M760 3626 c0 -9 7 -16 16 -16 9 0 14 5 12 12 -6 18 -28 21 -28 4z"/>
<path d="M690 3590 c0 -5 7 -10 16 -10 8 0 12 5 9 10 -3 6 -10 10 -16 10 -5 0
-9 -4 -9 -10z"/>
<path d="M330 3576 c0 -9 7 -16 16 -16 9 0 14 5 12 12 -6 18 -28 21 -28 4z"/>
<path d="M642 3548 c6 -18 28 -21 28 -4 0 9 -7 16 -16 16 -9 0 -14 -5 -12 -12z"/>
<path d="M745 3540 c-3 -6 1 -13 10 -16 19 -8 30 0 20 15 -8 14 -22 14 -30 1z"/>
<path d="M656 3483 c-11 -11 -6 -23 9 -23 8 0 15 4 15 9 0 13 -16 22 -24 14z"/>
<path d="M720 3471 c0 -6 5 -13 10 -16 6 -3 10 1 10 9 0 9 -4 16 -10 16 -5 0
-10 -4 -10 -9z"/>
<path d="M517 3444 c-8 -8 1 -24 14 -24 5 0 9 7 9 15 0 15 -12 20 -23 9z"/>
<path d="M870 3426 c0 -9 7 -16 16 -16 9 0 14 5 12 12 -6 18 -28 21 -28 4z"/>
<path d="M370 3406 c0 -9 7 -16 16 -16 17 0 14 22 -4 28 -7 2 -12 -3 -12 -12z"/>
<path d="M410 3324 c0 -9 5 -14 12 -12 18 6 21 28 4 28 -9 0 -16 -7 -16 -16z"/>
<path d="M766 3313 c-11 -11 -6 -23 9 -23 8 0 15 4 15 9 0 13 -16 22 -24 14z"/>
<path d="M606 3265 c4 -9 11 -14 16 -13 15 5 11 23 -6 26 -11 2 -14 -2 -10
-13z"/>
<path d="M705 3261 c-7 -12 12 -24 25 -16 11 7 4 25 -10 25 -5 0 -11 -4 -15
-9z"/>
<path d="M660 3225 c0 -8 7 -15 15 -15 8 0 15 7 15 15 0 8 -7 15 -15 15 -8 0
-15 -7 -15 -15z"/>
<path d="M452 3188 c6 -18 28 -21 28 -4 0 9 -7 16 -16 16 -9 0 -14 -5 -12 -12z"/>
<path d="M702 3168 c6 -18 28 -21 28 -4 0 9 -7 16 -16 16 -9 0 -14 -5 -12 -12z"/>
<path d="M500 3116 c0 -9 7 -16 16 -16 9 0 14 5 12 12 -6 18 -28 21 -28 4z"/>
<path d="M515 3050 c-4 -6 -3 -16 3 -22 6 -6 12 -6 17 2 4 6 3 16 -3 22 -6 6
-12 6 -17 -2z"/>
<path d="M602 2988 c6 -18 28 -21 28 -4 0 9 -7 16 -16 16 -9 0 -14 -5 -12 -12z"/>
<path d="M537 2983 c-12 -11 -8 -23 8 -23 8 0 15 7 15 15 0 16 -12 20 -23 8z"/>
<path d="M712 2958 c6 -18 28 -21 28 -4 0 9 -7 16 -16 16 -9 0 -14 -5 -12 -12z"/>
<path d="M650 2936 c0 -9 7 -16 16 -16 9 0 14 5 12 12 -6 18 -28 21 -28 4z"/>
<path d="M580 2915 c0 -9 5 -15 11 -13 6 2 11 8 11 13 0 5 -5 11 -11 13 -6 2
-11 -4 -11 -13z"/>
<path d="M646 2863 c-11 -11 -6 -23 9 -23 8 0 15 4 15 9 0 13 -16 22 -24 14z"/>
<path d="M2590 4730 c0 -5 4 -10 9 -10 6 0 13 5 16 10 3 6 -1 10 -9 10 -9 0
-16 -4 -16 -10z"/>
<path d="M2532 4678 c6 -18 28 -21 28 -4 0 9 -7 16 -16 16 -9 0 -14 -5 -12
-12z"/>
<path d="M2522 4598 c6 -18 28 -21 28 -4 0 9 -7 16 -16 16 -9 0 -14 -5 -12
-12z"/>
<path d="M2452 4566 c1 -10 8 -17 13 -17 15 1 12 24 -3 29 -9 3 -13 -2 -10
-12z"/>
<path d="M2355 4510 c-4 -6 -3 -16 3 -22 6 -6 12 -6 17 2 4 6 3 16 -3 22 -6 6
-12 6 -17 -2z"/>
<path d="M2280 4475 c0 -8 7 -15 15 -15 8 0 15 7 15 15 0 8 -7 15 -15 15 -8 0
-15 -7 -15 -15z"/>
<path d="M2205 4391 c-7 -12 12 -24 25 -16 11 7 4 25 -10 25 -5 0 -11 -4 -15
-9z"/>
<path d="M2162 4298 c6 -18 28 -21 28 -4 0 9 -7 16 -16 16 -9 0 -14 -5 -12
-12z"/>
<path d="M2092 4269 c2 -7 10 -15 17 -17 8 -3 12 1 9 9 -2 7 -10 15 -17 17 -8
3 -12 -1 -9 -9z"/>
<path d="M2045 4230 c-4 -7 -1 -16 6 -21 17 -10 26 8 11 23 -6 6 -12 6 -17 -2z"/>
<path d="M1962 4196 c1 -10 8 -17 13 -17 15 1 12 24 -3 29 -9 3 -13 -2 -10
-12z"/>
<path d="M1985 4130 c-8 -13 4 -32 16 -25 12 8 12 35 0 35 -6 0 -13 -4 -16
-10z"/>
<path d="M1916 4123 c-11 -11 -6 -23 9 -23 8 0 15 4 15 9 0 13 -16 22 -24 14z"/>
<path d="M1842 4068 c6 -18 28 -21 28 -4 0 9 -7 16 -16 16 -9 0 -14 -5 -12
-12z"/>
<path d="M1806 4011 c-3 -5 1 -14 8 -20 16 -13 32 2 21 19 -8 12 -22 13 -29 1z"/>
<path d="M1735 3960 c-7 -12 2 -30 16 -30 12 0 12 27 0 35 -5 3 -12 1 -16 -5z"/>
<path d="M1675 3920 c-3 -5 1 -10 9 -10 9 0 16 5 16 10 0 6 -4 10 -9 10 -6 0
-13 -4 -16 -10z"/>
<path d="M1750 3864 c0 -17 22 -14 28 4 2 7 -3 12 -12 12 -9 0 -16 -7 -16 -16z"/>
<path d="M1595 3851 c-7 -12 12 -24 25 -16 11 7 4 25 -10 25 -5 0 -11 -4 -15
-9z"/>
<path d="M1662 3839 c2 -6 8 -10 13 -10 5 0 11 4 13 10 2 6 -4 11 -13 11 -9 0
-15 -5 -13 -11z"/>
<path d="M1545 3810 c-3 -6 1 -13 10 -16 19 -8 30 0 20 15 -8 14 -22 14 -30 1z"/>
<path d="M1616 3755 c4 -9 11 -14 16 -13 15 5 11 23 -6 26 -11 2 -14 -2 -10
-13z"/>
<path d="M1465 3731 c-7 -12 12 -24 25 -16 11 7 4 25 -10 25 -5 0 -11 -4 -15
-9z"/>
<path d="M1545 3721 c-7 -12 12 -24 25 -16 11 7 4 25 -10 25 -5 0 -11 -4 -15
-9z"/>
<path d="M1372 3671 c4 -13 18 -16 19 -4 0 4 -5 9 -11 12 -7 2 -11 -2 -8 -8z"/>
<path d="M1442 3668 c6 -18 28 -21 28 -4 0 9 -7 16 -16 16 -9 0 -14 -5 -12
-12z"/>
<path d="M1510 3645 c0 -8 7 -15 15 -15 8 0 15 7 15 15 0 8 -7 15 -15 15 -8 0
-15 -7 -15 -15z"/>
<path d="M1322 3628 c6 -18 28 -21 28 -4 0 9 -7 16 -16 16 -9 0 -14 -5 -12
-12z"/>
<path d="M1250 3610 c0 -5 7 -10 15 -10 8 0 15 5 15 10 0 6 -7 10 -15 10 -8 0
-15 -4 -15 -10z"/>
<path d="M1435 3600 c-3 -6 1 -13 10 -16 19 -8 30 0 20 15 -8 14 -22 14 -30 1z"/>
<path d="M1370 3564 c0 -9 5 -14 12 -12 18 6 21 28 4 28 -9 0 -16 -7 -16 -16z"/>
<path d="M1295 3560 c-3 -6 1 -13 10 -16 19 -8 30 0 20 15 -8 14 -22 14 -30 1z"/>
<path d="M1502 3559 c2 -7 10 -15 17 -17 8 -3 12 1 9 9 -2 7 -10 15 -17 17 -8
3 -12 -1 -9 -9z"/>
<path d="M1205 3530 c-4 -6 -3 -16 3 -22 6 -6 12 -6 17 2 4 6 3 16 -3 22 -6 6
-12 6 -17 -2z"/>
<path d="M1450 3515 c0 -8 7 -15 15 -15 8 0 15 7 15 15 0 8 -7 15 -15 15 -8 0
-15 -7 -15 -15z"/>
<path d="M1300 3496 c0 -9 7 -16 16 -16 9 0 14 5 12 12 -6 18 -28 21 -28 4z"/>
<path d="M1362 3488 c5 -15 28 -18 29 -3 0 6 -7 12 -17 13 -10 3 -15 -1 -12
-10z"/>
<path d="M1122 3458 c6 -18 28 -21 28 -4 0 9 -7 16 -16 16 -9 0 -14 -5 -12
-12z"/>
<path d="M1255 3460 c-7 -12 2 -30 16 -30 12 0 12 27 0 35 -5 3 -12 1 -16 -5z"/>
<path d="M1190 3446 c0 -9 7 -16 16 -16 9 0 14 5 12 12 -6 18 -28 21 -28 4z"/>
<path d="M1050 3435 c0 -8 7 -15 15 -15 8 0 15 7 15 15 0 8 -7 15 -15 15 -8 0
-15 -7 -15 -15z"/>
<path d="M1390 3415 c0 -8 7 -15 15 -15 8 0 15 7 15 15 0 8 -7 15 -15 15 -8 0
-15 -7 -15 -15z"/>
<path d="M1322 3408 c6 -18 28 -21 28 -4 0 9 -7 16 -16 16 -9 0 -14 -5 -12
-12z"/>
<path d="M1090 3376 c0 -9 7 -16 16 -16 9 0 14 5 12 12 -6 18 -28 21 -28 4z"/>
<path d="M1170 3375 c0 -8 7 -15 15 -15 8 0 15 7 15 15 0 8 -7 15 -15 15 -8 0
-15 -7 -15 -15z"/>
<path d="M1250 3366 c0 -9 7 -16 16 -16 17 0 14 22 -4 28 -7 2 -12 -3 -12 -12z"/>
<path d="M1320 3325 c0 -8 5 -15 10 -15 6 0 10 7 10 15 0 8 -4 15 -10 15 -5 0
-10 -7 -10 -15z"/>
<path d="M1072 3319 c2 -7 10 -15 17 -17 8 -3 12 1 9 9 -2 7 -10 15 -17 17 -8
3 -12 -1 -9 -9z"/>
<path d="M1145 3321 c-7 -12 12 -24 25 -16 11 7 4 25 -10 25 -5 0 -11 -4 -15
-9z"/>
<path d="M1210 3295 c0 -8 7 -15 15 -15 8 0 15 7 15 15 0 8 -7 15 -15 15 -8 0
-15 -7 -15 -15z"/>
<path d="M1022 3278 c6 -18 28 -21 28 -4 0 9 -7 16 -16 16 -9 0 -14 -5 -12
-12z"/>
<path d="M1140 3246 c0 -9 7 -16 16 -16 9 0 14 5 12 12 -6 18 -28 21 -28 4z"/>
<path d="M1272 3238 c5 -15 28 -18 29 -3 0 6 -7 12 -17 13 -10 3 -15 -1 -12
-10z"/>
<path d="M1070 3215 c0 -8 7 -15 15 -15 8 0 15 7 15 15 0 8 -7 15 -15 15 -8 0
-15 -7 -15 -15z"/>
<path d="M1000 3206 c0 -9 7 -16 16 -16 9 0 14 5 12 12 -6 18 -28 21 -28 4z"/>
<path d="M1202 3208 c5 -15 28 -18 29 -3 0 6 -7 12 -17 13 -10 3 -15 -1 -12
-10z"/>
<path d="M1160 3170 c-12 -7 -12 -12 -2 -22 14 -14 35 1 24 19 -5 8 -13 9 -22
3z"/>
<path d="M1005 3150 c-7 -12 2 -30 16 -30 12 0 12 27 0 35 -5 3 -12 1 -16 -5z"/>
<path d="M1070 3136 c0 -9 7 -16 16 -16 9 0 14 5 12 12 -6 18 -28 21 -28 4z"/>
<path d="M952 3098 c5 -15 28 -18 29 -3 0 6 -7 12 -17 13 -10 3 -15 -1 -12
-10z"/>
<path d="M1167 3094 c-8 -8 1 -24 14 -24 5 0 9 7 9 15 0 15 -12 20 -23 9z"/>
<path d="M1096 3072 c-3 -6 -1 -14 5 -17 15 -10 25 3 12 16 -7 7 -13 7 -17 1z"/>
<path d="M1025 3061 c-7 -12 12 -24 25 -16 11 7 4 25 -10 25 -5 0 -11 -4 -15
-9z"/>
<path d="M877 3034 c-8 -8 1 -24 14 -24 5 0 9 7 9 15 0 15 -12 20 -23 9z"/>
<path d="M955 3020 c-7 -12 2 -30 16 -30 12 0 12 27 0 35 -5 3 -12 1 -16 -5z"/>
<path d="M1020 2976 c0 -9 7 -16 16 -16 9 0 14 5 12 12 -6 18 -28 21 -28 4z"/>
<path d="M1106 2983 c-11 -11 -6 -23 9 -23 8 0 15 4 15 9 0 13 -16 22 -24 14z"/>
<path d="M850 2966 c0 -9 7 -16 16 -16 9 0 14 5 12 12 -6 18 -28 21 -28 4z"/>
<path d="M922 2946 c1 -10 8 -17 13 -17 15 1 12 24 -3 29 -9 3 -13 -2 -10 -12z"/>
<path d="M1046 2921 c-3 -5 1 -14 8 -20 16 -13 32 2 21 19 -8 12 -22 13 -29 1z"/>
<path d="M845 2900 c-7 -12 2 -30 16 -30 12 0 12 27 0 35 -5 3 -12 1 -16 -5z"/>
<path d="M980 2886 c0 -9 7 -16 16 -16 9 0 14 5 12 12 -6 18 -28 21 -28 4z"/>
<path d="M910 2856 c0 -9 7 -16 16 -16 9 0 14 5 12 12 -6 18 -28 21 -28 4z"/>
<path d="M860 2805 c0 -8 7 -15 15 -15 8 0 15 7 15 15 0 8 -7 15 -15 15 -8 0
-15 -7 -15 -15z"/>
<path d="M775 2790 c-7 -12 2 -30 16 -30 12 0 12 27 0 35 -5 3 -12 1 -16 -5z"/>
<path d="M980 2380 c0 -5 7 -10 15 -10 8 0 15 5 15 10 0 6 -7 10 -15 10 -8 0
-15 -4 -15 -10z"/>
<path d="M1100 2355 c0 -9 5 -15 11 -13 6 2 11 8 11 13 0 5 -5 11 -11 13 -6 2
-11 -4 -11 -13z"/>
<path d="M1165 2360 c4 -6 11 -8 16 -5 14 9 11 15 -7 15 -8 0 -12 -5 -9 -10z"/>
<path d="M1236 2343 c-11 -11 -6 -23 9 -23 8 0 15 4 15 9 0 13 -16 22 -24 14z"/>
<path d="M1030 2305 c0 -9 6 -12 15 -9 8 4 15 10 15 15 0 5 -7 9 -15 9 -8 0
-15 -7 -15 -15z"/>
<path d="M1090 2280 c0 -5 4 -10 9 -10 6 0 13 5 16 10 3 6 -1 10 -9 10 -9 0
-16 -4 -16 -10z"/>
<path d="M3515 4407 c-8 -20 -15 -41 -15 -46 0 -5 -16 -63 -36 -128 -96 -317
-257 -622 -502 -948 -181 -239 -524 -609 -738 -795 -216 -188 -550 -411 -569
-380 -10 16 -25 12 -25 -7 -1 -20 -153 -100 -182 -96 -10 2 -18 -4 -18 -11 0
-8 8 -15 18 -16 52 -2 95 2 118 10 35 14 44 13 44 -5 0 -8 7 -15 15 -15 18 0
19 12 4 27 -14 14 43 37 75 29 18 -4 25 -1 29 14 3 14 14 20 31 20 15 0 26 6
26 13 0 7 19 24 43 37 92 52 317 209 436 304 138 110 483 449 602 591 104 124
272 350 349 470 145 224 273 518 316 725 32 154 17 298 -21 207z"/>
<path d="M1557 2263 c-12 -11 -8 -23 8 -23 8 0 15 7 15 15 0 16 -12 20 -23 8z"/>
<path d="M1497 2233 c-12 -11 -8 -23 8 -23 8 0 15 7 15 15 0 16 -12 20 -23 8z"/>
<path d="M1610 2226 c0 -9 7 -16 16 -16 17 0 14 22 -4 28 -7 2 -12 -3 -12 -12z"/>
<path d="M1422 2208 c6 -18 28 -21 28 -4 0 9 -7 16 -16 16 -9 0 -14 -5 -12
-12z"/>
<path d="M1562 2179 c2 -6 8 -10 13 -10 5 0 11 4 13 10 2 6 -4 11 -13 11 -9 0
-15 -5 -13 -11z"/>
<path d="M1660 2175 c0 -8 5 -15 10 -15 6 0 10 7 10 15 0 8 -4 15 -10 15 -5 0
-10 -7 -10 -15z"/>
<path d="M1335 2171 c-6 -11 9 -23 19 -14 9 9 7 23 -3 23 -6 0 -12 -4 -16 -9z"/>
<path d="M1422 2149 c2 -6 8 -10 13 -10 5 0 11 4 13 10 2 6 -4 11 -13 11 -9 0
-15 -5 -13 -11z"/>
<path d="M1482 2149 c2 -6 8 -10 13 -10 5 0 11 4 13 10 2 6 -4 11 -13 11 -9 0
-15 -5 -13 -11z"/>
<path d="M1576 2121 c-4 -7 -5 -15 -2 -18 9 -9 19 4 14 18 -4 11 -6 11 -12 0z"/>
<path d="M1380 2105 c0 -8 5 -15 10 -15 6 0 10 7 10 15 0 8 -4 15 -10 15 -5 0
-10 -7 -10 -15z"/>
<path d="M1505 2089 c-10 -15 3 -25 16 -12 7 7 7 13 1 17 -6 3 -14 1 -17 -5z"/>
<path d="M1440 2070 c0 -5 5 -10 10 -10 6 0 10 5 10 10 0 6 -4 10 -10 10 -5 0
-10 -4 -10 -10z"/>
<path d="M1840 2030 c0 -5 5 -10 11 -10 5 0 7 5 4 10 -3 6 -8 10 -11 10 -2 0
-4 -4 -4 -10z"/>
<path d="M1790 1995 c0 -9 5 -15 11 -13 6 2 11 8 11 13 0 5 -5 11 -11 13 -6 2
-11 -4 -11 -13z"/>
<path d="M1722 1978 c6 -18 28 -21 28 -4 0 9 -7 16 -16 16 -9 0 -14 -5 -12
-12z"/>
<path d="M1890 1970 c0 -5 7 -10 15 -10 8 0 15 5 15 10 0 6 -7 10 -15 10 -8 0
-15 -4 -15 -10z"/>
<path d="M1560 1955 c0 -9 5 -15 11 -13 6 2 11 8 11 13 0 5 -5 11 -11 13 -6 2
-11 -4 -11 -13z"/>
<path d="M1671 1961 c-10 -6 -10 -10 -1 -16 13 -8 24 -1 19 14 -3 6 -10 7 -18
2z"/>
<path d="M1830 1940 c0 -5 7 -10 15 -10 8 0 15 5 15 10 0 6 -7 10 -15 10 -8 0
-15 -4 -15 -10z"/>
<path d="M1766 1933 c-11 -11 -6 -23 9 -23 8 0 15 4 15 9 0 13 -16 22 -24 14z"/>
<path d="M1517 1924 c-8 -8 1 -24 14 -24 5 0 9 7 9 15 0 15 -12 20 -23 9z"/>
<path d="M1612 1909 c2 -6 8 -10 13 -10 5 0 11 4 13 10 2 6 -4 11 -13 11 -9 0
-15 -5 -13 -11z"/>
<path d="M1676 1893 c-11 -11 -6 -23 9 -23 8 0 15 4 15 9 0 13 -16 22 -24 14z"/>
<path d="M2202 4136 c1 -10 8 -17 13 -17 15 1 12 24 -3 29 -9 3 -13 -2 -10
-12z"/>
<path d="M2147 4073 c-12 -11 -8 -23 8 -23 8 0 15 7 15 15 0 16 -12 20 -23 8z"/>
<path d="M2115 4010 c-9 -15 3 -30 20 -24 7 3 11 12 8 20 -6 16 -19 18 -28 4z"/>
<path d="M2055 3990 c-3 -6 1 -13 10 -16 19 -8 30 0 20 15 -8 14 -22 14 -30 1z"/>
<path d="M2005 3880 c-8 -13 4 -32 16 -25 12 8 12 35 0 35 -6 0 -13 -4 -16
-10z"/>
<path d="M1970 3816 c0 -9 7 -16 16 -16 9 0 14 5 12 12 -6 18 -28 21 -28 4z"/>
<path d="M1905 3790 c-10 -17 12 -37 25 -24 8 8 6 15 -4 23 -10 9 -16 9 -21 1z"/>
<path d="M1852 3714 c3 -17 21 -21 26 -6 1 5 -4 12 -13 16 -11 4 -15 1 -13
-10z"/>
<path d="M1820 3645 c0 -8 7 -15 15 -15 8 0 15 7 15 15 0 8 -7 15 -15 15 -8 0
-15 -7 -15 -15z"/>
<path d="M1762 3629 c2 -6 8 -10 13 -10 5 0 11 4 13 10 2 6 -4 11 -13 11 -9 0
-15 -5 -13 -11z"/>
<path d="M1707 3524 c-9 -10 2 -24 19 -24 8 0 14 7 14 15 0 15 -21 21 -33 9z"/>
<path d="M1605 3430 c-3 -6 1 -13 10 -16 19 -8 30 0 20 15 -8 14 -22 14 -30 1z"/>
<path d="M1552 3358 c6 -18 28 -21 28 -4 0 9 -7 16 -16 16 -9 0 -14 -5 -12
-12z"/>
<path d="M3985 3858 c-93 -303 -193 -545 -289 -696 -14 -23 -26 -44 -26 -47 0
-9 -129 -203 -189 -285 -229 -313 -606 -686 -921 -912 -156 -111 -175 -121
-200 -108 -19 10 -21 9 -18 -11 2 -17 -6 -28 -30 -42 -31 -19 -34 -19 -46 -2
-10 14 -15 15 -21 5 -4 -7 -2 -16 6 -21 7 -4 11 -10 9 -12 -8 -8 -159 -83
-222 -111 -32 -13 -58 -28 -58 -31 0 -4 25 -5 55 -4 30 1 58 0 62 -4 11 -12
33 -8 33 6 0 6 17 17 38 24 20 6 45 15 55 18 12 5 17 2 17 -9 0 -9 7 -16 15
-16 18 0 20 17 3 23 -20 7 0 21 30 22 15 0 27 6 27 13 0 17 23 31 45 25 12 -3
19 3 23 17 5 19 10 21 37 15 28 -6 31 -5 26 12 -5 14 11 29 81 73 231 145 414
290 626 499 196 193 318 337 468 556 175 254 335 595 398 845 39 159 64 380
43 380 -5 0 -40 -100 -77 -222z"/>
<path d="M2170 1855 c0 -8 5 -15 10 -15 6 0 10 7 10 15 0 8 -4 15 -10 15 -5 0
-10 -7 -10 -15z"/>
<path d="M2037 1834 c-8 -8 1 -24 14 -24 5 0 9 7 9 15 0 15 -12 20 -23 9z"/>
<path d="M2276 1823 c-11 -11 -6 -23 9 -23 8 0 15 4 15 9 0 13 -16 22 -24 14z"/>
<path d="M2197 1814 c-8 -8 1 -24 14 -24 5 0 9 7 9 15 0 15 -12 20 -23 9z"/>
<path d="M2110 1785 c0 -8 5 -15 10 -15 6 0 10 7 10 15 0 8 -4 15 -10 15 -5 0
-10 -7 -10 -15z"/>
<path d="M1910 1765 c0 -9 5 -15 11 -13 6 2 11 8 11 13 0 5 -5 11 -11 13 -6 2
-11 -4 -11 -13z"/>
<path d="M1982 1759 c2 -6 8 -10 13 -10 5 0 11 4 13 10 2 6 -4 11 -13 11 -9 0
-15 -5 -13 -11z"/>
<path d="M2051 1761 c-10 -6 -10 -10 -1 -16 13 -8 24 -1 19 14 -3 6 -10 7 -18
2z"/>
<path d="M2180 1750 c0 -5 7 -10 16 -10 8 0 12 5 9 10 -3 6 -10 10 -16 10 -5
0 -9 -4 -9 -10z"/>
<path d="M1842 1719 c2 -6 8 -10 13 -10 5 0 11 4 13 10 2 6 -4 11 -13 11 -9 0
-15 -5 -13 -11z"/>
<path d="M2132 1709 c2 -6 8 -10 13 -10 5 0 11 4 13 10 2 6 -4 11 -13 11 -9 0
-15 -5 -13 -11z"/>
<path d="M1950 1694 c0 -9 5 -14 12 -12 18 6 21 28 4 28 -9 0 -16 -7 -16 -16z"/>
<path d="M2060 1690 c0 -5 7 -10 15 -10 8 0 15 5 15 10 0 6 -7 10 -15 10 -8 0
-15 -4 -15 -10z"/>
<path d="M2485 1690 c3 -5 11 -10 16 -10 6 0 7 5 4 10 -3 6 -11 10 -16 10 -6
0 -7 -4 -4 -10z"/>
<path d="M1900 1675 c0 -8 5 -15 10 -15 6 0 10 7 10 15 0 8 -4 15 -10 15 -5 0
-10 -7 -10 -15z"/>
<path d="M2007 1674 c-8 -8 1 -24 14 -24 5 0 9 7 9 15 0 15 -12 20 -23 9z"/>
<path d="M2410 1645 c0 -9 5 -15 11 -13 6 2 11 8 11 13 0 5 -5 11 -11 13 -6 2
-11 -4 -11 -13z"/>
<path d="M2476 1643 c-11 -11 -6 -23 9 -23 8 0 15 4 15 9 0 13 -16 22 -24 14z"/>
<path d="M1950 1625 c0 -9 5 -15 11 -13 6 2 11 8 11 13 0 5 -5 11 -11 13 -6 2
-11 -4 -11 -13z"/>
<path d="M2340 1604 c0 -17 22 -14 28 4 2 7 -3 12 -12 12 -9 0 -16 -7 -16 -16z"/>
<path d="M2162 1579 c2 -6 8 -10 13 -10 5 0 11 4 13 10 2 6 -4 11 -13 11 -9 0
-15 -5 -13 -11z"/>
<path d="M2247 1554 c-8 -8 1 -24 14 -24 5 0 9 7 9 15 0 15 -12 20 -23 9z"/>
<path d="M2057 1544 c-8 -8 1 -24 14 -24 5 0 9 7 9 15 0 15 -12 20 -23 9z"/>
<path d="M2305 1540 c-3 -5 1 -10 9 -10 9 0 16 5 16 10 0 6 -4 10 -9 10 -6 0
-13 -4 -16 -10z"/>
<path d="M2000 1525 c0 -8 5 -15 10 -15 6 0 10 7 10 15 0 8 -4 15 -10 15 -5 0
-10 -7 -10 -15z"/>
<path d="M2185 1519 c-10 -15 3 -25 16 -12 7 7 7 13 1 17 -6 3 -14 1 -17 -5z"/>
<path d="M2116 1505 c-3 -9 0 -15 9 -15 16 0 20 16 6 24 -5 3 -11 -1 -15 -9z"/>
<path d="M2582 1469 c2 -6 8 -10 13 -10 5 0 11 4 13 10 2 6 -4 11 -13 11 -9 0
-15 -5 -13 -11z"/>
<path d="M2647 1463 c-12 -11 -8 -23 8 -23 8 0 15 7 15 15 0 16 -12 20 -23 8z"/>
<path d="M2760 1435 c0 -9 5 -15 11 -13 6 2 11 8 11 13 0 5 -5 11 -11 13 -6 2
-11 -4 -11 -13z"/>
<path d="M2470 1425 c0 -9 5 -15 11 -13 6 2 11 8 11 13 0 5 -5 11 -11 13 -6 2
-11 -4 -11 -13z"/>
<path d="M2692 1409 c2 -6 8 -10 13 -10 5 0 11 4 13 10 2 6 -4 11 -13 11 -9 0
-15 -5 -13 -11z"/>
<path d="M2570 1400 c0 -5 7 -10 15 -10 8 0 15 5 15 10 0 6 -7 10 -15 10 -8 0
-15 -4 -15 -10z"/>
<path d="M2510 1370 c0 -5 7 -10 15 -10 8 0 15 5 15 10 0 6 -7 10 -15 10 -8 0
-15 -4 -15 -10z"/>
<path d="M2630 1370 c0 -5 5 -10 10 -10 6 0 10 5 10 10 0 6 -4 10 -10 10 -5 0
-10 -4 -10 -10z"/>
<path d="M2446 1363 c-11 -11 -6 -23 9 -23 8 0 15 4 15 9 0 13 -16 22 -24 14z"/>
<path d="M2580 1324 c0 -9 5 -14 12 -12 18 6 21 28 4 28 -9 0 -16 -7 -16 -16z"/>
<path d="M2356 1323 c-11 -11 -6 -23 9 -23 8 0 15 4 15 9 0 13 -16 22 -24 14z"/>
<path d="M2440 1295 c0 -9 5 -15 11 -13 6 2 11 8 11 13 0 5 -5 11 -11 13 -6 2
-11 -4 -11 -13z"/>
<path d="M2500 1296 c0 -9 7 -16 16 -16 17 0 14 22 -4 28 -7 2 -12 -3 -12 -12z"/>
<path d="M2397 1264 c-8 -8 1 -24 14 -24 5 0 9 7 9 15 0 15 -12 20 -23 9z"/>
<path d="M4761 3395 c-5 -22 -20 -87 -31 -145 -46 -224 -177 -555 -324 -813
-210 -371 -514 -716 -871 -988 -115 -88 -274 -187 -292 -183 -12 3 -21 -3 -28
-18 -6 -14 -20 -24 -37 -26 -16 -2 -28 -9 -28 -16 0 -15 -192 -117 -294 -156
-39 -15 -72 -32 -73 -37 -4 -11 74 -23 83 -13 3 2 35 15 72 27 60 19 68 20 79
6 15 -19 33 -9 26 16 -5 21 25 37 41 21 16 -16 26 -12 26 10 0 24 29 41 58 33
16 -4 22 -1 22 10 0 9 21 26 48 39 26 13 49 25 52 28 14 14 61 40 74 40 8 0
16 4 18 9 2 5 59 46 127 91 326 218 657 558 882 905 98 152 107 167 182 315
91 178 151 344 187 510 25 112 38 328 22 355 -9 17 -11 14 -21 -20z"/>
<path d="M3070 1360 c0 -5 7 -10 16 -10 8 0 12 5 9 10 -3 6 -10 10 -16 10 -5
0 -9 -4 -9 -10z"/>
<path d="M3030 1315 c0 -8 5 -15 10 -15 6 0 10 7 10 15 0 8 -4 15 -10 15 -5 0
-10 -7 -10 -15z"/>
<path d="M2970 1305 c0 -9 5 -15 11 -13 6 2 11 8 11 13 0 5 -5 11 -11 13 -6 2
-11 -4 -11 -13z"/>
<path d="M3155 1299 c-10 -15 3 -25 16 -12 7 7 7 13 1 17 -6 3 -14 1 -17 -5z"/>
<path d="M3091 1291 c-10 -6 -10 -10 -1 -16 13 -8 24 -1 19 14 -3 6 -10 7 -18
2z"/>
<path d="M2950 1245 c0 -9 5 -15 11 -13 6 2 11 8 11 13 0 5 -5 11 -11 13 -6 2
-11 -4 -11 -13z"/>
<path d="M2877 1243 c-12 -11 -8 -23 8 -23 8 0 15 7 15 15 0 16 -12 20 -23 8z"/>
<path d="M3020 1235 c0 -9 5 -15 11 -13 6 2 11 8 11 13 0 5 -5 11 -11 13 -6 2
-11 -4 -11 -13z"/>
<path d="M3080 1204 c0 -8 5 -12 10 -9 6 3 10 10 10 16 0 5 -4 9 -10 9 -5 0
-10 -7 -10 -16z"/>
<path d="M2726 1192 c-3 -6 -1 -14 5 -17 15 -10 25 3 12 16 -7 7 -13 7 -17 1z"/>
<path d="M2860 1186 c0 -9 5 -16 10 -16 6 0 10 4 10 9 0 6 -4 13 -10 16 -5 3
-10 -1 -10 -9z"/>
<path d="M2925 1189 c-10 -15 3 -25 16 -12 7 7 7 13 1 17 -6 3 -14 1 -17 -5z"/>
<path d="M3372 1188 c6 -18 28 -21 28 -4 0 9 -7 16 -16 16 -9 0 -14 -5 -12
-12z"/>
<path d="M2980 1170 c0 -5 7 -10 15 -10 8 0 15 5 15 10 0 6 -7 10 -15 10 -8 0
-15 -4 -15 -10z"/>
<path d="M3315 1160 c-3 -5 1 -10 9 -10 9 0 16 5 16 10 0 6 -4 10 -9 10 -6 0
-13 -4 -16 -10z"/>
<path d="M3480 1151 c0 -5 5 -13 10 -16 6 -3 10 -2 10 4 0 5 -4 13 -10 16 -5
3 -10 2 -10 -4z"/>
<path d="M2810 1141 c0 -6 5 -13 10 -16 6 -3 10 1 10 9 0 9 -4 16 -10 16 -5 0
-10 -4 -10 -9z"/>
<path d="M3416 1143 c-11 -11 -6 -23 9 -23 8 0 15 4 15 9 0 13 -16 22 -24 14z"/>
<path d="M2630 1125 c0 -9 5 -15 11 -13 6 2 11 8 11 13 0 5 -5 11 -11 13 -6 2
-11 -4 -11 -13z"/>
<path d="M2746 1133 c-11 -11 -6 -23 9 -23 8 0 15 4 15 9 0 13 -16 22 -24 14z"/>
<path d="M2910 1114 c0 -9 5 -14 12 -12 18 6 21 28 4 28 -9 0 -16 -7 -16 -16z"/>
<path d="M3262 1121 c2 -7 7 -12 11 -12 12 1 9 15 -3 20 -7 2 -11 -2 -8 -8z"/>
<path d="M2577 1114 c-8 -8 1 -24 14 -24 5 0 9 7 9 15 0 15 -12 20 -23 9z"/>
<path d="M2682 1099 c2 -6 8 -10 13 -10 5 0 11 4 13 10 2 6 -4 11 -13 11 -9 0
-15 -5 -13 -11z"/>
<path d="M3327 1103 c-12 -11 -8 -23 8 -23 8 0 15 7 15 15 0 16 -12 20 -23 8z"/>
<path d="M2850 1085 c0 -9 5 -15 11 -13 6 2 11 8 11 13 0 5 -5 11 -11 13 -6 2
-11 -4 -11 -13z"/>
<path d="M3216 1093 c-11 -11 -6 -23 9 -23 8 0 15 4 15 9 0 13 -16 22 -24 14z"/>
<path d="M2782 1069 c2 -6 8 -10 13 -10 5 0 11 4 13 10 2 6 -4 11 -13 11 -9 0
-15 -5 -13 -11z"/>
<path d="M3156 1073 c-11 -11 -6 -23 9 -23 8 0 15 4 15 9 0 13 -16 22 -24 14z"/>
<path d="M2630 1055 c0 -8 5 -15 10 -15 6 0 10 7 10 15 0 8 -4 15 -10 15 -5 0
-10 -7 -10 -15z"/>
<path d="M2692 1029 c2 -6 8 -10 13 -10 5 0 11 4 13 10 2 6 -4 11 -13 11 -9 0
-15 -5 -13 -11z"/>
<path d="M3252 1029 c2 -6 8 -10 13 -10 5 0 11 4 13 10 2 6 -4 11 -13 11 -9 0
-15 -5 -13 -11z"/>
<path d="M3315 1029 c-10 -15 3 -25 16 -12 7 7 7 13 1 17 -6 3 -14 1 -17 -5z"/>
<path d="M3117 1014 c-8 -8 1 -24 14 -24 5 0 9 7 9 15 0 15 -12 20 -23 9z"/>
<path d="M3187 1013 c-12 -11 -8 -23 8 -23 8 0 15 7 15 15 0 16 -12 20 -23 8z"/>
<path d="M2927 983 c-12 -11 -8 -23 8 -23 8 0 15 7 15 15 0 16 -12 20 -23 8z"/>
<path d="M2993 983 c-18 -7 -16 -23 2 -23 8 0 15 7 15 15 0 8 -1 15 -2 14 -2
0 -9 -3 -15 -6z"/>
<path d="M3055 970 c-3 -5 1 -10 9 -10 9 0 16 5 16 10 0 6 -4 10 -9 10 -6 0
-13 -4 -16 -10z"/>
<path d="M2860 945 c0 -8 5 -15 10 -15 6 0 10 7 10 15 0 8 -4 15 -10 15 -5 0
-10 -7 -10 -15z"/>
<path d="M3127 943 c-12 -11 -8 -23 8 -23 8 0 15 7 15 15 0 16 -12 20 -23 8z"/>
<path d="M2930 911 c0 -6 5 -13 10 -16 6 -3 10 1 10 9 0 9 -4 16 -10 16 -5 0
-10 -4 -10 -9z"/>
<path d="M3005 909 c-10 -15 3 -25 16 -12 7 7 7 13 1 17 -6 3 -14 1 -17 -5z"/>
<path d="M3062 899 c2 -6 8 -10 13 -10 5 0 11 4 13 10 2 6 -4 11 -13 11 -9 0
-15 -5 -13 -11z"/>
<path d="M5211 2828 c-36 -167 -64 -257 -117 -376 -19 -42 -47 -104 -62 -137
-102 -232 -235 -464 -365 -640 -158 -212 -416 -473 -622 -628 -134 -101 -339
-227 -367 -227 -10 0 -18 -4 -18 -10 0 -14 -148 -80 -181 -80 -15 0 -29 -5
-31 -11 -7 -20 -80 -40 -96 -26 -11 9 -17 7 -28 -8 -8 -11 -33 -26 -57 -35
-23 -9 -42 -22 -42 -30 0 -20 122 -21 147 -1 15 12 18 11 24 -3 9 -24 38 -21
31 4 -5 20 6 25 41 21 8 -1 19 4 25 12 19 23 57 32 57 13 0 -9 7 -16 16 -16
10 0 14 7 12 21 -2 17 8 25 57 45 33 13 65 22 73 19 7 -2 15 2 19 11 9 23 60
45 89 38 21 -5 25 -3 22 11 -2 12 23 33 92 74 240 146 503 379 706 626 285
346 502 766 590 1145 26 112 44 340 27 340 -5 0 -24 -69 -42 -152z"/>
<path d="M3630 964 c0 -9 5 -14 12 -12 18 6 21 28 4 28 -9 0 -16 -7 -16 -16z"/>
<path d="M3690 960 c0 -5 7 -10 16 -10 8 0 12 5 9 10 -3 6 -10 10 -16 10 -5 0
-9 -4 -9 -10z"/>
<path d="M3600 905 c0 -9 5 -15 11 -13 6 2 11 8 11 13 0 5 -5 11 -11 13 -6 2
-11 -4 -11 -13z"/>
<path d="M3716 913 c-11 -11 -6 -23 9 -23 8 0 15 4 15 9 0 13 -16 22 -24 14z"/>
<path d="M3547 894 c-8 -8 1 -24 14 -24 5 0 9 7 9 15 0 15 -12 20 -23 9z"/>
<path d="M3657 884 c-8 -8 1 -24 14 -24 5 0 9 7 9 15 0 15 -12 20 -23 9z"/>
<path d="M3440 865 c0 -9 5 -15 11 -13 6 2 11 8 11 13 0 5 -5 11 -11 13 -6 2
-11 -4 -11 -13z"/>
<path d="M3372 839 c2 -6 8 -10 13 -10 5 0 11 4 13 10 2 6 -4 11 -13 11 -9 0
-15 -5 -13 -11z"/>
<path d="M3500 840 c0 -5 7 -10 15 -10 8 0 15 5 15 10 0 6 -7 10 -15 10 -8 0
-15 -4 -15 -10z"/>
<path d="M3600 835 c0 -8 5 -15 10 -15 6 0 10 7 10 15 0 8 -4 15 -10 15 -5 0
-10 -7 -10 -15z"/>
<path d="M3890 820 c0 -6 7 -10 15 -10 8 0 15 2 15 4 0 2 -7 6 -15 10 -8 3
-15 1 -15 -4z"/>
<path d="M3310 806 c0 -9 5 -16 10 -16 6 0 10 4 10 9 0 6 -4 13 -10 16 -5 3
-10 -1 -10 -9z"/>
<path d="M3426 802 c-3 -6 -1 -14 5 -17 15 -10 25 3 12 16 -7 7 -13 7 -17 1z"/>
<path d="M3552 799 c2 -6 8 -10 13 -10 5 0 11 4 13 10 2 6 -4 11 -13 11 -9 0
-15 -5 -13 -11z"/>
<path d="M3492 779 c2 -6 8 -10 13 -10 5 0 11 4 13 10 2 6 -4 11 -13 11 -9 0
-15 -5 -13 -11z"/>
<path d="M3260 755 c0 -9 5 -15 11 -13 6 2 11 8 11 13 0 5 -5 11 -11 13 -6 2
-11 -4 -11 -13z"/>
<path d="M3360 755 c0 -8 5 -15 10 -15 6 0 10 7 10 15 0 8 -4 15 -10 15 -5 0
-10 -7 -10 -15z"/>
<path d="M3900 756 c0 -9 5 -16 10 -16 6 0 10 4 10 9 0 6 -4 13 -10 16 -5 3
-10 -1 -10 -9z"/>
<path d="M3960 756 c0 -9 5 -16 10 -16 6 0 10 4 10 9 0 6 -4 13 -10 16 -5 3
-10 -1 -10 -9z"/>
<path d="M4025 751 c-6 -11 9 -23 19 -14 9 9 7 23 -3 23 -6 0 -12 -4 -16 -9z"/>
<path d="M4186 743 c-11 -11 -6 -23 9 -23 8 0 15 4 15 9 0 13 -16 22 -24 14z"/>
<path d="M3120 725 c0 -9 5 -15 11 -13 6 2 11 8 11 13 0 5 -5 11 -11 13 -6 2
-11 -4 -11 -13z"/>
<path d="M3180 725 c0 -9 5 -15 11 -13 6 2 11 8 11 13 0 5 -5 11 -11 13 -6 2
-11 -4 -11 -13z"/>
<path d="M3830 725 c0 -9 5 -15 11 -13 6 2 11 8 11 13 0 5 -5 11 -11 13 -6 2
-11 -4 -11 -13z"/>
<path d="M4258 728 c9 -9 15 -9 24 0 9 9 7 12 -12 12 -19 0 -21 -3 -12 -12z"/>
<path d="M4330 730 c0 -5 5 -10 10 -10 6 0 10 5 10 10 0 6 -4 10 -10 10 -5 0
-10 -4 -10 -10z"/>
<path d="M4097 724 c-8 -8 1 -24 14 -24 5 0 9 7 9 15 0 15 -12 20 -23 9z"/>
<path d="M3760 710 c0 -5 7 -10 15 -10 8 0 15 5 15 10 0 6 -7 10 -15 10 -8 0
-15 -4 -15 -10z"/>
<path d="M3076 693 c-11 -11 -6 -23 9 -23 8 0 15 4 15 9 0 13 -16 22 -24 14z"/>
<path d="M3265 690 c-3 -5 1 -10 9 -10 9 0 16 5 16 10 0 6 -4 10 -9 10 -6 0
-13 -4 -16 -10z"/>
<path d="M3900 685 c0 -9 5 -15 11 -13 6 2 11 8 11 13 0 5 -5 11 -11 13 -6 2
-11 -4 -11 -13z"/>
<path d="M3970 686 c0 -9 7 -16 16 -16 17 0 14 22 -4 28 -7 2 -12 -3 -12 -12z"/>
<path d="M3630 675 c0 -8 5 -15 10 -15 6 0 10 7 10 15 0 8 -4 15 -10 15 -5 0
-10 -7 -10 -15z"/>
<path d="M4037 684 c-8 -8 1 -24 14 -24 5 0 9 7 9 15 0 15 -12 20 -23 9z"/>
<path d="M4170 676 c0 -9 5 -16 10 -16 6 0 10 4 10 9 0 6 -4 13 -10 16 -5 3
-10 -1 -10 -9z"/>
<path d="M4232 679 c2 -6 8 -10 13 -10 5 0 11 4 13 10 2 6 -4 11 -13 11 -9 0
-15 -5 -13 -11z"/>
<path d="M3700 665 c0 -8 5 -15 10 -15 6 0 10 7 10 15 0 8 -4 15 -10 15 -5 0
-10 -7 -10 -15z"/>
<path d="M3200 660 c0 -5 5 -10 10 -10 6 0 10 5 10 10 0 6 -4 10 -10 10 -5 0
-10 -4 -10 -10z"/>
<path d="M3132 649 c2 -6 8 -10 13 -10 5 0 11 4 13 10 2 6 -4 11 -13 11 -9 0
-15 -5 -13 -11z"/>
<path d="M3755 641 c-6 -11 9 -23 19 -14 9 9 7 23 -3 23 -6 0 -12 -4 -16 -9z"/>
<path d="M3830 640 c0 -5 7 -10 15 -10 8 0 15 5 15 10 0 6 -7 10 -15 10 -8 0
-15 -4 -15 -10z"/>
<path d="M4120 635 c0 -9 5 -15 11 -13 6 2 11 8 11 13 0 5 -5 11 -11 13 -6 2
-11 -4 -11 -13z"/>
<path d="M3945 629 c-10 -15 3 -25 16 -12 7 7 7 13 1 17 -6 3 -14 1 -17 -5z"/>
<path d="M3536 615 c-3 -9 0 -15 9 -15 16 0 20 16 6 24 -5 3 -11 -1 -15 -9z"/>
<path d="M3600 615 c0 -8 5 -15 10 -15 6 0 10 7 10 15 0 8 -4 15 -10 15 -5 0
-10 -7 -10 -15z"/>
<path d="M4050 614 c0 -17 22 -14 28 4 2 7 -3 12 -12 12 -9 0 -16 -7 -16 -16z"/>
<path d="M3660 600 c0 -5 7 -10 15 -10 8 0 15 5 15 10 0 6 -7 10 -15 10 -8 0
-15 -4 -15 -10z"/>
<path d="M3885 600 c3 -5 10 -10 16 -10 5 0 9 5 9 10 0 6 -7 10 -16 10 -8 0
-12 -4 -9 -10z"/>
<path d="M3996 603 c-11 -11 -6 -23 9 -23 8 0 15 4 15 9 0 13 -16 22 -24 14z"/>
<path d="M3780 586 c0 -9 5 -16 10 -16 6 0 10 4 10 9 0 6 -4 13 -10 16 -5 3
-10 -1 -10 -9z"/>
<path d="M3490 571 c0 -6 5 -13 10 -16 6 -3 10 1 10 9 0 9 -4 16 -10 16 -5 0
-10 -4 -10 -9z"/>
<path d="M3310 555 c0 -9 5 -15 11 -13 6 2 11 8 11 13 0 5 -5 11 -11 13 -6 2
-11 -4 -11 -13z"/>
<path d="M3426 563 c-11 -11 -6 -23 9 -23 8 0 15 4 15 9 0 13 -16 22 -24 14z"/>
<path d="M3716 563 c-11 -11 -6 -23 9 -23 8 0 15 4 15 9 0 13 -16 22 -24 14z"/>
<path d="M3847 563 c-12 -11 -8 -23 8 -23 8 0 15 7 15 15 0 16 -12 20 -23 8z"/>
<path d="M3590 545 c0 -9 5 -15 11 -13 6 2 11 8 11 13 0 5 -5 11 -11 13 -6 2
-11 -4 -11 -13z"/>
<path d="M3940 545 c0 -9 6 -12 15 -9 8 4 12 10 9 15 -8 14 -24 10 -24 -6z"/>
<path d="M3257 544 c-8 -8 1 -24 14 -24 5 0 9 7 9 15 0 15 -12 20 -23 9z"/>
<path d="M3360 524 c0 -17 22 -14 28 4 2 7 -3 12 -12 12 -9 0 -16 -7 -16 -16z"/>
<path d="M3530 515 c0 -8 5 -15 10 -15 6 0 10 7 10 15 0 8 -4 15 -10 15 -5 0
-10 -7 -10 -15z"/>
<path d="M3645 521 c-6 -11 9 -23 19 -14 9 9 7 23 -3 23 -6 0 -12 -4 -16 -9z"/>
<path d="M3890 515 c0 -9 5 -15 11 -13 6 2 11 8 11 13 0 5 -5 11 -11 13 -6 2
-11 -4 -11 -13z"/>
<path d="M3765 511 c-6 -11 9 -23 19 -14 9 9 7 23 -3 23 -6 0 -12 -4 -16 -9z"/>
<path d="M3460 500 c0 -5 7 -10 15 -10 8 0 15 5 15 10 0 6 -7 10 -15 10 -8 0
-15 -4 -15 -10z"/>
<path d="M3835 499 c-10 -15 3 -25 16 -12 7 7 7 13 1 17 -6 3 -14 1 -17 -5z"/>
<path d="M3307 494 c-8 -8 1 -24 14 -24 5 0 9 7 9 15 0 15 -12 20 -23 9z"/>
<path d="M3605 480 c-8 -13 -1 -24 14 -19 6 3 7 10 2 18 -6 10 -10 10 -16 1z"/>
<path d="M3375 470 c-4 -6 -3 -16 3 -22 6 -6 12 -6 17 2 4 6 3 16 -3 22 -6 6
-12 6 -17 -2z"/>
<path d="M3700 464 c0 -8 5 -12 10 -9 6 3 10 10 10 16 0 5 -4 9 -10 9 -5 0
-10 -7 -10 -16z"/>
<path d="M3466 451 c-4 -7 -5 -15 -2 -18 9 -9 19 4 14 18 -4 11 -6 11 -12 0z"/>
<path d="M3520 440 c0 -5 5 -10 10 -10 6 0 10 5 10 10 0 6 -4 10 -10 10 -5 0
-10 -4 -10 -10z"/>
<path d="M3605 409 c-4 -6 -5 -13 -2 -16 7 -7 27 6 27 18 0 12 -17 12 -25 -2z"/>
<path d="M3412 399 c2 -6 8 -10 13 -10 5 0 11 4 13 10 2 6 -4 11 -13 11 -9 0
-15 -5 -13 -11z"/>
<path d="M4570 685 c0 -9 5 -15 11 -13 6 2 11 8 11 13 0 5 -5 11 -11 13 -6 2
-11 -4 -11 -13z"/>
<path d="M4472 619 c2 -6 8 -10 13 -10 5 0 11 4 13 10 2 6 -4 11 -13 11 -9 0
-15 -5 -13 -11z"/>
<path d="M4397 584 c-8 -8 1 -24 14 -24 5 0 9 7 9 15 0 15 -12 20 -23 9z"/>
<path d="M4460 554 c0 -17 22 -14 28 4 2 7 -3 12 -12 12 -9 0 -16 -7 -16 -16z"/>
<path d="M4336 541 c-4 -7 -5 -15 -2 -18 9 -9 19 4 14 18 -4 11 -6 11 -12 0z"/>
<path d="M4235 471 c-6 -11 9 -23 19 -14 9 9 7 23 -3 23 -6 0 -12 -4 -16 -9z"/>
<path d="M4297 474 c-8 -8 1 -24 14 -24 5 0 9 7 9 15 0 15 -12 20 -23 9z"/>
<path d="M4170 440 c0 -5 4 -10 9 -10 6 0 13 5 16 10 3 6 -1 10 -9 10 -9 0
-16 -4 -16 -10z"/>
<path d="M4102 429 c2 -6 8 -10 13 -10 5 0 11 4 13 10 2 6 -4 11 -13 11 -9 0
-15 -5 -13 -11z"/>
<path d="M4040 380 c0 -5 5 -10 10 -10 6 0 10 5 10 10 0 6 -4 10 -10 10 -5 0
-10 -4 -10 -10z"/>
<path d="M3876 331 c-4 -5 -2 -12 3 -15 5 -4 12 -2 15 3 4 5 2 12 -3 15 -5 4
-12 2 -15 -3z"/>
<path d="M3940 330 c0 -5 7 -10 16 -10 8 0 12 5 9 10 -3 6 -10 10 -16 10 -5 0
-9 -4 -9 -10z"/>
<path d="M3827 294 c-8 -8 1 -24 14 -24 5 0 9 7 9 15 0 15 -12 20 -23 9z"/>
</g>
</svg>
