<?xml version="1.0" standalone="no"?>
<!DOCTYPE svg PUBLIC "-//W3C//DTD SVG 20010904//EN"
 "http://www.w3.org/TR/2001/REC-SVG-20010904/DTD/svg10.dtd">
<svg version="1.0" xmlns="http://www.w3.org/2000/svg"
 width="597.000000pt" height="597.000000pt" viewBox="0 0 597.000000 597.000000"
 preserveAspectRatio="xMidYMid meet">

<g transform="translate(0.000000,597.000000) scale(0.100000,-0.100000)"
fill="#000000" stroke="none">
<path d="M418 5950 c-67 -12 -190 -106 -243 -185 -64 -98 -128 -355 -142 -577
-11 -184 -8 -749 6 -943 39 -564 141 -1021 320 -1433 43 -100 61 -154 65 -200
7 -76 32 -127 85 -175 40 -36 91 -67 111 -67 5 0 95 -64 198 -142 104 -79 208
-150 236 -160 137 -53 207 -103 293 -211 110 -138 164 -183 286 -242 128 -61
137 -68 199 -150 59 -78 153 -167 203 -193 22 -11 76 -34 120 -53 118 -48 148
-72 240 -189 117 -149 140 -167 280 -223 66 -26 128 -54 137 -61 9 -7 43 -51
75 -98 71 -103 107 -145 153 -178 19 -14 105 -81 190 -151 172 -140 186 -149
228 -149 24 0 31 -6 45 -40 28 -71 132 -113 282 -113 155 0 335 53 570 168
291 143 489 287 751 549 385 386 637 785 757 1201 58 200 72 304 71 520 -1
172 -4 200 -28 290 -29 112 -46 140 -101 171 -20 12 -47 39 -59 60 -15 27 -80
85 -211 187 -207 162 -329 247 -438 304 -49 26 -81 51 -109 87 -160 208 -222
258 -391 317 -82 28 -103 47 -161 148 -64 112 -120 159 -283 237 -147 71 -161
83 -223 184 -45 75 -93 128 -153 168 -39 27 -189 102 -203 102 -21 0 -73 54
-123 129 -52 77 -80 104 -250 245 -152 125 -197 168 -215 205 -29 55 -59 85
-106 104 -123 50 -297 15 -494 -100 -271 -159 -757 -599 -1064 -966 -36 -42
-68 -74 -72 -70 -4 5 -12 26 -19 49 -11 33 -11 52 -1 95 18 81 24 320 11 420
-16 118 -33 172 -81 252 -32 52 -50 101 -76 205 -69 277 -101 341 -237 481
-34 35 -88 83 -119 107 -88 65 -220 101 -310 84z m155 -103 c116 -54 239 -194
321 -362 51 -106 116 -286 116 -323 0 -10 22 -69 50 -130 49 -109 82 -213 95
-300 9 -59 -2 -132 -21 -132 -18 0 -18 -14 1 -30 19 -16 19 -30 1 -30 -23 0
-31 -22 -12 -32 10 -5 16 -22 16 -43 0 -46 -9 -65 -31 -65 -27 0 -24 -19 5
-29 31 -12 41 -40 20 -56 -12 -8 -14 -14 -6 -19 7 -4 17 -4 22 -1 6 3 12 0 14
-7 2 -7 9 -30 15 -51 11 -34 11 -41 -5 -58 -17 -19 -17 -20 4 -26 21 -5 22 -9
18 -102 -8 -178 -34 -341 -55 -341 -5 0 -11 -18 -15 -40 -3 -23 -13 -43 -21
-46 -8 -4 -15 -17 -15 -29 0 -31 -37 -115 -50 -115 -6 0 -10 -8 -9 -17 4 -26
-10 -60 -26 -66 -8 -4 -11 -14 -8 -25 2 -11 0 -23 -6 -26 -6 -4 -11 -16 -11
-27 0 -10 -7 -19 -15 -19 -19 0 -19 1 10 94 14 43 24 84 21 90 -2 6 -5 4 -5
-5 -1 -9 -8 -20 -17 -23 -10 -4 -13 -13 -9 -25 3 -11 -7 -48 -26 -90 -25 -56
-35 -69 -45 -60 -7 6 -19 7 -25 3 -9 -5 -7 -11 7 -21 17 -13 18 -16 4 -41 -9
-15 -26 -28 -38 -30 -20 -3 -22 -8 -17 -32 5 -24 1 -32 -28 -54 -19 -14 -44
-26 -56 -26 -35 0 -84 39 -78 61 5 17 -4 23 -25 20 -17 -2 -48 52 -42 75 5 20
2 24 -16 24 -19 0 -21 4 -15 31 6 28 5 30 -13 25 -17 -6 -22 1 -35 38 -9 25
-13 54 -10 65 4 14 1 21 -9 21 -11 0 -26 44 -55 163 -36 141 -39 164 -26 174
17 13 9 33 -12 33 -9 0 -16 19 -20 58 -4 31 -11 68 -16 82 -5 14 -11 50 -13
80 -2 30 -7 63 -11 73 -5 12 -1 23 11 33 18 14 18 15 -4 31 -22 15 -22 17 -5
35 17 19 17 20 -2 34 -19 14 -20 27 -20 367 0 367 5 428 47 572 49 168 122
256 215 255 55 -1 97 -27 163 -104 77 -89 133 -198 214 -419 25 -67 31 -52 11
30 -44 175 -112 324 -203 443 -61 79 -114 121 -175 140 -70 21 -156 -39 -211
-148 -56 -111 -87 -372 -86 -725 1 -213 0 -242 -14 -245 -22 -5 -20 -23 4 -29
21 -6 27 -37 10 -48 -6 -4 -5 -14 4 -28 8 -12 17 -62 20 -112 4 -49 9 -107 12
-127 5 -30 3 -38 -10 -38 -22 0 -20 -21 3 -27 24 -6 41 -121 19 -135 -10 -7
-9 -12 7 -23 15 -12 19 -27 19 -70 0 -30 3 -55 7 -55 4 0 9 -17 12 -37 3 -21
15 -81 27 -133 15 -69 18 -100 11 -112 -8 -14 -7 -20 7 -27 17 -9 69 -153 63
-175 -1 -5 4 -16 12 -25 8 -9 36 -57 62 -107 26 -50 57 -96 69 -102 61 -32 84
-39 114 -35 17 3 32 9 32 13 0 18 83 130 96 130 10 0 13 7 9 23 -8 30 10 77
30 77 8 0 15 -7 15 -15 0 -8 -7 -15 -15 -15 -11 0 -13 -7 -9 -28 7 -35 -20
-102 -40 -102 -18 0 -21 -11 -6 -26 14 -14 1 -46 -16 -40 -18 7 -28 -12 -14
-28 14 -18 -25 -97 -52 -104 -13 -3 -17 -10 -13 -23 15 -46 -100 -67 -120 -22
-7 17 -15 21 -32 17 -17 -5 -31 2 -53 26 -17 18 -29 39 -26 46 3 7 -6 19 -18
28 -30 19 -39 53 -19 65 13 7 13 10 2 17 -8 5 -18 9 -24 9 -5 0 -11 10 -13 23
-2 12 1 22 7 22 6 0 11 7 11 16 0 10 -5 14 -15 10 -16 -6 -25 10 -39 67 -5 23
-3 27 15 27 12 0 19 5 16 13 -2 6 -14 11 -25 10 -18 -2 -22 4 -27 45 -4 26
-11 56 -16 67 -21 45 -29 88 -17 102 8 11 6 18 -10 33 -17 16 -45 105 -40 128
1 4 -4 20 -10 35 -16 38 -15 47 4 47 9 0 14 6 11 13 -2 6 -11 11 -19 9 -17 -3
-30 44 -63 224 -12 62 -14 89 -6 92 15 5 14 32 -2 32 -8 0 -17 21 -24 51 -9
47 -8 52 9 57 23 6 18 28 -6 26 -9 -1 -16 3 -16 10 0 6 -3 21 -6 34 -5 18 -2
22 16 22 13 0 20 5 17 13 -2 6 -11 11 -20 11 -19 -2 -21 10 -38 161 -17 154
-24 833 -10 941 17 126 56 275 92 347 41 83 98 157 134 173 40 19 113 11 178
-19z m2231 -599 c30 -47 25 -59 -31 -74 -400 -104 -972 -582 -1421 -1188 -29
-39 -64 -84 -78 -101 l-25 -30 5 35 c3 19 8 76 12 125 l7 90 73 90 c83 103
294 326 439 465 354 338 775 609 947 610 49 0 60 -3 72 -22z m2 -241 c-8 -35
-32 -104 -53 -151 -30 -68 -42 -86 -55 -82 -24 6 -35 -14 -14 -26 15 -8 14
-14 -11 -59 -16 -27 -34 -49 -40 -49 -7 0 -13 -12 -13 -28 0 -22 -13 -37 -69
-80 -46 -35 -77 -51 -92 -50 -19 2 -23 -1 -21 -18 3 -23 -13 -40 -43 -46 -11
-2 -20 -8 -20 -13 0 -21 -17 -35 -41 -35 -16 0 -24 -6 -24 -18 0 -23 -19 -42
-42 -42 -10 0 -18 -7 -18 -17 0 -15 -31 -48 -162 -172 -3 -3 -29 -31 -57 -62
-43 -47 -56 -55 -77 -51 -24 4 -25 3 -14 -17 10 -19 9 -26 -6 -42 -9 -10 -23
-19 -31 -19 -7 0 -13 -8 -13 -18 0 -27 -21 -44 -36 -31 -22 18 -39 5 -19 -14
16 -17 15 -20 -26 -73 -35 -46 -46 -54 -66 -49 -16 4 -23 1 -23 -9 0 -8 5 -18
10 -21 6 -4 -1 -20 -16 -41 -21 -28 -29 -32 -41 -23 -20 17 -41 -4 -24 -25 16
-19 -6 -56 -33 -56 -13 0 -17 -5 -13 -20 3 -13 -8 -37 -36 -72 -23 -29 -46
-55 -50 -57 -5 -2 -12 -13 -17 -25 -11 -29 -99 -156 -109 -156 -4 0 -13 -15
-19 -34 -7 -19 -26 -49 -42 -66 -17 -18 -30 -36 -30 -42 0 -19 -52 -99 -71
-109 -11 -5 -17 -14 -14 -19 10 -17 -45 -98 -93 -138 -64 -53 -233 -162 -251
-162 -8 0 -22 -7 -32 -16 -16 -15 -19 -14 -39 4 -22 20 -22 21 -4 69 9 26 26
55 37 64 12 10 18 23 14 32 -3 9 4 40 17 69 13 29 31 72 41 96 12 27 25 42 37
42 20 0 23 11 8 26 -12 12 -3 44 11 44 5 0 9 11 9 25 0 34 20 75 37 75 10 0
12 6 8 21 -9 26 13 79 32 79 11 0 13 7 9 24 -14 58 128 293 366 603 215 281
262 336 458 537 300 307 527 469 828 592 80 33 108 40 110 30 2 -7 -4 -43 -12
-79z m287 -64 c190 -147 222 -177 219 -204 -5 -37 -59 -192 -110 -314 -295
-715 -1028 -1609 -1674 -2040 -62 -42 -124 -78 -137 -82 -13 -3 -31 -13 -40
-22 -9 -9 -34 -25 -54 -36 -36 -19 -39 -19 -48 -2 -13 22 -32 12 -24 -13 4
-13 -2 -20 -22 -27 -35 -12 -79 6 -157 66 -45 35 -55 48 -50 64 5 17 3 19 -18
14 -18 -5 -37 4 -81 39 -31 25 -57 49 -57 52 0 4 34 25 76 46 130 67 334 209
464 323 418 368 936 989 1295 1553 117 184 260 484 286 603 6 31 16 57 22 57
5 0 54 -35 110 -77z m368 -304 c22 -17 68 -40 103 -50 35 -11 80 -32 99 -48
51 -40 137 -146 137 -167 0 -38 -50 -257 -85 -374 -144 -481 -415 -936 -820
-1375 -150 -164 -163 -177 -310 -309 -198 -179 -501 -396 -552 -396 -13 0 -23
-6 -23 -13 0 -8 -24 -24 -52 -37 -29 -12 -63 -27 -75 -33 -16 -7 -26 -7 -36 1
-16 14 -28 6 -20 -14 3 -8 -3 -16 -13 -20 -11 -3 -26 -9 -35 -14 -32 -16 -129
18 -129 45 0 18 -12 19 -27 4 -15 -15 -96 29 -88 49 8 22 -5 34 -22 20 -13
-10 -20 -7 -45 21 -22 25 -27 36 -18 46 12 15 -3 31 -19 20 -15 -9 -33 33 -25
57 5 18 3 20 -16 15 -15 -4 -33 2 -51 15 -37 27 -39 58 -4 58 14 0 25 4 25 9
0 11 66 51 84 51 8 0 19 7 27 16 7 9 22 14 35 11 16 -3 24 2 27 14 3 11 16 23
30 28 14 5 28 15 32 20 9 16 25 13 25 -4 0 -8 5 -15 10 -15 7 0 7 6 0 20 -8
16 -6 21 12 31 12 7 63 41 113 77 321 232 723 645 1010 1037 320 438 507 796
640 1223 6 18 13 15 56 -19z m-1021 -326 c0 -11 -73 -113 -81 -113 -4 0 -11 5
-15 11 -4 8 -10 7 -18 -1 -8 -8 -7 -14 6 -24 21 -15 7 -42 -17 -32 -25 9 -36
-2 -23 -23 10 -16 1 -33 -59 -113 -39 -52 -85 -108 -102 -125 -17 -17 -31 -35
-31 -40 0 -12 -117 -156 -135 -166 -8 -4 -15 -13 -15 -18 0 -13 -109 -143
-124 -147 -6 -2 -23 -24 -39 -49 -24 -40 -31 -44 -53 -39 -24 6 -26 5 -20 -17
8 -34 -103 -158 -135 -150 -16 5 -20 2 -17 -13 4 -25 -70 -114 -94 -114 -24 0
-23 17 2 30 11 6 20 20 20 30 0 14 7 20 21 20 16 0 20 5 16 19 -2 11 3 30 12
44 68 103 114 167 133 188 13 14 29 37 37 52 15 28 35 35 47 16 4 -8 9 -8 17
0 8 8 6 15 -8 24 -17 13 -11 23 86 145 57 72 112 134 122 137 9 4 17 12 17 20
0 7 8 23 18 35 16 20 19 21 31 6 7 -9 17 -16 22 -16 16 0 10 28 -7 34 -13 5
-6 18 34 64 43 49 171 180 291 298 31 31 61 44 61 27z m1500 -87 c36 -31 66
-48 112 -60 93 -26 138 -52 181 -104 44 -54 44 -52 0 -277 -111 -576 -499
-1209 -1079 -1764 -212 -204 -567 -464 -622 -459 -15 2 -27 -1 -27 -7 -1 -22
-17 -36 -36 -30 -12 4 -21 1 -25 -10 -8 -20 -81 -58 -100 -51 -7 3 -18 -2 -23
-12 -5 -9 -31 -24 -57 -32 l-48 -16 -87 39 c-55 25 -89 47 -92 59 -3 10 -14
18 -24 18 -27 0 -35 10 -22 27 12 13 9 15 -26 17 -15 1 -19 7 -18 23 2 18 -2
23 -20 24 -23 0 -59 39 -71 74 -5 18 5 25 82 58 49 20 96 37 105 37 10 0 17 5
17 10 0 6 20 20 46 32 37 18 47 20 53 9 11 -17 32 -5 25 14 -4 9 2 18 12 22
27 11 174 108 284 188 270 195 542 463 787 775 50 64 203 286 203 295 0 3 15
29 34 58 58 90 182 355 226 482 22 66 54 174 70 240 29 122 80 350 80 360 0
12 15 3 60 -39z m561 -456 l36 -19 -8 -58 c-57 -381 -236 -806 -507 -1203
-167 -243 -436 -554 -648 -745 -205 -185 -420 -346 -456 -342 -15 1 -22 -3
-20 -12 4 -19 -29 -42 -53 -36 -14 3 -24 -3 -30 -18 -8 -16 -17 -21 -38 -19
-21 2 -27 -2 -27 -16 0 -13 -21 -27 -72 -51 -40 -18 -81 -37 -91 -42 -10 -6
-27 -7 -38 -4 -13 4 -19 2 -19 -9 0 -8 -9 -17 -19 -21 -14 -4 -33 8 -73 51
-29 31 -53 65 -53 75 -1 25 -12 34 -28 21 -13 -11 -27 -7 -27 8 0 4 18 13 41
20 34 12 42 12 49 0 7 -11 11 -8 19 13 10 26 31 38 31 17 0 -5 7 -10 15 -10 8
0 15 9 15 20 0 22 57 51 93 47 12 -1 22 4 22 11 0 17 34 42 57 42 9 0 28 9 40
21 13 12 73 53 133 93 364 236 759 639 1043 1063 34 51 62 94 62 97 0 2 21 40
47 83 40 68 119 226 166 333 69 159 150 432 176 600 18 110 15 107 73 55 29
-26 68 -55 89 -65z m217 -105 c34 -26 82 -76 109 -113 26 -37 83 -103 126
-146 l79 -80 -6 -83 c-16 -192 -53 -332 -149 -562 -242 -582 -667 -1125 -1167
-1493 -176 -129 -180 -131 -196 -111 -13 18 -16 15 -18 -22 -1 -15 -7 -19 -24
-17 -17 1 -25 -4 -29 -18 -3 -10 -30 -33 -60 -50 -43 -25 -58 -29 -69 -19 -14
11 -16 9 -18 -21 -1 -9 -46 -37 -106 -67 -81 -41 -106 -50 -108 -38 -5 24 -32
18 -29 -7 1 -14 -4 -23 -15 -26 -11 -2 -18 3 -18 12 0 12 -6 15 -25 10 -25 -6
-30 1 -26 34 1 7 -9 12 -22 12 -29 0 -53 26 -49 52 3 19 -24 26 -30 7 -2 -5
-11 -7 -21 -3 -11 4 -16 13 -13 21 9 23 -3 34 -22 22 -14 -9 -29 -5 -67 15
-28 14 -62 30 -77 37 -16 6 -28 17 -28 25 0 8 -8 14 -18 14 -20 0 -42 18 -42
35 0 6 37 26 83 44 45 18 106 44 135 59 45 23 54 24 62 12 10 -16 25 -7 25 17
0 8 27 29 60 47 170 92 407 268 598 445 351 325 620 678 807 1056 111 224 172
407 235 700 54 255 52 245 64 245 5 0 36 -20 69 -45z m567 -486 c44 -42 127
-118 185 -169 89 -79 107 -99 117 -137 32 -120 37 -430 9 -578 -106 -566 -456
-1090 -1000 -1498 -49 -37 -95 -67 -102 -67 -7 0 -17 -6 -21 -13 -16 -26 -56
-47 -69 -36 -16 13 -35 3 -28 -16 6 -15 -24 -35 -55 -35 -12 0 -21 -7 -21 -15
0 -10 -10 -15 -30 -15 -19 0 -30 -5 -30 -14 0 -21 -20 -30 -33 -17 -17 17 -27
13 -27 -9 0 -26 -45 -49 -62 -32 -18 18 -31 14 -25 -7 4 -15 -3 -22 -27 -31
-17 -7 -40 -16 -51 -21 -77 -32 -100 -39 -103 -29 -6 18 -29 11 -35 -11 -4
-16 -11 -20 -26 -16 -11 3 -25 -1 -32 -9 -15 -19 -39 -18 -39 1 0 22 -21 18
-27 -5 -8 -31 -103 -54 -103 -25 0 8 -4 15 -10 15 -5 0 -10 -7 -10 -15 0 -21
-30 -31 -41 -14 -7 11 -12 12 -27 2 -15 -9 -25 -8 -48 4 -16 9 -41 22 -56 30
-14 7 -58 43 -97 79 -58 54 -69 69 -60 80 16 19 4 30 -15 15 -12 -10 -27 -3
-83 42 -37 29 -78 60 -90 68 -13 8 -23 17 -23 20 0 3 44 23 98 45 53 21 106
44 117 51 11 7 26 13 34 13 7 0 19 6 25 14 6 7 55 36 109 64 69 37 97 48 97
37 0 -8 7 -15 15 -15 18 0 19 12 4 27 -8 8 -4 15 12 27 15 10 27 12 33 6 17
-17 26 -11 26 15 0 20 6 27 30 31 17 4 30 12 30 18 0 6 17 22 37 36 287 193
664 587 900 940 251 375 389 732 459 1190 3 25 10 55 15 68 9 23 9 23 41 5 18
-10 68 -52 113 -94z m-4327 69 c-5 -32 -28 -35 -28 -4 0 17 5 26 16 26 10 0
14 -7 12 -22z m492 -125 c0 -14 -19 -38 -25 -32 -8 8 5 39 16 39 5 0 9 -3 9
-7z m4259 -340 c50 -42 81 -286 62 -483 -46 -449 -242 -851 -621 -1268 -99
-110 -335 -320 -363 -324 -12 -2 -22 -9 -22 -17 0 -18 -21 -26 -30 -12 -12 21
-26 11 -23 -16 3 -26 1 -28 -30 -25 -29 2 -33 0 -27 -17 6 -21 -10 -38 -20
-21 -9 14 -25 2 -25 -18 0 -19 -57 -58 -77 -54 -7 1 -17 -7 -23 -18 -6 -11
-19 -20 -30 -20 -10 0 -23 -6 -27 -14 -12 -20 -90 -57 -107 -50 -10 4 -18 -1
-22 -11 -9 -23 -90 -56 -120 -49 -18 5 -24 2 -24 -10 0 -24 -38 -40 -66 -27
-21 9 -24 8 -24 -8 0 -14 -17 -24 -66 -40 -37 -12 -86 -24 -111 -28 -37 -5
-43 -4 -37 11 4 11 1 16 -11 16 -12 0 -15 -5 -10 -20 5 -15 2 -20 -13 -20 -11
0 -22 6 -25 13 -3 8 -10 6 -26 -8 -21 -18 -25 -18 -49 -4 -31 17 -42 49 -18
49 9 0 16 -7 16 -15 0 -8 5 -15 10 -15 6 0 10 9 10 19 0 18 6 21 70 37 8 2 53
18 100 35 47 18 100 32 118 31 19 0 32 4 32 12 0 11 80 56 100 56 6 0 10 -7
10 -15 0 -18 16 -20 26 -4 3 6 1 15 -6 19 -7 4 25 27 87 60 54 29 141 79 193
112 76 48 98 58 112 49 19 -12 34 1 22 20 -8 14 44 58 69 59 9 0 17 6 17 14 0
7 12 21 26 31 15 9 65 52 113 95 465 417 751 941 821 1505 11 82 6 358 -7 378
-5 9 5 27 16 27 5 0 18 -8 30 -17z"/>
<path d="M552 5183 c-96 -102 -139 -316 -141 -702 -2 -186 -4 -216 -18 -226
-15 -11 -15 -13 2 -23 14 -7 21 -26 25 -71 5 -54 4 -61 -12 -61 -10 0 -18 -7
-18 -15 0 -8 9 -15 20 -15 11 0 20 -4 20 -9 0 -31 54 -306 78 -400 17 -63 27
-121 24 -129 -3 -8 2 -19 11 -24 21 -11 22 -28 2 -28 -8 0 -15 -7 -15 -16 0
-11 6 -15 20 -11 15 4 26 -7 54 -58 21 -39 33 -71 29 -84 -4 -17 -1 -20 23
-18 23 2 30 -3 32 -21 3 -19 8 -23 25 -18 12 3 30 6 39 6 10 0 33 14 51 30 19
17 41 30 49 30 9 0 13 13 13 41 0 32 6 46 25 61 17 13 24 28 22 44 -3 19 1 24
17 24 12 0 21 6 21 15 0 8 -4 15 -10 15 -16 0 -12 22 7 35 13 10 15 16 6 26
-14 17 17 171 35 177 14 4 17 32 3 32 -11 0 -1 232 11 247 10 13 3 33 -13 33
-5 0 -9 -13 -9 -30 0 -20 -5 -30 -15 -30 -20 0 -19 -20 3 -36 16 -13 16 -15 0
-28 -20 -15 -24 -36 -7 -36 21 0 -13 -219 -38 -237 -12 -9 -13 -16 -5 -26 9
-10 7 -28 -5 -70 -9 -31 -20 -57 -24 -57 -5 0 -9 5 -9 10 0 6 -7 10 -15 10 -8
0 -15 -7 -15 -15 0 -8 9 -15 20 -15 17 0 18 -3 8 -27 -6 -16 -21 -36 -32 -47
-12 -10 -22 -22 -22 -27 -1 -5 -2 -13 -3 -18 -2 -15 -70 -51 -86 -45 -8 4 -15
10 -15 14 0 5 -10 10 -22 12 -16 2 -35 23 -62 72 -37 64 -39 69 -22 82 22 16
11 37 -15 29 -16 -5 -19 -1 -19 24 0 17 -4 31 -9 31 -10 0 -31 74 -35 121 -2
14 -6 31 -10 38 -5 7 -14 36 -22 64 -10 38 -10 54 -2 65 9 10 8 16 -2 22 -8 5
-19 29 -25 54 -10 37 -9 48 3 60 12 12 12 15 -7 25 -22 12 -28 45 -10 56 7 5
4 14 -8 27 -13 15 -15 22 -5 25 17 6 15 30 -3 37 -23 9 -21 122 2 131 16 6 15
8 -6 24 -20 15 -22 21 -11 40 8 17 8 26 0 36 -12 14 -9 101 11 329 21 245 104
399 207 383 50 -8 126 -90 187 -202 26 -47 48 -85 51 -85 2 0 -7 29 -20 65
-42 116 -135 248 -197 280 -47 25 -78 19 -117 -22z"/>
<path d="M1080 4466 c0 -9 7 -16 16 -16 9 0 14 5 12 12 -6 18 -28 21 -28 4z"/>
<path d="M1025 4429 c-10 -15 3 -25 16 -12 7 7 7 13 1 17 -6 3 -14 1 -17 -5z"/>
<path d="M487 4424 c-8 -8 1 -24 14 -24 5 0 9 7 9 15 0 15 -12 20 -23 9z"/>
<path d="M216 4403 c-11 -11 -6 -23 9 -23 8 0 15 4 15 9 0 13 -16 22 -24 14z"/>
<path d="M350 4386 c0 -9 7 -16 16 -16 17 0 14 22 -4 28 -7 2 -12 -3 -12 -12z"/>
<path d="M600 4366 c0 -9 7 -16 16 -16 9 0 14 5 12 12 -6 18 -28 21 -28 4z"/>
<path d="M520 4354 c0 -17 22 -14 28 4 2 7 -3 12 -12 12 -9 0 -16 -7 -16 -16z"/>
<path d="M960 4360 c0 -5 7 -10 15 -10 8 0 15 5 15 10 0 6 -7 10 -15 10 -8 0
-15 -4 -15 -10z"/>
<path d="M1036 4363 c-11 -11 -6 -23 9 -23 8 0 15 4 15 9 0 13 -16 22 -24 14z"/>
<path d="M220 4326 c0 -9 7 -16 16 -16 17 0 14 22 -4 28 -7 2 -12 -3 -12 -12z"/>
<path d="M362 4308 c6 -18 28 -21 28 -4 0 9 -7 16 -16 16 -9 0 -14 -5 -12 -12z"/>
<path d="M506 4312 c-3 -6 -1 -14 5 -17 15 -10 25 3 12 16 -7 7 -13 7 -17 1z"/>
<path d="M570 4305 c0 -8 7 -15 15 -15 8 0 15 7 15 15 0 8 -7 15 -15 15 -8 0
-15 -7 -15 -15z"/>
<path d="M937 4304 c-8 -8 1 -24 14 -24 5 0 9 7 9 15 0 15 -12 20 -23 9z"/>
<path d="M640 4284 c0 -17 22 -14 28 4 2 7 -3 12 -12 12 -9 0 -16 -7 -16 -16z"/>
<path d="M1050 4291 c0 -5 7 -11 15 -15 9 -3 15 0 15 9 0 8 -7 15 -15 15 -8 0
-15 -4 -15 -9z"/>
<path d="M880 4274 c0 -17 22 -14 28 4 2 7 -3 12 -12 12 -9 0 -16 -7 -16 -16z"/>
<path d="M456 4272 c-3 -6 -1 -14 5 -17 15 -10 25 3 12 16 -7 7 -13 7 -17 1z"/>
<path d="M766 4273 c-11 -11 -6 -23 9 -23 8 0 15 4 15 9 0 13 -16 22 -24 14z"/>
<path d="M992 4268 c5 -15 28 -18 29 -3 0 6 -7 12 -17 13 -10 3 -15 -1 -12
-10z"/>
<path d="M270 4255 c0 -9 5 -15 11 -13 6 2 11 8 11 13 0 5 -5 11 -11 13 -6 2
-11 -4 -11 -13z"/>
<path d="M565 4240 c-3 -6 1 -13 10 -16 19 -8 30 0 20 15 -8 14 -22 14 -30 1z"/>
<path d="M695 4241 c-7 -12 12 -24 25 -16 11 7 4 25 -10 25 -5 0 -11 -4 -15
-9z"/>
<path d="M837 4244 c-9 -10 2 -24 18 -24 9 0 12 6 9 15 -6 16 -17 19 -27 9z"/>
<path d="M1106 4243 c-11 -11 -6 -23 9 -23 8 0 15 4 15 9 0 13 -16 22 -24 14z"/>
<path d="M940 4225 c0 -9 5 -15 11 -13 6 2 11 8 11 13 0 5 -5 11 -11 13 -6 2
-11 -4 -11 -13z"/>
<path d="M507 4213 c-12 -11 -8 -23 8 -23 8 0 15 7 15 15 0 16 -12 20 -23 8z"/>
<path d="M632 4199 c2 -6 8 -10 13 -10 5 0 11 4 13 10 2 6 -4 11 -13 11 -9 0
-15 -5 -13 -11z"/>
<path d="M1010 4195 c0 -9 5 -15 11 -13 6 2 11 8 11 13 0 5 -5 11 -11 13 -6 2
-11 -4 -11 -13z"/>
<path d="M755 4191 c-7 -12 12 -24 25 -16 11 7 4 25 -10 25 -5 0 -11 -4 -15
-9z"/>
<path d="M890 4185 c0 -8 7 -15 15 -15 8 0 15 7 15 15 0 8 -7 15 -15 15 -8 0
-15 -7 -15 -15z"/>
<path d="M272 4179 c2 -6 8 -10 13 -10 5 0 11 4 13 10 2 6 -4 11 -13 11 -9 0
-15 -5 -13 -11z"/>
<path d="M1107 4184 c-8 -8 1 -24 14 -24 5 0 9 7 9 15 0 15 -12 20 -23 9z"/>
<path d="M832 4171 c2 -7 7 -12 11 -12 12 1 9 15 -3 20 -7 2 -11 -2 -8 -8z"/>
<path d="M580 4155 c0 -8 7 -15 15 -15 8 0 15 7 15 15 0 8 -7 15 -15 15 -8 0
-15 -7 -15 -15z"/>
<path d="M690 4144 c0 -17 22 -14 28 4 2 7 -3 12 -12 12 -9 0 -16 -7 -16 -16z"/>
<path d="M935 4140 c-4 -7 -1 -16 6 -21 17 -10 26 8 11 23 -6 6 -12 6 -17 -2z"/>
<path d="M500 4126 c0 -9 7 -16 16 -16 9 0 14 5 12 12 -6 18 -28 21 -28 4z"/>
<path d="M1000 4125 c0 -16 16 -20 24 -6 3 5 -1 11 -9 15 -9 3 -15 0 -15 -9z"/>
<path d="M1060 4125 c0 -9 6 -12 15 -9 8 4 15 10 15 15 0 5 -7 9 -15 9 -8 0
-15 -7 -15 -15z"/>
<path d="M796 4123 c-11 -11 -6 -23 9 -23 8 0 15 4 15 9 0 13 -16 22 -24 14z"/>
<path d="M870 4105 c0 -9 5 -15 11 -13 6 2 11 8 11 13 0 5 -5 11 -11 13 -6 2
-11 -4 -11 -13z"/>
<path d="M265 4091 c-7 -12 12 -24 25 -16 11 7 4 25 -10 25 -5 0 -11 -4 -15
-9z"/>
<path d="M597 4093 c-12 -11 -8 -23 8 -23 8 0 15 7 15 15 0 16 -12 20 -23 8z"/>
<path d="M1122 4088 c6 -18 28 -21 28 -4 0 9 -7 16 -16 16 -9 0 -14 -5 -12
-12z"/>
<path d="M660 4075 c0 -9 6 -12 15 -9 8 4 12 10 9 15 -8 14 -24 10 -24 -6z"/>
<path d="M730 4075 c0 -8 7 -15 15 -15 8 0 15 7 15 15 0 8 -7 15 -15 15 -8 0
-15 -7 -15 -15z"/>
<path d="M525 4061 c-6 -11 9 -23 19 -14 9 9 7 23 -3 23 -6 0 -12 -4 -16 -9z"/>
<path d="M905 4060 c-4 -6 -3 -16 3 -22 6 -6 12 -6 17 2 4 6 3 16 -3 22 -6 6
-12 6 -17 -2z"/>
<path d="M1057 4054 c-8 -8 1 -24 14 -24 5 0 9 7 9 15 0 15 -12 20 -23 9z"/>
<path d="M810 4034 c0 -17 22 -14 28 4 2 7 -3 12 -12 12 -9 0 -16 -7 -16 -16z"/>
<path d="M600 4016 c0 -9 7 -16 16 -16 17 0 14 22 -4 28 -7 2 -12 -3 -12 -12z"/>
<path d="M390 4007 c0 -19 16 -31 24 -18 3 5 -1 14 -9 21 -12 10 -15 10 -15
-3z"/>
<path d="M675 4011 c-7 -12 12 -24 25 -16 11 7 4 25 -10 25 -5 0 -11 -4 -15
-9z"/>
<path d="M1120 4010 c0 -5 4 -10 9 -10 6 0 13 5 16 10 3 6 -1 10 -9 10 -9 0
-16 -4 -16 -10z"/>
<path d="M740 4001 c0 -5 7 -11 15 -15 9 -3 15 0 15 9 0 8 -7 15 -15 15 -8 0
-15 -4 -15 -9z"/>
<path d="M885 4000 c-3 -5 1 -13 10 -16 22 -9 29 1 11 15 -10 8 -16 9 -21 1z"/>
<path d="M1020 3974 c0 -17 22 -14 28 4 2 7 -3 12 -12 12 -9 0 -16 -7 -16 -16z"/>
<path d="M532 3968 c6 -18 28 -21 28 -4 0 9 -7 16 -16 16 -9 0 -14 -5 -12 -12z"/>
<path d="M835 3960 c-3 -6 1 -13 10 -16 19 -8 30 0 20 15 -8 14 -22 14 -30 1z"/>
<path d="M1147 3964 c-8 -8 1 -24 14 -24 5 0 9 7 9 15 0 15 -12 20 -23 9z"/>
<path d="M290 3945 c7 -8 16 -12 21 -9 13 8 1 24 -18 24 -13 0 -13 -3 -3 -15z"/>
<path d="M650 3945 c0 -9 5 -15 11 -13 6 2 11 8 11 13 0 5 -5 11 -11 13 -6 2
-11 -4 -11 -13z"/>
<path d="M770 3935 c0 -9 5 -15 11 -13 6 2 11 8 11 13 0 5 -5 11 -11 13 -6 2
-11 -4 -11 -13z"/>
<path d="M597 3933 c-12 -11 -8 -23 8 -23 8 0 15 7 15 15 0 16 -12 20 -23 8z"/>
<path d="M1080 3926 c0 -9 7 -16 16 -16 9 0 14 5 12 12 -6 18 -28 21 -28 4z"/>
<path d="M710 3916 c0 -9 7 -16 16 -16 9 0 14 5 12 12 -6 18 -28 21 -28 4z"/>
<path d="M887 3904 c-8 -8 1 -24 14 -24 5 0 9 7 9 15 0 15 -12 20 -23 9z"/>
<path d="M410 3885 c0 -8 7 -15 15 -15 8 0 15 4 15 9 0 5 -7 11 -15 15 -9 3
-15 0 -15 -9z"/>
<path d="M1010 3890 c0 -5 7 -10 15 -10 8 0 15 5 15 10 0 6 -7 10 -15 10 -8 0
-15 -4 -15 -10z"/>
<path d="M282 3879 c2 -6 8 -10 13 -10 5 0 11 4 13 10 2 6 -4 11 -13 11 -9 0
-15 -5 -13 -11z"/>
<path d="M552 3879 c2 -6 8 -10 13 -10 5 0 11 4 13 10 2 6 -4 11 -13 11 -9 0
-15 -5 -13 -11z"/>
<path d="M655 3880 c-4 -6 -3 -16 3 -22 6 -6 12 -6 17 2 4 6 3 16 -3 22 -6 6
-12 6 -17 -2z"/>
<path d="M812 3878 c6 -18 28 -21 28 -4 0 9 -7 16 -16 16 -9 0 -14 -5 -12 -12z"/>
<path d="M1140 3876 c0 -9 7 -16 16 -16 9 0 14 5 12 12 -6 18 -28 21 -28 4z"/>
<path d="M726 3853 c-11 -11 -6 -23 9 -23 8 0 15 4 15 9 0 13 -16 22 -24 14z"/>
<path d="M602 3838 c6 -18 28 -21 28 -4 0 9 -7 16 -16 16 -9 0 -14 -5 -12 -12z"/>
<path d="M1067 3843 c-4 -3 -7 -17 -7 -30 0 -12 -4 -23 -9 -23 -5 0 -8 -19 -7
-42 0 -24 -3 -64 -8 -91 -7 -41 -6 -46 7 -41 12 4 15 14 10 35 -4 22 -2 29 10
29 24 0 32 21 13 32 -14 8 -16 18 -10 56 4 26 13 51 20 55 8 4 14 12 14 17 0
11 -23 13 -33 3z"/>
<path d="M540 3815 c0 -8 7 -15 15 -15 8 0 15 7 15 15 0 8 -7 15 -15 15 -8 0
-15 -7 -15 -15z"/>
<path d="M815 3821 c-7 -12 12 -24 25 -16 11 7 4 25 -10 25 -5 0 -11 -4 -15
-9z"/>
<path d="M880 3816 c0 -9 7 -16 16 -16 9 0 14 5 12 12 -6 18 -28 21 -28 4z"/>
<path d="M296 3812 c-3 -6 1 -15 8 -21 8 -7 17 -8 20 -3 3 6 -1 15 -8 21 -8 7
-17 8 -20 3z"/>
<path d="M650 3775 c0 -9 5 -15 11 -13 6 2 11 8 11 13 0 5 -5 11 -11 13 -6 2
-11 -4 -11 -13z"/>
<path d="M772 3778 c6 -18 28 -21 28 -4 0 9 -7 16 -16 16 -9 0 -14 -5 -12 -12z"/>
<path d="M710 3764 c0 -9 5 -14 12 -12 18 6 21 28 4 28 -9 0 -16 -7 -16 -16z"/>
<path d="M1110 3765 c0 -8 7 -15 15 -15 8 0 15 7 15 15 0 8 -7 15 -15 15 -8 0
-15 -7 -15 -15z"/>
<path d="M585 3760 c-4 -6 -3 -16 3 -22 6 -6 12 -6 17 2 4 6 3 16 -3 22 -6 6
-12 6 -17 -2z"/>
<path d="M905 3751 c-6 -11 9 -23 19 -14 9 9 7 23 -3 23 -6 0 -12 -4 -16 -9z"/>
<path d="M840 3735 c0 -9 5 -15 11 -13 6 2 11 8 11 13 0 5 -5 11 -11 13 -6 2
-11 -4 -11 -13z"/>
<path d="M305 3730 c-3 -5 1 -10 9 -10 9 0 16 5 16 10 0 6 -4 10 -9 10 -6 0
-13 -4 -16 -10z"/>
<path d="M446 3733 c-11 -11 -6 -23 9 -23 8 0 15 4 15 9 0 13 -16 22 -24 14z"/>
<path d="M695 3710 c-4 -6 -3 -16 3 -22 6 -6 12 -6 17 2 4 6 3 16 -3 22 -6 6
-12 6 -17 -2z"/>
<path d="M982 3708 c6 -18 28 -21 28 -4 0 9 -7 16 -16 16 -9 0 -14 -5 -12 -12z"/>
<path d="M612 3698 c6 -18 28 -21 28 -4 0 9 -7 16 -16 16 -9 0 -14 -5 -12 -12z"/>
<path d="M770 3695 c0 -8 7 -15 15 -15 8 0 15 4 15 9 0 5 -7 11 -15 15 -9 3
-15 0 -15 -9z"/>
<path d="M832 3659 c2 -6 8 -10 13 -10 5 0 11 4 13 10 2 6 -4 11 -13 11 -9 0
-15 -5 -13 -11z"/>
<path d="M460 3645 c0 -9 5 -15 11 -13 6 2 11 8 11 13 0 5 -5 11 -11 13 -6 2
-11 -4 -11 -13z"/>
<path d="M675 3650 c-4 -6 -3 -16 3 -22 6 -6 12 -6 17 2 4 6 3 16 -3 22 -6 6
-12 6 -17 -2z"/>
<path d="M600 3640 c0 -5 7 -10 16 -10 8 0 12 5 9 10 -3 6 -10 10 -16 10 -5 0
-9 -4 -9 -10z"/>
<path d="M735 3631 c-7 -12 12 -24 25 -16 11 7 4 25 -10 25 -5 0 -11 -4 -15
-9z"/>
<path d="M977 3624 c-8 -8 1 -24 14 -24 5 0 9 7 9 15 0 15 -12 20 -23 9z"/>
<path d="M366 3603 c-11 -11 -6 -23 9 -23 8 0 15 4 15 9 0 13 -16 22 -24 14z"/>
<path d="M862 3599 c2 -6 8 -10 13 -10 5 0 11 4 13 10 2 6 -4 11 -13 11 -9 0
-15 -5 -13 -11z"/>
<path d="M486 3593 c-11 -11 -6 -23 9 -23 8 0 15 4 15 9 0 13 -16 22 -24 14z"/>
<path d="M1020 3580 c0 -10 -9 -28 -20 -38 -18 -17 -19 -21 -6 -31 13 -11 16
-8 22 13 4 17 13 26 25 26 24 0 24 11 -1 33 -19 16 -20 16 -20 -3z"/>
<path d="M790 3576 c0 -9 7 -16 16 -16 9 0 14 5 12 12 -6 18 -28 21 -28 4z"/>
<path d="M662 3569 c2 -6 8 -10 13 -10 5 0 11 4 13 10 2 6 -4 11 -13 11 -9 0
-15 -5 -13 -11z"/>
<path d="M726 3535 c4 -9 11 -14 16 -13 15 5 11 23 -6 26 -11 2 -14 -2 -10
-13z"/>
<path d="M367 3524 c-8 -8 1 -24 14 -24 5 0 9 7 9 15 0 15 -12 20 -23 9z"/>
<path d="M685 3500 c-4 -6 -3 -16 3 -22 6 -6 12 -6 17 2 4 6 3 16 -3 22 -6 6
-12 6 -17 -2z"/>
<path d="M782 3488 c6 -18 28 -21 28 -4 0 9 -7 16 -16 16 -9 0 -14 -5 -12 -12z"/>
<path d="M690 3420 c0 -5 5 -10 10 -10 6 0 10 5 10 10 0 6 -4 10 -10 10 -5 0
-10 -4 -10 -10z"/>
<path d="M752 3418 c6 -18 28 -21 28 -4 0 9 -7 16 -16 16 -9 0 -14 -5 -12 -12z"/>
<path d="M556 3393 c-11 -11 -6 -23 9 -23 8 0 15 4 15 9 0 13 -16 22 -24 14z"/>
<path d="M906 3382 c-3 -6 -1 -14 5 -17 15 -10 25 3 12 16 -7 7 -13 7 -17 1z"/>
<path d="M410 3345 c0 -9 5 -15 11 -13 6 2 11 8 11 13 0 5 -5 11 -11 13 -6 2
-11 -4 -11 -13z"/>
<path d="M452 3269 c2 -6 8 -10 13 -10 5 0 11 4 13 10 2 6 -4 11 -13 11 -9 0
-15 -5 -13 -11z"/>
<path d="M802 3249 c2 -6 8 -10 13 -10 5 0 11 4 13 10 2 6 -4 11 -13 11 -9 0
-15 -5 -13 -11z"/>
<path d="M642 3218 c6 -18 28 -21 28 -4 0 9 -7 16 -16 16 -9 0 -14 -5 -12 -12z"/>
<path d="M745 3211 c-7 -12 12 -24 25 -16 11 7 4 25 -10 25 -5 0 -11 -4 -15
-9z"/>
<path d="M700 3176 c0 -9 7 -16 16 -16 9 0 14 5 12 12 -6 18 -28 21 -28 4z"/>
<path d="M497 3144 c-9 -10 2 -24 18 -24 9 0 12 6 9 15 -6 16 -17 19 -27 9z"/>
<path d="M742 3118 c6 -18 28 -21 28 -4 0 9 -7 16 -16 16 -9 0 -14 -5 -12 -12z"/>
<path d="M542 3058 c6 -18 28 -21 28 -4 0 9 -7 16 -16 16 -9 0 -14 -5 -12 -12z"/>
<path d="M557 2994 c-8 -8 1 -24 14 -24 5 0 9 7 9 15 0 15 -12 20 -23 9z"/>
<path d="M645 2941 c-7 -12 12 -24 25 -16 11 7 4 25 -10 25 -5 0 -11 -4 -15
-9z"/>
<path d="M576 2921 c-3 -5 1 -11 9 -15 15 -6 29 7 18 18 -9 9 -21 8 -27 -3z"/>
<path d="M760 2904 c0 -17 22 -14 28 4 2 7 -3 12 -12 12 -9 0 -16 -7 -16 -16z"/>
<path d="M692 2878 c6 -18 28 -21 28 -4 0 9 -7 16 -16 16 -9 0 -14 -5 -12 -12z"/>
<path d="M627 2873 c-12 -11 -8 -23 8 -23 8 0 15 7 15 15 0 16 -12 20 -23 8z"/>
<path d="M692 2799 c2 -6 8 -10 13 -10 5 0 11 4 13 10 2 6 -4 11 -13 11 -9 0
-15 -5 -13 -11z"/>
<path d="M2605 4710 c-3 -5 1 -10 9 -10 9 0 16 5 16 10 0 6 -4 10 -9 10 -6 0
-13 -4 -16 -10z"/>
<path d="M2542 4658 c5 -15 28 -18 29 -3 0 6 -7 12 -17 13 -10 3 -15 -1 -12
-10z"/>
<path d="M2540 4574 c0 -9 5 -14 12 -12 18 6 21 28 4 28 -9 0 -16 -7 -16 -16z"/>
<path d="M2466 4552 c-3 -6 1 -15 8 -21 8 -7 17 -8 20 -3 3 6 -1 15 -8 21 -8
7 -17 8 -20 3z"/>
<path d="M2370 4476 c0 -9 7 -16 16 -16 9 0 14 5 12 12 -6 18 -28 21 -28 4z"/>
<path d="M2300 4444 c0 -9 5 -14 12 -12 18 6 21 28 4 28 -9 0 -16 -7 -16 -16z"/>
<path d="M2222 4358 c6 -18 28 -21 28 -4 0 9 -7 16 -16 16 -9 0 -14 -5 -12
-12z"/>
<path d="M2140 4320 c-9 -6 -10 -10 -3 -10 6 0 15 5 18 10 8 12 4 12 -15 0z"/>
<path d="M2185 4280 c-7 -12 2 -30 16 -30 12 0 12 27 0 35 -5 3 -12 1 -16 -5z"/>
<path d="M2116 4235 c4 -9 11 -14 16 -13 15 5 11 23 -6 26 -11 2 -14 -2 -10
-13z"/>
<path d="M2066 4201 c-3 -5 1 -14 8 -20 16 -13 32 2 21 19 -8 12 -22 13 -29 1z"/>
<path d="M1982 4166 c1 -10 8 -17 13 -17 15 1 12 24 -3 29 -9 3 -13 -2 -10
-12z"/>
<path d="M2010 4096 c0 -9 7 -16 16 -16 9 0 14 5 12 12 -6 18 -28 21 -28 4z"/>
<path d="M1942 4086 c1 -10 8 -17 13 -17 15 1 12 24 -3 29 -9 3 -13 -2 -10
-12z"/>
<path d="M1865 4041 c-7 -12 12 -24 25 -16 11 7 4 25 -10 25 -5 0 -11 -4 -15
-9z"/>
<path d="M1832 3968 c6 -18 28 -21 28 -4 0 9 -7 16 -16 16 -9 0 -14 -5 -12
-12z"/>
<path d="M1760 3916 c0 -9 7 -16 16 -16 9 0 14 5 12 12 -6 18 -28 21 -28 4z"/>
<path d="M1706 3891 c-4 -7 -5 -15 -2 -18 9 -9 19 4 14 18 -4 11 -6 11 -12 0z"/>
<path d="M1775 3840 c-3 -6 1 -13 10 -16 19 -8 30 0 20 15 -8 14 -22 14 -30 1z"/>
<path d="M1622 3808 c5 -15 28 -18 29 -3 0 6 -7 12 -17 13 -10 3 -15 -1 -12
-10z"/>
<path d="M1690 3806 c0 -9 7 -16 16 -16 9 0 14 5 12 12 -6 18 -28 21 -28 4z"/>
<path d="M1580 3766 c0 -9 7 -16 16 -16 9 0 14 5 12 12 -6 18 -28 21 -28 4z"/>
<path d="M1646 3731 c-3 -5 1 -14 8 -20 16 -13 32 2 21 19 -8 12 -22 13 -29 1z"/>
<path d="M1502 3689 c2 -6 8 -10 13 -10 5 0 11 4 13 10 2 6 -4 11 -13 11 -9 0
-15 -5 -13 -11z"/>
<path d="M1575 3681 c-7 -12 12 -24 25 -16 11 7 4 25 -10 25 -5 0 -11 -4 -15
-9z"/>
<path d="M1402 3628 c6 -18 28 -21 28 -4 0 9 -7 16 -16 16 -9 0 -14 -5 -12
-12z"/>
<path d="M1472 3628 c6 -18 28 -21 28 -4 0 9 -7 16 -16 16 -9 0 -14 -5 -12
-12z"/>
<path d="M1545 3620 c-7 -12 2 -30 16 -30 12 0 12 27 0 35 -5 3 -12 1 -16 -5z"/>
<path d="M1352 3588 c6 -18 28 -21 28 -4 0 9 -7 16 -16 16 -9 0 -14 -5 -12
-12z"/>
<path d="M1285 3570 c-3 -5 1 -10 9 -10 9 0 16 5 16 10 0 6 -4 10 -9 10 -6 0
-13 -4 -16 -10z"/>
<path d="M1470 3555 c0 -8 7 -15 15 -15 8 0 15 7 15 15 0 8 -7 15 -15 15 -8 0
-15 -7 -15 -15z"/>
<path d="M1402 3528 c6 -18 28 -21 28 -4 0 9 -7 16 -16 16 -9 0 -14 -5 -12
-12z"/>
<path d="M1535 3530 c-9 -15 -1 -23 21 -18 15 3 16 4 1 16 -11 9 -17 10 -22 2z"/>
<path d="M1330 3516 c0 -9 7 -16 16 -16 9 0 14 5 12 12 -6 18 -28 21 -28 4z"/>
<path d="M1232 3478 c6 -18 28 -21 28 -4 0 9 -7 16 -16 16 -9 0 -14 -5 -12
-12z"/>
<path d="M1490 3476 c0 -9 7 -16 16 -16 9 0 14 5 12 12 -6 18 -28 21 -28 4z"/>
<path d="M1335 3460 c-9 -15 -1 -23 21 -18 15 3 16 4 1 16 -11 9 -17 10 -22 2z"/>
<path d="M1400 3445 c0 -8 7 -15 15 -15 8 0 15 7 15 15 0 8 -7 15 -15 15 -8 0
-15 -7 -15 -15z"/>
<path d="M1162 3416 c1 -10 8 -17 13 -17 15 1 12 24 -3 29 -9 3 -13 -2 -10
-12z"/>
<path d="M1225 3410 c-10 -16 7 -31 23 -21 10 6 10 10 -2 20 -10 9 -16 9 -21
1z"/>
<path d="M1290 3404 c0 -17 22 -14 28 4 2 7 -3 12 -12 12 -9 0 -16 -7 -16 -16z"/>
<path d="M1090 3385 c0 -8 7 -15 15 -15 8 0 15 7 15 15 0 8 -7 15 -15 15 -8 0
-15 -7 -15 -15z"/>
<path d="M1430 3375 c0 -9 5 -15 11 -13 6 2 11 8 11 13 0 5 -5 11 -11 13 -6 2
-11 -4 -11 -13z"/>
<path d="M1355 3370 c-3 -6 1 -13 10 -16 19 -8 30 0 20 15 -8 14 -22 14 -30 1z"/>
<path d="M1212 3336 c1 -10 8 -17 13 -17 15 1 12 24 -3 29 -9 3 -13 -2 -10
-12z"/>
<path d="M1123 3328 c2 -7 10 -13 17 -13 7 0 15 6 18 13 2 7 -5 12 -18 12 -13
0 -20 -5 -17 -12z"/>
<path d="M1292 3319 c2 -6 8 -10 13 -10 5 0 11 4 13 10 2 6 -4 11 -13 11 -9 0
-15 -5 -13 -11z"/>
<path d="M1357 3293 c-12 -11 -8 -23 8 -23 8 0 15 7 15 15 0 16 -12 20 -23 8z"/>
<path d="M1185 3280 c-7 -12 2 -30 16 -30 12 0 12 27 0 35 -5 3 -12 1 -16 -5z"/>
<path d="M1112 3269 c2 -6 8 -10 13 -10 5 0 11 4 13 10 2 6 -4 11 -13 11 -9 0
-15 -5 -13 -11z"/>
<path d="M1250 3256 c0 -9 7 -16 16 -16 9 0 14 5 12 12 -6 18 -28 21 -28 4z"/>
<path d="M1065 3240 c-7 -12 2 -30 16 -30 12 0 12 27 0 35 -5 3 -12 1 -16 -5z"/>
<path d="M1180 3195 c0 -8 7 -15 15 -15 8 0 15 7 15 15 0 8 -7 15 -15 15 -8 0
-15 -7 -15 -15z"/>
<path d="M1312 3198 c6 -18 28 -21 28 -4 0 9 -7 16 -16 16 -9 0 -14 -5 -12
-12z"/>
<path d="M1112 3168 c6 -18 28 -21 28 -4 0 9 -7 16 -16 16 -9 0 -14 -5 -12
-12z"/>
<path d="M1246 3172 c-3 -6 -1 -14 5 -17 15 -10 25 3 12 16 -7 7 -13 7 -17 1z"/>
<path d="M1040 3155 c0 -8 7 -15 15 -15 8 0 15 7 15 15 0 8 -7 15 -15 15 -8 0
-15 -7 -15 -15z"/>
<path d="M1196 3115 c4 -9 11 -14 16 -13 15 5 11 23 -6 26 -11 2 -14 -2 -10
-13z"/>
<path d="M1047 3103 c-12 -11 -8 -23 8 -23 8 0 15 7 15 15 0 16 -12 20 -23 8z"/>
<path d="M1110 3085 c0 -8 7 -15 15 -15 8 0 15 7 15 15 0 8 -7 15 -15 15 -8 0
-15 -7 -15 -15z"/>
<path d="M995 3061 c-6 -11 20 -33 28 -24 4 3 7 10 7 14 0 11 -29 19 -35 10z"/>
<path d="M1210 3046 c0 -9 7 -16 16 -16 9 0 14 5 12 12 -6 18 -28 21 -28 4z"/>
<path d="M1140 3015 c0 -9 5 -15 11 -13 6 2 11 8 11 13 0 5 -5 11 -11 13 -6 2
-11 -4 -11 -13z"/>
<path d="M1070 3005 c0 -9 5 -15 11 -13 6 2 11 8 11 13 0 5 -5 11 -11 13 -6 2
-11 -4 -11 -13z"/>
<path d="M915 2980 c-3 -6 1 -13 10 -16 19 -8 30 0 20 15 -8 14 -22 14 -30 1z"/>
<path d="M996 2971 c-3 -5 1 -14 8 -20 16 -13 32 2 21 19 -8 12 -22 13 -29 1z"/>
<path d="M1062 2928 c6 -18 28 -21 28 -4 0 9 -7 16 -16 16 -9 0 -14 -5 -12
-12z"/>
<path d="M1150 2926 c0 -9 7 -16 16 -16 9 0 14 5 12 12 -6 18 -28 21 -28 4z"/>
<path d="M897 2923 c-12 -11 -8 -23 8 -23 8 0 15 7 15 15 0 16 -12 20 -23 8z"/>
<path d="M960 2895 c0 -8 7 -15 15 -15 8 0 15 7 15 15 0 8 -7 15 -15 15 -8 0
-15 -7 -15 -15z"/>
<path d="M1090 2865 c0 -8 7 -15 15 -15 8 0 15 7 15 15 0 8 -7 15 -15 15 -8 0
-15 -7 -15 -15z"/>
<path d="M896 2853 c-12 -12 -6 -33 9 -33 8 0 15 6 15 14 0 17 -14 28 -24 19z"/>
<path d="M1022 2838 c6 -18 28 -21 28 -4 0 9 -7 16 -16 16 -9 0 -14 -5 -12
-12z"/>
<path d="M950 2811 c0 -14 18 -23 31 -15 8 4 7 9 -2 15 -18 11 -29 11 -29 0z"/>
<path d="M902 2758 c5 -15 28 -18 29 -3 0 6 -7 12 -17 13 -10 3 -15 -1 -12
-10z"/>
<path d="M824 2736 c-8 -22 3 -33 18 -18 9 9 9 15 0 24 -9 9 -13 7 -18 -6z"/>
<path d="M1030 2330 c0 -5 7 -10 15 -10 8 0 15 5 15 10 0 6 -7 10 -15 10 -8 0
-15 -4 -15 -10z"/>
<path d="M1155 2320 c-4 -6 -3 -16 3 -22 6 -6 12 -6 17 2 4 6 3 16 -3 22 -6 6
-12 6 -17 -2z"/>
<path d="M1220 2320 c0 -5 5 -10 10 -10 6 0 10 5 10 10 0 6 -4 10 -10 10 -5 0
-10 -4 -10 -10z"/>
<path d="M1290 2291 c0 -6 5 -13 10 -16 6 -3 10 1 10 9 0 9 -4 16 -10 16 -5 0
-10 -4 -10 -9z"/>
<path d="M1086 2265 c-3 -9 0 -15 9 -15 8 0 15 7 15 15 0 8 -4 15 -9 15 -5 0
-11 -7 -15 -15z"/>
<path d="M1145 2241 c-6 -11 9 -23 19 -14 9 9 7 23 -3 23 -6 0 -12 -4 -16 -9z"/>
<path d="M3531 4398 c-5 -18 -20 -71 -31 -118 -127 -508 -462 -1043 -1004
-1600 -261 -268 -494 -458 -709 -580 -44 -24 -61 -30 -70 -21 -16 16 -27 13
-27 -8 0 -14 -24 -32 -85 -65 -47 -25 -92 -43 -100 -39 -9 3 -15 -1 -15 -11 0
-13 11 -15 68 -12 37 3 77 8 90 11 16 6 22 3 22 -9 0 -9 7 -16 15 -16 18 0 20
27 3 33 -18 6 59 37 85 34 13 -1 22 4 22 13 0 9 10 15 25 15 14 0 26 7 28 15
2 8 44 40 93 70 373 228 812 649 1130 1085 305 418 462 766 504 1123 12 96
-20 154 -44 80z"/>
<path d="M1612 2219 c2 -6 8 -10 13 -10 5 0 11 4 13 10 2 6 -4 11 -13 11 -9 0
-15 -5 -13 -11z"/>
<path d="M1550 2184 c0 -9 5 -14 12 -12 18 6 21 28 4 28 -9 0 -16 -7 -16 -16z"/>
<path d="M1670 2190 c0 -5 7 -10 16 -10 8 0 12 5 9 10 -3 6 -10 10 -16 10 -5
0 -9 -4 -9 -10z"/>
<path d="M1482 2169 c2 -6 8 -10 13 -10 5 0 11 4 13 10 2 6 -4 11 -13 11 -9 0
-15 -5 -13 -11z"/>
<path d="M1626 2153 c-11 -11 -6 -23 9 -23 8 0 15 4 15 9 0 13 -16 22 -24 14z"/>
<path d="M1720 2140 c0 -5 7 -10 16 -10 8 0 12 5 9 10 -3 6 -10 10 -16 10 -5
0 -9 -4 -9 -10z"/>
<path d="M1392 2129 c2 -6 8 -10 13 -10 5 0 11 4 13 10 2 6 -4 11 -13 11 -9 0
-15 -5 -13 -11z"/>
<path d="M1482 2109 c2 -6 8 -10 13 -10 5 0 11 4 13 10 2 6 -4 11 -13 11 -9 0
-15 -5 -13 -11z"/>
<path d="M1542 2109 c2 -6 8 -10 13 -10 5 0 11 4 13 10 2 6 -4 11 -13 11 -9 0
-15 -5 -13 -11z"/>
<path d="M1630 2075 c0 -8 5 -15 10 -15 6 0 10 7 10 15 0 8 -4 15 -10 15 -5 0
-10 -7 -10 -15z"/>
<path d="M1440 2065 c0 -8 5 -15 10 -15 6 0 10 7 10 15 0 8 -4 15 -10 15 -5 0
-10 -7 -10 -15z"/>
<path d="M1560 2045 c0 -9 5 -15 11 -13 6 2 11 8 11 13 0 5 -5 11 -11 13 -6 2
-11 -4 -11 -13z"/>
<path d="M1500 2036 c0 -9 5 -16 10 -16 6 0 10 4 10 9 0 6 -4 13 -10 16 -5 3
-10 -1 -10 -9z"/>
<path d="M1900 2000 c0 -5 5 -10 11 -10 5 0 7 5 4 10 -3 6 -8 10 -11 10 -2 0
-4 -4 -4 -10z"/>
<path d="M1850 1960 c0 -5 7 -10 15 -10 8 0 15 5 15 10 0 6 -7 10 -15 10 -8 0
-15 -4 -15 -10z"/>
<path d="M1786 1953 c-11 -11 -6 -23 9 -23 8 0 15 4 15 9 0 13 -16 22 -24 14z"/>
<path d="M1956 1941 c-3 -5 1 -11 9 -15 9 -3 15 0 15 9 0 16 -16 20 -24 6z"/>
<path d="M1626 1933 c-11 -11 -6 -23 9 -23 8 0 15 4 15 9 0 13 -16 22 -24 14z"/>
<path d="M1730 1915 c0 -8 5 -15 10 -15 6 0 10 7 10 15 0 8 -4 15 -10 15 -5 0
-10 -7 -10 -15z"/>
<path d="M1895 1911 c-6 -11 9 -23 19 -14 9 9 7 23 -3 23 -6 0 -12 -4 -16 -9z"/>
<path d="M1826 1891 c-3 -5 1 -11 9 -15 9 -3 15 0 15 9 0 16 -16 20 -24 6z"/>
<path d="M1577 1884 c-8 -8 1 -24 14 -24 5 0 9 7 9 15 0 15 -12 20 -23 9z"/>
<path d="M1676 1883 c-11 -11 -6 -23 9 -23 8 0 15 4 15 9 0 13 -16 22 -24 14z"/>
<path d="M1740 1844 c0 -8 5 -12 10 -9 6 3 10 10 10 16 0 5 -4 9 -10 9 -5 0
-10 -7 -10 -16z"/>
<path d="M2222 4108 c5 -15 28 -18 29 -3 0 6 -7 12 -17 13 -10 3 -15 -1 -12
-10z"/>
<path d="M2170 4035 c0 -8 7 -15 15 -15 8 0 15 7 15 15 0 8 -7 15 -15 15 -8 0
-15 -7 -15 -15z"/>
<path d="M2140 3975 c0 -8 7 -15 15 -15 8 0 15 7 15 15 0 8 -7 15 -15 15 -8 0
-15 -7 -15 -15z"/>
<path d="M2080 3955 c0 -8 7 -15 15 -15 8 0 15 7 15 15 0 8 -7 15 -15 15 -8 0
-15 -7 -15 -15z"/>
<path d="M2035 3850 c-8 -13 4 -32 16 -25 12 8 12 35 0 35 -6 0 -13 -4 -16
-10z"/>
<path d="M1995 3790 c-3 -6 1 -13 10 -16 19 -8 30 0 20 15 -8 14 -22 14 -30 1z"/>
<path d="M1932 3748 c5 -15 28 -18 29 -3 0 6 -7 12 -17 13 -10 3 -15 -1 -12
-10z"/>
<path d="M1882 3678 c6 -18 28 -21 28 -4 0 9 -7 16 -16 16 -9 0 -14 -5 -12
-12z"/>
<path d="M1850 3615 c0 -8 7 -15 15 -15 8 0 15 7 15 15 0 8 -7 15 -15 15 -8 0
-15 -7 -15 -15z"/>
<path d="M1790 3595 c0 -8 7 -15 15 -15 8 0 15 7 15 15 0 8 -7 15 -15 15 -8 0
-15 -7 -15 -15z"/>
<path d="M1747 3493 c-12 -11 -8 -23 8 -23 8 0 15 7 15 15 0 16 -12 20 -23 8z"/>
<path d="M1645 3400 c-10 -17 12 -37 25 -24 8 8 6 15 -4 23 -10 9 -16 9 -21 1z"/>
<path d="M1592 3324 c3 -17 21 -21 26 -6 1 5 -4 12 -13 16 -11 4 -15 1 -13
-10z"/>
<path d="M4051 3993 c-16 -54 -43 -149 -61 -211 -127 -458 -358 -866 -735
-1297 -204 -234 -532 -528 -746 -669 -45 -29 -62 -36 -84 -30 -24 6 -26 4 -21
-13 5 -16 -1 -25 -29 -42 -30 -18 -37 -18 -41 -6 -4 8 -10 15 -15 15 -14 0
-11 -28 3 -32 7 -3 -48 -35 -122 -72 -74 -37 -139 -72 -145 -78 -7 -7 8 -9 48
-6 32 3 60 1 63 -4 8 -13 34 -9 34 5 0 15 124 69 156 68 14 0 24 7 27 20 5 17
11 20 32 17 21 -4 28 -1 35 18 10 25 25 31 35 14 9 -14 25 -2 25 18 0 10 32
37 77 67 359 233 705 560 963 910 258 350 435 720 511 1068 19 89 38 337 26
337 -4 0 -20 -44 -36 -97z"/>
<path d="M2230 1830 c0 -5 7 -10 15 -10 8 0 15 5 15 10 0 6 -7 10 -15 10 -8 0
-15 -4 -15 -10z"/>
<path d="M2100 1794 c0 -9 5 -14 12 -12 18 6 21 28 4 28 -9 0 -16 -7 -16 -16z"/>
<path d="M2337 1794 c-8 -8 1 -24 14 -24 5 0 9 7 9 15 0 15 -12 20 -23 9z"/>
<path d="M2260 1780 c0 -5 7 -10 15 -10 8 0 15 5 15 10 0 6 -7 10 -15 10 -8 0
-15 -4 -15 -10z"/>
<path d="M2176 1773 c-11 -11 -6 -23 9 -23 8 0 15 4 15 9 0 13 -16 22 -24 14z"/>
<path d="M1976 1742 c-3 -6 -1 -14 5 -17 15 -10 25 3 12 16 -7 7 -13 7 -17 1z"/>
<path d="M2047 1734 c-8 -8 1 -24 14 -24 5 0 9 7 9 15 0 15 -12 20 -23 9z"/>
<path d="M2110 1726 c0 -9 7 -16 16 -16 17 0 14 22 -4 28 -7 2 -12 -3 -12 -12z"/>
<path d="M2246 1732 c-3 -6 -1 -14 5 -17 15 -10 25 3 12 16 -7 7 -13 7 -17 1z"/>
<path d="M1910 1685 c0 -9 5 -15 11 -13 6 2 11 8 11 13 0 5 -5 11 -11 13 -6 2
-11 -4 -11 -13z"/>
<path d="M2195 1680 c3 -5 10 -10 16 -10 5 0 9 5 9 10 0 6 -7 10 -16 10 -8 0
-12 -4 -9 -10z"/>
<path d="M2020 1665 c0 -9 5 -15 11 -13 6 2 11 8 11 13 0 5 -5 11 -11 13 -6 2
-11 -4 -11 -13z"/>
<path d="M2136 1673 c-11 -11 -6 -23 9 -23 8 0 15 4 15 9 0 13 -16 22 -24 14z"/>
<path d="M2550 1670 c0 -5 5 -10 10 -10 6 0 10 5 10 10 0 6 -4 10 -10 10 -5 0
-10 -4 -10 -10z"/>
<path d="M1966 1653 c-11 -11 -6 -23 9 -23 8 0 15 4 15 9 0 13 -16 22 -24 14z"/>
<path d="M2072 1639 c2 -6 8 -10 13 -10 5 0 11 4 13 10 2 6 -4 11 -13 11 -9 0
-15 -5 -13 -11z"/>
<path d="M2477 1634 c-8 -8 1 -24 14 -24 5 0 9 7 9 15 0 15 -12 20 -23 9z"/>
<path d="M2545 1620 c-4 -6 -3 -16 3 -22 6 -6 12 -6 17 2 4 6 3 16 -3 22 -6 6
-12 6 -17 -2z"/>
<path d="M2017 1604 c-8 -8 1 -24 14 -24 5 0 9 7 9 15 0 15 -12 20 -23 9z"/>
<path d="M2310 1585 c0 -9 5 -15 11 -13 6 2 11 8 11 13 0 5 -5 11 -11 13 -6 2
-11 -4 -11 -13z"/>
<path d="M2410 1585 c0 -8 5 -15 10 -15 6 0 10 7 10 15 0 8 -4 15 -10 15 -5 0
-10 -7 -10 -15z"/>
<path d="M2230 1555 c0 -9 5 -15 11 -13 6 2 11 8 11 13 0 5 -5 11 -11 13 -6 2
-11 -4 -11 -13z"/>
<path d="M2315 1521 c-6 -11 9 -23 19 -14 9 9 7 23 -3 23 -6 0 -12 -4 -16 -9z"/>
<path d="M2377 1524 c-8 -8 1 -24 14 -24 5 0 9 7 9 15 0 15 -12 20 -23 9z"/>
<path d="M2125 1510 c-3 -5 1 -10 9 -10 9 0 16 5 16 10 0 6 -4 10 -9 10 -6 0
-13 -4 -16 -10z"/>
<path d="M2070 1494 c0 -8 5 -12 10 -9 6 3 10 10 10 16 0 5 -4 9 -10 9 -5 0
-10 -7 -10 -16z"/>
<path d="M2252 1491 c2 -7 7 -12 11 -12 12 1 9 15 -3 20 -7 2 -11 -2 -8 -8z"/>
<path d="M2187 1484 c-8 -8 1 -24 14 -24 5 0 9 7 9 15 0 15 -12 20 -23 9z"/>
<path d="M2650 1450 c0 -5 7 -10 15 -10 8 0 15 5 15 10 0 6 -7 10 -15 10 -8 0
-15 -4 -15 -10z"/>
<path d="M2712 1439 c2 -6 8 -10 13 -10 5 0 11 4 13 10 2 6 -4 11 -13 11 -9 0
-15 -5 -13 -11z"/>
<path d="M2830 1420 c0 -5 7 -10 15 -10 8 0 15 5 15 10 0 6 -7 10 -15 10 -8 0
-15 -4 -15 -10z"/>
<path d="M2540 1405 c0 -9 5 -15 11 -13 6 2 11 8 11 13 0 5 -5 11 -11 13 -6 2
-11 -4 -11 -13z"/>
<path d="M2646 1393 c-11 -11 -6 -23 9 -23 8 0 15 4 15 9 0 13 -16 22 -24 14z"/>
<path d="M2762 1389 c2 -6 8 -10 13 -10 5 0 11 4 13 10 2 6 -4 11 -13 11 -9 0
-15 -5 -13 -11z"/>
<path d="M2700 1356 c0 -9 7 -16 16 -16 17 0 14 22 -4 28 -7 2 -12 -3 -12 -12z"/>
<path d="M2580 1350 c0 -5 7 -10 15 -10 8 0 15 5 15 10 0 6 -7 10 -15 10 -8 0
-15 -4 -15 -10z"/>
<path d="M2510 1330 c0 -5 7 -10 15 -10 8 0 15 5 15 10 0 6 -7 10 -15 10 -8 0
-15 -4 -15 -10z"/>
<path d="M2657 1314 c-8 -8 1 -24 14 -24 5 0 9 7 9 15 0 15 -12 20 -23 9z"/>
<path d="M2426 1302 c-3 -6 -1 -14 5 -17 15 -10 25 3 12 16 -7 7 -13 7 -17 1z"/>
<path d="M2517 1284 c-8 -8 1 -24 14 -24 5 0 9 7 9 15 0 15 -12 20 -23 9z"/>
<path d="M2576 1282 c-3 -6 -1 -14 5 -17 15 -10 25 3 12 16 -7 7 -13 7 -17 1z"/>
<path d="M2470 1230 c0 -5 4 -10 9 -10 6 0 13 5 16 10 3 6 -1 10 -9 10 -9 0
-16 -4 -16 -10z"/>
<path d="M4808 3445 c-3 -6 -18 -71 -33 -145 -70 -348 -230 -737 -433 -1050
-231 -355 -575 -706 -918 -936 -56 -37 -101 -60 -111 -58 -12 3 -21 -3 -28
-18 -5 -13 -19 -25 -30 -27 -11 -2 -24 -9 -30 -16 -17 -22 -192 -118 -284
-155 -47 -20 -85 -40 -83 -45 4 -19 67 -13 142 12 57 19 78 23 92 14 25 -16
28 -14 28 13 0 27 26 42 46 25 11 -9 16 -6 23 14 11 27 33 39 57 30 10 -4 17
1 20 15 3 11 24 28 47 38 23 10 48 24 55 32 8 7 28 20 45 29 44 22 166 105
262 176 315 236 636 609 854 989 168 295 271 589 293 843 11 123 3 246 -14
220z"/>
<path d="M3145 1350 c-3 -5 1 -10 10 -10 9 0 13 5 10 10 -3 6 -8 10 -10 10 -2
0 -7 -4 -10 -10z"/>
<path d="M3100 1304 c0 -9 5 -14 12 -12 18 6 21 28 4 28 -9 0 -16 -7 -16 -16z"/>
<path d="M3046 1303 c-11 -11 -6 -23 9 -23 8 0 15 4 15 9 0 13 -16 22 -24 14z"/>
<path d="M3225 1291 c-6 -11 9 -23 19 -14 9 9 7 23 -3 23 -6 0 -12 -4 -16 -9z"/>
<path d="M3160 1270 c0 -5 7 -10 15 -10 8 0 15 5 15 10 0 6 -7 10 -15 10 -8 0
-15 -4 -15 -10z"/>
<path d="M2956 1231 c-4 -7 -5 -15 -2 -18 9 -9 19 4 14 18 -4 11 -6 11 -12 0z"/>
<path d="M3020 1230 c0 -5 7 -10 15 -10 8 0 15 5 15 10 0 6 -7 10 -15 10 -8 0
-15 -4 -15 -10z"/>
<path d="M3097 1233 c-12 -11 -8 -23 8 -23 8 0 15 7 15 15 0 16 -12 20 -23 8z"/>
<path d="M3155 1199 c-10 -15 3 -25 16 -12 7 7 7 13 1 17 -6 3 -14 1 -17 -5z"/>
<path d="M3455 1189 c-10 -15 3 -25 16 -12 7 7 7 13 1 17 -6 3 -14 1 -17 -5z"/>
<path d="M2800 1165 c0 -9 5 -15 11 -13 6 2 11 8 11 13 0 5 -5 11 -11 13 -6 2
-11 -4 -11 -13z"/>
<path d="M2932 1171 c2 -7 7 -12 11 -12 12 1 9 15 -3 20 -7 2 -11 -2 -8 -8z"/>
<path d="M2995 1170 c-3 -5 1 -10 9 -10 9 0 16 5 16 10 0 6 -4 10 -9 10 -6 0
-13 -4 -16 -10z"/>
<path d="M3060 1155 c0 -9 5 -15 11 -13 6 2 11 8 11 13 0 5 -5 11 -11 13 -6 2
-11 -4 -11 -13z"/>
<path d="M3390 1156 c0 -9 7 -16 16 -16 17 0 14 22 -4 28 -7 2 -12 -3 -12 -12z"/>
<path d="M3556 1152 c-3 -6 -1 -14 5 -17 15 -10 25 3 12 16 -7 7 -13 7 -17 1z"/>
<path d="M2887 1134 c-8 -8 1 -24 14 -24 5 0 9 7 9 15 0 15 -12 20 -23 9z"/>
<path d="M3490 1125 c0 -9 5 -15 11 -13 6 2 11 8 11 13 0 5 -5 11 -11 13 -6 2
-11 -4 -11 -13z"/>
<path d="M3336 1123 c-11 -11 -6 -23 9 -23 8 0 15 4 15 9 0 13 -16 22 -24 14z"/>
<path d="M2702 1109 c2 -6 8 -10 13 -10 5 0 11 4 13 10 2 6 -4 11 -13 11 -9 0
-15 -5 -13 -11z"/>
<path d="M2817 1114 c-8 -8 1 -24 14 -24 5 0 9 7 9 15 0 15 -12 20 -23 9z"/>
<path d="M2996 1111 c-4 -7 -5 -15 -2 -18 9 -9 19 4 14 18 -4 11 -6 11 -12 0z"/>
<path d="M2650 1086 c0 -9 7 -16 16 -16 17 0 14 22 -4 28 -7 2 -12 -3 -12 -12z"/>
<path d="M3400 1084 c0 -9 5 -14 12 -12 18 6 21 28 4 28 -9 0 -16 -7 -16 -16z"/>
<path d="M2760 1080 c0 -5 7 -10 15 -10 8 0 15 5 15 10 0 6 -7 10 -15 10 -8 0
-15 -4 -15 -10z"/>
<path d="M2930 1075 c-10 -12 -10 -15 4 -15 9 0 16 7 16 15 0 8 -2 15 -4 15
-2 0 -9 -7 -16 -15z"/>
<path d="M3290 1075 c0 -9 5 -15 11 -13 6 2 11 8 11 13 0 5 -5 11 -11 13 -6 2
-11 -4 -11 -13z"/>
<path d="M2866 1061 c-4 -7 -5 -15 -2 -18 9 -9 19 4 14 18 -4 11 -6 11 -12 0z"/>
<path d="M3236 1063 c-11 -11 -6 -23 9 -23 8 0 15 4 15 9 0 13 -16 22 -24 14z"/>
<path d="M2707 1044 c-8 -8 1 -24 14 -24 5 0 9 7 9 15 0 15 -12 20 -23 9z"/>
<path d="M3330 1025 c0 -9 5 -15 11 -13 6 2 11 8 11 13 0 5 -5 11 -11 13 -6 2
-11 -4 -11 -13z"/>
<path d="M2770 1015 c0 -9 5 -15 11 -13 6 2 11 8 11 13 0 5 -5 11 -11 13 -6 2
-11 -4 -11 -13z"/>
<path d="M3387 1024 c-8 -8 1 -24 14 -24 5 0 9 7 9 15 0 15 -12 20 -23 9z"/>
<path d="M3192 999 c2 -6 8 -10 13 -10 5 0 11 4 13 10 2 6 -4 11 -13 11 -9 0
-15 -5 -13 -11z"/>
<path d="M3267 1003 c-12 -11 -8 -23 8 -23 8 0 15 7 15 15 0 16 -12 20 -23 8z"/>
<path d="M3005 960 c-3 -5 1 -10 9 -10 9 0 16 5 16 10 0 6 -4 10 -9 10 -6 0
-13 -4 -16 -10z"/>
<path d="M3062 959 c2 -6 8 -10 13 -10 5 0 11 4 13 10 2 6 -4 11 -13 11 -9 0
-15 -5 -13 -11z"/>
<path d="M3132 959 c2 -6 8 -10 13 -10 5 0 11 4 13 10 2 6 -4 11 -13 11 -9 0
-15 -5 -13 -11z"/>
<path d="M2940 930 c0 -5 5 -10 10 -10 6 0 10 5 10 10 0 6 -4 10 -10 10 -5 0
-10 -4 -10 -10z"/>
<path d="M3207 933 c-12 -11 -8 -23 8 -23 8 0 15 7 15 15 0 16 -12 20 -23 8z"/>
<path d="M3007 904 c-8 -8 1 -24 14 -24 5 0 9 7 9 15 0 15 -12 20 -23 9z"/>
<path d="M3085 899 c-10 -15 3 -25 16 -12 7 7 7 13 1 17 -6 3 -14 1 -17 -5z"/>
<path d="M3142 889 c2 -6 8 -10 13 -10 5 0 11 4 13 10 2 6 -4 11 -13 11 -9 0
-15 -5 -13 -11z"/>
<path d="M5282 2975 c-6 -22 -20 -89 -32 -150 -30 -159 -62 -259 -130 -410 -5
-11 -15 -36 -24 -55 -44 -104 -64 -146 -120 -260 -114 -229 -223 -396 -381
-586 -182 -218 -415 -432 -620 -569 -171 -114 -386 -228 -413 -217 -8 3 -19
-2 -24 -11 -11 -20 -81 -40 -108 -32 -13 4 -20 2 -20 -7 0 -7 -23 -21 -51 -31
-37 -14 -49 -23 -47 -35 3 -14 14 -16 68 -14 36 2 71 9 79 15 10 9 16 7 26 -6
16 -23 23 -21 27 5 2 17 10 23 30 23 15 0 33 7 40 16 19 23 45 30 52 13 8 -21
26 -17 26 6 0 14 12 25 38 36 20 9 45 21 55 26 10 5 27 6 37 3 13 -4 20 0 24
13 8 25 51 44 82 36 19 -5 24 -2 24 13 0 14 28 37 98 81 333 208 710 607 939
998 137 233 264 542 313 761 28 131 47 325 33 355 -10 22 -11 21 -21 -17z"/>
<path d="M3710 964 c0 -9 5 -14 12 -12 18 6 21 28 4 28 -9 0 -16 -7 -16 -16z"/>
<path d="M3770 960 c0 -5 7 -10 16 -10 8 0 12 5 9 10 -3 6 -10 10 -16 10 -5 0
-9 -4 -9 -10z"/>
<path d="M3680 905 c0 -9 5 -15 11 -13 6 2 11 8 11 13 0 5 -5 11 -11 13 -6 2
-11 -4 -11 -13z"/>
<path d="M3796 913 c-11 -11 -6 -23 9 -23 8 0 15 4 15 9 0 13 -16 22 -24 14z"/>
<path d="M3627 894 c-8 -8 1 -24 14 -24 5 0 9 7 9 15 0 15 -12 20 -23 9z"/>
<path d="M3737 884 c-8 -8 1 -24 14 -24 5 0 9 7 9 15 0 15 -12 20 -23 9z"/>
<path d="M3520 860 c0 -5 5 -10 10 -10 6 0 10 5 10 10 0 6 -4 10 -10 10 -5 0
-10 -4 -10 -10z"/>
<path d="M3456 843 c-11 -11 -6 -23 9 -23 8 0 15 4 15 9 0 13 -16 22 -24 14z"/>
<path d="M3587 844 c-8 -8 1 -24 14 -24 5 0 9 7 9 15 0 15 -12 20 -23 9z"/>
<path d="M3680 835 c0 -9 5 -15 11 -13 6 2 11 8 11 13 0 5 -5 11 -11 13 -6 2
-11 -4 -11 -13z"/>
<path d="M3970 820 c0 -5 7 -10 16 -10 8 0 12 5 9 10 -3 6 -10 10 -16 10 -5 0
-9 -4 -9 -10z"/>
<path d="M3390 795 c0 -9 5 -15 11 -13 6 2 11 8 11 13 0 5 -5 11 -11 13 -6 2
-11 -4 -11 -13z"/>
<path d="M3635 799 c-4 -6 -5 -13 -2 -16 7 -7 27 6 27 18 0 12 -17 12 -25 -2z"/>
<path d="M3510 791 c0 -6 5 -13 10 -16 6 -3 10 1 10 9 0 9 -4 16 -10 16 -5 0
-10 -4 -10 -9z"/>
<path d="M3576 782 c-3 -6 -1 -14 5 -17 15 -10 25 3 12 16 -7 7 -13 7 -17 1z"/>
<path d="M3980 755 c0 -8 5 -15 10 -15 6 0 10 7 10 15 0 8 -4 15 -10 15 -5 0
-10 -7 -10 -15z"/>
<path d="M4040 755 c0 -9 5 -15 11 -13 6 2 11 8 11 13 0 5 -5 11 -11 13 -6 2
-11 -4 -11 -13z"/>
<path d="M4110 755 c0 -9 5 -15 11 -13 6 2 11 8 11 13 0 5 -5 11 -11 13 -6 2
-11 -4 -11 -13z"/>
<path d="M3340 750 c0 -5 7 -10 15 -10 8 0 15 5 15 10 0 6 -7 10 -15 10 -8 0
-15 -4 -15 -10z"/>
<path d="M3442 749 c2 -6 8 -10 13 -10 5 0 11 4 13 10 2 6 -4 11 -13 11 -9 0
-15 -5 -13 -11z"/>
<path d="M4265 740 c-3 -5 1 -10 9 -10 9 0 16 5 16 10 0 6 -4 10 -9 10 -6 0
-13 -4 -16 -10z"/>
<path d="M4340 740 c0 -5 4 -10 9 -10 6 0 13 5 16 10 3 6 -1 10 -9 10 -9 0
-16 -4 -16 -10z"/>
<path d="M4412 739 c2 -6 8 -10 13 -10 5 0 11 4 13 10 2 6 -4 11 -13 11 -9 0
-15 -5 -13 -11z"/>
<path d="M3912 729 c2 -6 8 -10 13 -10 5 0 11 4 13 10 2 6 -4 11 -13 11 -9 0
-15 -5 -13 -11z"/>
<path d="M3202 719 c2 -6 8 -10 13 -10 5 0 11 4 13 10 2 6 -4 11 -13 11 -9 0
-15 -5 -13 -11z"/>
<path d="M3262 719 c2 -6 8 -10 13 -10 5 0 11 4 13 10 2 6 -4 11 -13 11 -9 0
-15 -5 -13 -11z"/>
<path d="M3850 715 c0 -9 5 -15 11 -13 6 2 11 8 11 13 0 5 -5 11 -11 13 -6 2
-11 -4 -11 -13z"/>
<path d="M4180 720 c0 -5 4 -10 9 -10 6 0 13 5 16 10 3 6 -1 10 -9 10 -9 0
-16 -4 -16 -10z"/>
<path d="M3986 703 c-11 -11 -6 -23 9 -23 8 0 15 4 15 9 0 13 -16 22 -24 14z"/>
<path d="M3356 691 c-4 -7 -5 -15 -2 -18 9 -9 19 4 14 18 -4 11 -6 11 -12 0z"/>
<path d="M4052 688 c6 -18 28 -21 28 -4 0 9 -7 16 -16 16 -9 0 -14 -5 -12 -12z"/>
<path d="M4120 685 c0 -8 5 -15 10 -15 6 0 10 7 10 15 0 8 -4 15 -10 15 -5 0
-10 -7 -10 -15z"/>
<path d="M4250 685 c0 -16 16 -20 24 -6 3 5 -1 11 -9 15 -9 3 -15 0 -15 -9z"/>
<path d="M4315 691 c-6 -11 9 -23 19 -14 9 9 7 23 -3 23 -6 0 -12 -4 -16 -9z"/>
<path d="M3160 675 c0 -9 5 -15 11 -13 6 2 11 8 11 13 0 5 -5 11 -11 13 -6 2
-11 -4 -11 -13z"/>
<path d="M3716 683 c-11 -11 -6 -23 9 -23 8 0 15 4 15 9 0 13 -16 22 -24 14z"/>
<path d="M3782 669 c2 -6 8 -10 13 -10 5 0 11 4 13 10 2 6 -4 11 -13 11 -9 0
-15 -5 -13 -11z"/>
<path d="M3285 659 c-10 -15 3 -25 16 -12 7 7 7 13 1 17 -6 3 -14 1 -17 -5z"/>
<path d="M3916 645 c-3 -9 0 -15 9 -15 8 0 15 7 15 15 0 8 -4 15 -9 15 -5 0
-11 -7 -15 -15z"/>
<path d="M4205 650 c-4 -6 -3 -16 3 -22 6 -6 12 -6 17 2 4 6 3 16 -3 22 -6 6
-12 6 -17 -2z"/>
<path d="M3220 635 c0 -9 5 -15 11 -13 6 2 11 8 11 13 0 5 -5 11 -11 13 -6 2
-11 -4 -11 -13z"/>
<path d="M3840 635 c0 -9 5 -15 11 -13 6 2 11 8 11 13 0 5 -5 11 -11 13 -6 2
-11 -4 -11 -13z"/>
<path d="M4027 634 c-8 -8 1 -24 14 -24 5 0 9 7 9 15 0 15 -12 20 -23 9z"/>
<path d="M4137 634 c-8 -8 1 -24 14 -24 5 0 9 7 9 15 0 15 -12 20 -23 9z"/>
<path d="M3687 623 c-12 -11 -8 -23 8 -23 8 0 15 7 15 15 0 16 -12 20 -23 8z"/>
<path d="M3622 611 c4 -13 18 -16 19 -4 0 4 -5 9 -11 12 -7 2 -11 -2 -8 -8z"/>
<path d="M3970 605 c0 -9 5 -15 11 -13 6 2 11 8 11 13 0 5 -5 11 -11 13 -6 2
-11 -4 -11 -13z"/>
<path d="M3740 600 c0 -5 7 -10 15 -10 8 0 15 5 15 10 0 6 -7 10 -15 10 -8 0
-15 -4 -15 -10z"/>
<path d="M4080 595 c0 -9 5 -15 11 -13 6 2 11 8 11 13 0 5 -5 11 -11 13 -6 2
-11 -4 -11 -13z"/>
<path d="M3866 593 c-11 -11 -6 -23 9 -23 8 0 15 4 15 9 0 13 -16 22 -24 14z"/>
<path d="M3572 569 c2 -6 8 -10 13 -10 5 0 11 4 13 10 2 6 -4 11 -13 11 -9 0
-15 -5 -13 -11z"/>
<path d="M3800 555 c0 -9 5 -15 11 -13 6 2 11 8 11 13 0 5 -5 11 -11 13 -6 2
-11 -4 -11 -13z"/>
<path d="M3930 555 c0 -9 5 -15 11 -13 6 2 11 8 11 13 0 5 -5 11 -11 13 -6 2
-11 -4 -11 -13z"/>
<path d="M4026 563 c-11 -11 -6 -23 9 -23 8 0 15 4 15 9 0 13 -16 22 -24 14z"/>
<path d="M3390 550 c0 -5 7 -10 15 -10 8 0 15 5 15 10 0 6 -7 10 -15 10 -8 0
-15 -4 -15 -10z"/>
<path d="M3507 554 c-8 -8 1 -24 14 -24 5 0 9 7 9 15 0 15 -12 20 -23 9z"/>
<path d="M3677 554 c-8 -8 1 -24 14 -24 5 0 9 7 9 15 0 15 -12 20 -23 9z"/>
<path d="M3342 531 c2 -7 7 -12 11 -12 12 1 9 15 -3 20 -7 2 -11 -2 -8 -8z"/>
<path d="M3455 529 c-10 -15 3 -25 16 -12 7 7 7 13 1 17 -6 3 -14 1 -17 -5z"/>
<path d="M3617 523 c-12 -11 -8 -23 8 -23 8 0 15 7 15 15 0 16 -12 20 -23 8z"/>
<path d="M3732 521 c2 -7 7 -12 11 -12 12 1 9 15 -3 20 -7 2 -11 -2 -8 -8z"/>
<path d="M3980 515 c0 -8 5 -15 10 -15 6 0 10 7 10 15 0 8 -4 15 -10 15 -5 0
-10 -7 -10 -15z"/>
<path d="M3852 509 c2 -6 8 -10 13 -10 5 0 11 4 13 10 2 6 -4 11 -13 11 -9 0
-15 -5 -13 -11z"/>
<path d="M3547 504 c-8 -8 1 -24 14 -24 5 0 9 7 9 15 0 15 -12 20 -23 9z"/>
<path d="M3915 501 c-7 -12 12 -24 25 -16 11 7 4 25 -10 25 -5 0 -11 -4 -15
-9z"/>
<path d="M3390 480 c0 -5 7 -10 15 -10 8 0 15 5 15 10 0 6 -7 10 -15 10 -8 0
-15 -4 -15 -10z"/>
<path d="M3680 470 c0 -5 7 -10 15 -10 8 0 15 5 15 10 0 6 -7 10 -15 10 -8 0
-15 -4 -15 -10z"/>
<path d="M3780 470 c0 -5 7 -10 15 -10 8 0 15 5 15 10 0 6 -7 10 -15 10 -8 0
-15 -4 -15 -10z"/>
<path d="M3460 455 c0 -9 5 -15 11 -13 6 2 11 8 11 13 0 5 -5 11 -11 13 -6 2
-11 -4 -11 -13z"/>
<path d="M3547 444 c-8 -8 1 -24 14 -24 5 0 9 7 9 15 0 15 -12 20 -23 9z"/>
<path d="M3605 441 c-6 -11 9 -23 19 -14 9 9 7 23 -3 23 -6 0 -12 -4 -16 -9z"/>
<path d="M3695 409 c-10 -15 3 -25 16 -12 7 7 7 13 1 17 -6 3 -14 1 -17 -5z"/>
<path d="M3505 399 c-10 -15 3 -25 16 -12 7 7 7 13 1 17 -6 3 -14 1 -17 -5z"/>
<path d="M4755 750 c3 -5 8 -10 11 -10 2 0 4 5 4 10 0 6 -5 10 -11 10 -5 0 -7
-4 -4 -10z"/>
<path d="M4650 700 c0 -5 7 -10 15 -10 8 0 15 5 15 10 0 6 -7 10 -15 10 -8 0
-15 -4 -15 -10z"/>
<path d="M4560 635 c0 -9 5 -15 11 -13 6 2 11 8 11 13 0 5 -5 11 -11 13 -6 2
-11 -4 -11 -13z"/>
<path d="M4480 584 c0 -9 5 -14 12 -12 18 6 21 28 4 28 -9 0 -16 -7 -16 -16z"/>
<path d="M4550 570 c0 -5 4 -10 9 -10 6 0 13 5 16 10 3 6 -1 10 -9 10 -9 0
-16 -4 -16 -10z"/>
<path d="M4417 554 c-8 -8 1 -24 14 -24 5 0 9 7 9 15 0 15 -12 20 -23 9z"/>
<path d="M4325 481 c-6 -11 9 -23 19 -14 9 9 7 23 -3 23 -6 0 -12 -4 -16 -9z"/>
<path d="M4382 479 c2 -6 8 -10 13 -10 5 0 11 4 13 10 2 6 -4 11 -13 11 -9 0
-15 -5 -13 -11z"/>
<path d="M4260 444 c0 -8 5 -12 10 -9 6 3 10 10 10 16 0 5 -4 9 -10 9 -5 0
-10 -7 -10 -16z"/>
<path d="M4127 394 c-8 -8 1 -24 14 -24 5 0 9 7 9 15 0 15 -12 20 -23 9z"/>
<path d="M3966 343 c-11 -11 -6 -23 9 -23 8 0 15 4 15 9 0 13 -16 22 -24 14z"/>
<path d="M4030 335 c0 -9 5 -15 11 -13 6 2 11 8 11 13 0 5 -5 11 -11 13 -6 2
-11 -4 -11 -13z"/>
<path d="M3917 294 c-8 -8 1 -24 14 -24 5 0 9 7 9 15 0 15 -12 20 -23 9z"/>
</g>
</svg>
