<?xml version="1.0" standalone="no"?>
<!DOCTYPE svg PUBLIC "-//W3C//DTD SVG 20010904//EN"
 "http://www.w3.org/TR/2001/REC-SVG-20010904/DTD/svg10.dtd">
<svg version="1.0" xmlns="http://www.w3.org/2000/svg"
 width="861.000000pt" height="861.000000pt" viewBox="0 0 861.000000 861.000000"
 preserveAspectRatio="xMidYMid meet">

<g transform="translate(0.000000,861.000000) scale(0.100000,-0.100000)"
fill="#000000" stroke="none">
<path d="M490 7905 c-116 -15 -229 -36 -362 -66 -96 -23 -128 -47 -128 -100 0
-36 40 -77 83 -83 314 -46 404 -64 552 -107 358 -106 710 -323 1069 -658 126
-119 114 -106 227 -231 150 -167 262 -294 341 -390 288 -350 457 -567 554
-710 60 -89 126 -216 122 -234 -2 -9 -38 1 -124 35 -243 96 -433 128 -660 109
-114 -9 -297 -44 -319 -60 -5 -4 -35 -15 -65 -25 -106 -34 -288 -135 -395
-218 -127 -98 -298 -274 -367 -377 -10 -14 -32 -45 -49 -70 -28 -40 -127 -200
-149 -241 -4 -8 -29 -58 -55 -110 -25 -52 -50 -102 -56 -111 -14 -27 -10 -71
9 -94 20 -25 50 -41 142 -76 256 -99 460 -145 676 -155 128 -6 131 -5 152 17
30 33 30 93 -1 124 -20 20 -37 24 -131 30 -176 11 -397 56 -501 101 l-49 21
54 36 c118 76 313 186 471 265 356 177 610 244 877 230 185 -9 402 -63 402
-99 0 -10 -44 -62 -97 -117 -120 -120 -214 -188 -385 -276 -120 -62 -139 -94
-97 -161 17 -29 26 -34 57 -33 92 1 373 169 506 300 15 16 32 29 37 29 5 0 9
-19 9 -42 2 -232 40 -517 96 -723 69 -248 105 -345 239 -640 47 -104 107 -244
132 -310 43 -112 46 -127 47 -220 1 -81 -4 -119 -28 -204 -25 -93 -28 -115
-23 -210 4 -88 10 -118 35 -177 35 -84 86 -160 153 -229 l49 -51 -5 -104 c-2
-58 -1 -184 3 -281 8 -173 9 -176 44 -250 36 -75 76 -122 184 -214 l58 -50
472 0 473 0 28 23 c15 12 44 33 63 46 55 37 117 103 150 161 53 92 59 138 60
416 l1 252 63 69 c92 99 155 226 169 343 12 100 1 195 -36 305 -49 146 -14
301 140 630 14 30 38 84 53 120 15 36 46 104 68 152 77 166 174 505 207 728 9
58 18 189 22 293 3 103 8 187 10 187 2 0 21 -15 41 -34 217 -201 508 -355 797
-422 159 -37 444 -46 618 -19 221 33 443 97 624 181 38 17 73 59 73 86 0 22
-101 228 -176 358 -165 288 -391 530 -634 680 -336 207 -699 272 -1065 191
-106 -23 -246 -71 -329 -113 -32 -16 -61 -27 -64 -23 -11 10 85 190 149 282
58 81 177 241 189 253 3 3 45 57 95 120 82 106 222 276 253 309 7 7 46 52 85
100 192 231 422 475 552 586 32 28 63 55 69 60 9 8 156 126 236 188 8 7 47 33
85 58 339 220 611 318 1055 379 130 18 147 22 168 45 28 33 28 77 0 110 -18
20 -45 30 -134 50 -315 71 -659 94 -896 60 -285 -40 -506 -115 -738 -252 -71
-41 -236 -156 -285 -198 -16 -14 -53 -46 -82 -71 -79 -68 -410 -421 -553 -589
-24 -27 -46 -52 -49 -55 -4 -3 -34 -36 -67 -75 -32 -38 -71 -83 -85 -100 -115
-132 -171 -198 -209 -245 -25 -30 -47 -57 -51 -60 -3 -3 -63 -74 -134 -159
-70 -85 -136 -164 -145 -175 -99 -118 -145 -175 -158 -194 -11 -17 -22 -22
-36 -18 -12 3 -66 16 -121 30 -100 26 -102 26 -526 26 -439 0 -529 -6 -637
-44 -23 -9 -48 -13 -55 -10 -6 3 -55 57 -107 121 -188 231 -312 381 -350 422
-8 9 -48 57 -89 106 -41 50 -80 95 -85 100 -6 6 -49 55 -96 110 -103 122 -195
226 -320 365 -53 58 -111 123 -130 145 -90 104 -346 348 -433 414 -316 237
-605 358 -967 406 -138 18 -413 18 -560 0z m626 -184 c125 -21 154 -29 154
-40 0 -8 -35 -24 -143 -67 l-88 -34 -92 39 c-51 22 -141 57 -201 77 -84 29
-105 39 -90 46 33 14 332 1 460 -21z m6869 19 c3 -5 -2 -10 -12 -10 -11 0 -23
-4 -28 -9 -6 -4 -44 -18 -85 -31 -40 -12 -119 -42 -174 -66 -110 -48 -123 -51
-169 -30 -18 8 -67 29 -109 46 -43 18 -78 36 -78 40 0 14 77 32 235 55 109 16
411 19 420 5z m-6360 -191 c55 -28 109 -59 119 -70 20 -18 19 -19 -55 -52 -41
-19 -92 -40 -114 -47 -22 -7 -44 -16 -50 -20 -5 -4 -26 -12 -46 -18 -34 -9
-40 -6 -134 57 -54 36 -100 71 -102 77 -2 7 9 16 24 22 15 6 78 31 138 56 61
25 112 46 115 46 2 0 49 -23 105 -51z m5511 33 c5 -5 57 -28 117 -52 59 -23
110 -46 113 -51 3 -5 -10 -17 -28 -28 -18 -11 -38 -24 -43 -29 -6 -4 -39 -27
-74 -50 l-63 -41 -47 19 c-25 10 -89 35 -141 56 -107 42 -125 53 -111 67 5 5
51 33 103 63 91 52 149 67 174 46z m-5145 -284 c25 -24 61 -56 78 -71 18 -16
30 -34 28 -40 -4 -14 -272 -127 -300 -127 -18 0 -187 135 -187 150 0 15 270
127 310 129 17 1 41 -13 71 -41z m4846 -13 c178 -72 173 -68 143 -97 -66 -64
-148 -128 -163 -128 -18 0 -296 108 -310 120 -11 10 153 160 175 160 9 0 79
-25 155 -55z m-4517 -316 c36 -40 65 -77 65 -83 0 -9 -277 -125 -301 -126 -10
0 -145 141 -152 159 -5 13 19 26 133 70 61 24 121 49 135 56 33 17 43 11 120
-76z m4200 30 c69 -28 133 -53 143 -56 9 -3 17 -10 17 -17 0 -6 -33 -47 -73
-90 l-73 -79 -39 12 c-22 7 -62 21 -90 33 -27 11 -59 24 -70 29 -82 33 -115
49 -115 57 0 18 142 162 159 162 9 0 73 -23 141 -51z m-3968 -285 c18 -20 38
-42 43 -48 32 -35 65 -79 65 -85 0 -9 -36 -25 -195 -87 l-119 -46 -31 34
c-132 149 -129 139 -42 176 115 50 221 91 234 91 7 1 27 -15 45 -35z m3703
-22 c174 -66 167 -55 95 -146 -75 -92 -83 -98 -129 -81 -170 64 -266 104 -269
113 -2 6 29 47 68 92 59 67 76 80 93 75 12 -4 76 -27 142 -53z m-266 -305 c85
-34 156 -67 158 -72 1 -6 -10 -24 -25 -41 -15 -17 -45 -54 -67 -82 -22 -28
-46 -51 -53 -52 -7 0 -34 9 -60 19 -26 10 -95 38 -154 62 -60 23 -108 46 -108
49 0 14 142 180 154 180 1 0 71 -28 155 -63z m-3176 30 c8 -12 35 -47 61 -77
25 -29 46 -59 46 -65 0 -7 -17 -19 -37 -28 -101 -42 -270 -107 -280 -107 -7 0
-17 8 -22 18 -5 9 -34 48 -65 87 -31 38 -52 72 -48 76 4 4 61 28 127 54 66 25
129 50 140 55 35 15 62 11 78 -13z m310 -370 c31 -38 57 -74 57 -81 0 -8 -60
-37 -142 -68 -195 -76 -184 -73 -209 -46 -34 37 -109 141 -109 150 0 5 17 16
38 24 20 8 46 19 57 24 24 11 194 76 215 82 17 5 16 6 93 -85z m2604 28 c76
-31 144 -59 152 -64 16 -10 -1 -38 -77 -129 -50 -58 -44 -58 -147 -15 -33 13
-96 37 -140 53 -46 16 -81 34 -83 43 -3 13 95 139 123 159 17 13 30 9 172 -47z
m-364 -263 c67 -29 116 -49 204 -82 46 -17 85 -35 87 -39 3 -4 -11 -32 -30
-62 -19 -30 -45 -72 -56 -94 -11 -22 -22 -42 -24 -44 -6 -7 -394 134 -394 144
0 20 149 195 165 195 4 0 25 -8 48 -18z m-2026 -24 c48 -52 113 -139 113 -151
0 -11 -304 -124 -362 -134 -22 -4 -29 -1 -37 19 -5 14 -28 53 -50 88 -23 35
-41 68 -41 74 0 6 33 24 73 40 172 68 243 95 258 95 8 1 29 -14 46 -31z m1353
-218 c118 -14 212 -36 283 -66 62 -26 139 -54 355 -129 68 -24 129 -48 135
-54 8 -8 8 -40 -1 -119 -18 -164 -16 -204 17 -285 41 -104 67 -206 85 -335 17
-120 21 -388 7 -410 -6 -11 -27 0 -88 45 -44 33 -111 73 -149 89 -65 27 -77
28 -209 28 -117 0 -150 -3 -197 -20 -224 -82 -381 -284 -395 -511 -6 -81 -6
-81 26 -112 42 -41 88 -42 131 -3 27 24 32 36 39 102 31 276 310 436 556 319
167 -78 256 -257 215 -430 -30 -127 -104 -327 -185 -504 -13 -27 -44 -97 -70
-155 -25 -58 -51 -113 -56 -123 -5 -9 -23 -52 -40 -95 -92 -229 -107 -368 -59
-527 58 -187 49 -289 -34 -415 -66 -99 -127 -157 -331 -310 -93 -70 -192 -146
-220 -169 l-50 -41 -152 0 -152 0 -33 29 c-18 16 -76 60 -128 99 -337 250
-406 315 -476 452 -26 50 -28 64 -28 160 0 85 4 118 23 170 18 48 25 93 28
170 4 93 1 117 -25 215 -35 128 -55 178 -185 460 -110 238 -170 398 -213 564
-23 92 -25 110 -15 159 27 136 97 228 218 288 72 35 82 38 167 37 99 -1 133
-11 216 -61 102 -63 162 -164 180 -304 7 -58 13 -73 37 -94 39 -33 84 -32 125
5 32 28 33 32 32 99 -4 241 -182 461 -433 536 -71 21 -224 21 -305 0 -78 -20
-183 -75 -242 -127 -31 -28 -48 -37 -56 -29 -13 13 -12 303 2 400 24 169 58
290 119 422 26 57 26 86 0 209 -12 55 -19 106 -16 114 3 7 83 41 179 75 95 35
218 80 273 102 145 57 271 81 495 94 109 6 510 -3 600 -14z m-2170 -295 c114
-25 213 -61 338 -122 112 -54 112 -54 112 -90 0 -39 -56 -214 -72 -224 -5 -3
-48 7 -95 22 -262 88 -578 94 -853 17 -216 -60 -481 -175 -703 -304 -32 -19
-60 -34 -62 -34 -2 0 -36 -20 -76 -45 -40 -25 -79 -45 -86 -45 -17 0 11 52 84
162 242 362 602 615 962 673 109 18 347 13 451 -10z m4100 -3 c324 -80 592
-266 828 -574 45 -58 82 -109 82 -114 0 -4 11 -21 24 -38 28 -37 59 -96 53
-102 -2 -2 -71 35 -153 82 -498 288 -841 404 -1193 404 -163 0 -285 -19 -434
-67 -60 -19 -114 -32 -121 -30 -13 5 -22 30 -57 167 l-19 75 24 20 c24 19 106
63 186 99 70 31 220 76 301 91 122 21 368 14 479 -13z m-138 -532 c196 -35
335 -82 566 -195 157 -76 379 -200 496 -276 77 -51 78 -49 -64 -91 -191 -57
-305 -72 -530 -72 -203 1 -206 1 -341 37 -185 49 -404 153 -544 259 -99 75
-231 203 -254 245 -10 20 -8 24 21 36 172 71 437 94 650 57z m-1584 -3495 c-4
-150 -6 -163 -32 -213 -42 -83 -111 -139 -195 -157 -19 -4 -191 -7 -382 -7
l-347 0 -56 25 c-70 32 -117 78 -147 142 -21 44 -24 68 -27 213 -5 186 -3 198
30 181 13 -7 25 -15 28 -18 3 -4 54 -45 115 -91 60 -47 117 -92 125 -100 62
-62 54 -60 296 -60 l224 0 41 37 c22 20 102 84 177 143 126 98 138 105 145 86
5 -12 7 -93 5 -181z"/>
<path d="M5082 3828 c-37 -10 -72 -58 -72 -100 0 -36 51 -94 91 -102 41 -8 77
10 106 52 22 34 23 72 1 114 -17 34 -75 51 -126 36z"/>
<path d="M3415 3807 c-60 -51 -32 -163 45 -178 102 -21 171 91 104 170 -22 27
-32 31 -74 31 -36 0 -56 -6 -75 -23z"/>
<path d="M4684 2216 c-27 -10 -107 -92 -207 -214 -36 -44 -36 -90 -1 -126 26
-26 64 -33 99 -20 9 4 63 61 121 127 85 97 104 125 104 151 0 63 -57 104 -116
82z"/>
<path d="M3830 2200 c-36 -36 -22 -112 30 -160 3 -3 34 -39 70 -80 36 -41 71
-81 78 -89 7 -7 32 -16 56 -18 36 -4 47 -1 65 18 54 58 40 92 -94 242 -95 106
-96 107 -140 107 -32 0 -51 -6 -65 -20z"/>
<path d="M1933 4138 c-109 -29 -90 -199 23 -202 74 -1 122 52 110 123 -10 61
-69 96 -133 79z"/>
</g>
</svg>
