<?xml version="1.0" standalone="no"?>
<!DOCTYPE svg PUBLIC "-//W3C//DTD SVG 20010904//EN"
 "http://www.w3.org/TR/2001/REC-SVG-20010904/DTD/svg10.dtd">
<svg version="1.0" xmlns="http://www.w3.org/2000/svg"
 width="1120.000000pt" height="1120.000000pt" viewBox="0 0 1120.000000 1120.000000"
 preserveAspectRatio="xMidYMid meet">

<g transform="translate(0.000000,1120.000000) scale(0.100000,-0.100000)"
fill="#000000" stroke="none">
<path d="M1840 9805 c-116 -15 -229 -36 -362 -66 -95 -22 -128 -47 -128 -98 0
-35 43 -79 82 -85 183 -26 328 -50 403 -68 226 -51 474 -150 652 -260 96 -59
278 -185 305 -211 7 -7 48 -41 90 -75 124 -100 288 -258 399 -382 56 -63 105
-117 109 -120 5 -4 107 -122 224 -260 81 -95 286 -348 332 -410 23 -30 75 -99
115 -153 41 -53 89 -118 108 -143 38 -52 145 -253 139 -260 -3 -2 -62 19 -132
47 -241 95 -425 125 -660 109 -112 -8 -298 -43 -321 -60 -5 -4 -35 -15 -65
-25 -106 -34 -288 -135 -395 -218 -127 -98 -298 -274 -367 -377 -10 -14 -32
-45 -49 -70 -110 -155 -269 -458 -269 -512 0 -36 42 -74 109 -98 31 -11 63
-24 72 -29 18 -10 123 -46 234 -79 119 -36 284 -63 421 -69 128 -6 131 -5 152
17 26 28 29 85 7 117 -17 25 -29 27 -200 42 -158 14 -350 56 -445 97 l-44 20
54 36 c217 141 565 321 756 392 336 124 632 138 927 44 47 -15 67 -27 67 -38
0 -28 -145 -175 -243 -247 -116 -85 -112 -83 -229 -143 -130 -67 -150 -97
-107 -166 35 -57 93 -46 257 49 133 76 232 147 306 219 15 15 32 28 37 28 5 0
9 -19 9 -42 2 -233 40 -518 97 -723 69 -251 106 -350 238 -640 48 -104 107
-244 132 -310 43 -112 46 -127 47 -220 1 -81 -4 -120 -28 -205 -25 -93 -28
-115 -23 -210 4 -87 10 -117 35 -176 35 -83 86 -159 152 -229 l48 -50 1 -260
c1 -147 6 -277 12 -300 26 -96 100 -202 183 -261 l29 -21 -37 -60 c-80 -130
-117 -294 -99 -446 14 -114 45 -193 124 -309 110 -163 122 -263 42 -349 -14
-16 -27 -44 -30 -67 -5 -35 -2 -44 22 -66 53 -49 114 -29 174 58 54 78 73 186
50 285 -14 61 -72 185 -110 232 -17 21 -45 67 -62 102 -30 60 -31 67 -31 192
-1 119 2 135 27 195 15 36 44 88 65 115 l38 50 132 3 c80 1 132 -1 132 -7 0
-5 -5 -22 -11 -38 -52 -135 -74 -439 -45 -620 21 -138 55 -237 127 -378 96
-189 104 -213 104 -340 0 -99 -3 -116 -27 -169 -37 -77 -37 -128 -2 -155 84
-66 174 38 205 240 24 157 -10 294 -128 510 -76 138 -109 261 -120 451 -10
171 33 401 89 481 19 27 21 27 127 27 l108 0 32 -59 c91 -171 51 -435 -88
-584 -38 -41 -46 -55 -46 -89 0 -51 30 -78 86 -78 31 0 46 7 78 39 80 78 147
204 175 328 30 135 14 353 -33 442 -18 33 -12 50 27 75 54 34 119 103 154 164
50 88 57 140 58 416 l0 248 64 69 c42 45 80 101 111 162 76 151 83 294 24 482
-32 101 -34 158 -6 265 23 87 79 230 144 370 14 30 38 84 53 120 15 36 44 100
64 144 74 159 156 431 196 652 23 126 40 318 40 460 0 57 2 104 5 104 3 0 23
-16 44 -35 213 -198 506 -352 799 -422 145 -34 451 -44 612 -19 217 34 441 98
617 177 46 21 83 61 83 92 0 21 -96 217 -176 357 -109 193 -321 446 -479 572
-185 147 -432 264 -645 307 -289 58 -643 11 -902 -120 -32 -16 -62 -29 -68
-29 -13 0 80 185 127 253 45 65 205 280 213 287 3 3 19 23 36 45 54 74 237
299 308 381 39 44 89 103 111 129 156 190 411 459 529 560 32 28 64 55 70 60
49 45 268 213 341 260 107 70 318 179 430 222 169 64 396 117 634 148 105 13
117 17 138 42 29 36 29 75 1 108 -18 20 -45 30 -134 50 -215 48 -360 66 -574
72 -212 5 -350 -8 -545 -52 -260 -58 -581 -227 -830 -437 -124 -105 -363 -355
-636 -667 -112 -129 -270 -312 -309 -360 -19 -23 -44 -53 -55 -65 -36 -40 -90
-103 -105 -122 -8 -11 -60 -73 -116 -139 -55 -66 -131 -158 -169 -205 -38 -47
-77 -94 -87 -105 -9 -11 -23 -29 -31 -39 -14 -19 -16 -18 -113 10 l-99 29
-480 0 c-461 0 -483 -1 -560 -22 -44 -12 -87 -24 -96 -28 -23 -9 -9 -23 -299
329 -40 50 -90 109 -110 132 -19 22 -46 53 -60 70 -119 142 -185 220 -190 224
-3 3 -43 50 -90 105 -72 84 -327 374 -449 510 -88 97 -313 317 -383 374 -252
203 -532 343 -821 411 -207 49 -527 64 -757 35z m628 -184 c199 -35 199 -33
10 -107 l-89 -34 -92 39 c-51 22 -141 57 -201 77 -85 29 -105 39 -90 46 34 14
341 0 462 -21z m6866 20 c3 -4 -41 -23 -97 -42 -56 -18 -147 -52 -202 -76 -55
-24 -109 -43 -120 -43 -11 1 -38 9 -60 20 -22 11 -44 19 -49 20 -18 0 -126 53
-126 61 0 13 179 52 285 62 85 8 364 7 369 -2z m-6337 -203 c132 -71 132 -70
28 -118 -48 -22 -92 -40 -98 -40 -7 0 -25 -7 -40 -15 -76 -39 -85 -38 -192 34
-54 36 -100 71 -102 77 -2 7 9 16 24 22 15 6 78 31 138 56 69 28 118 43 130
39 11 -3 61 -28 112 -55z m5597 -1 c59 -25 113 -50 118 -55 7 -7 -27 -35 -96
-81 l-107 -70 -47 18 c-26 11 -90 36 -142 56 -52 21 -101 44 -109 50 -15 15
-14 16 114 89 98 57 117 56 269 -7z m-5254 -238 c100 -90 110 -100 110 -109 0
-5 -5 -12 -10 -15 -28 -17 -277 -115 -293 -115 -18 0 -187 135 -187 150 0 16
266 127 310 129 16 0 41 -14 70 -40z m4847 -14 c178 -72 173 -68 143 -97 -66
-64 -148 -128 -163 -128 -18 0 -296 108 -310 120 -11 10 152 160 174 160 10 0
80 -25 156 -55z m-4517 -315 c36 -39 65 -77 65 -83 0 -10 -275 -126 -301 -127
-12 0 -154 148 -154 160 0 14 24 26 135 69 61 24 121 49 135 56 32 17 42 11
120 -75z m4235 15 c50 -20 98 -39 108 -42 29 -9 20 -27 -57 -109 l-74 -79 -38
13 c-22 7 -59 21 -84 32 -25 10 -76 31 -113 46 -37 15 -70 31 -73 36 -7 10 21
46 92 120 l55 57 47 -18 c26 -10 88 -35 137 -56z m-4017 -253 c28 -29 106
-123 116 -139 5 -10 4 -18 -5 -24 -14 -9 -245 -100 -286 -113 -18 -6 -30 4
-74 56 -28 35 -55 65 -59 68 -4 3 -12 14 -18 26 -13 24 -13 24 93 68 112 46
190 75 203 76 6 0 20 -8 30 -18z m3717 -40 c174 -66 167 -56 96 -144 -87 -109
-75 -105 -183 -62 -51 20 -118 45 -148 56 -30 11 -59 24 -64 29 -12 10 7 38
79 117 46 50 61 61 79 56 11 -3 75 -26 141 -52z m-265 -305 c85 -34 155 -67
155 -73 0 -11 -36 -59 -95 -128 -19 -23 -36 -43 -37 -45 -8 -12 -333 116 -333
130 0 12 140 179 150 179 3 0 75 -28 160 -63z m-3177 30 c8 -12 35 -47 61 -77
25 -29 46 -59 46 -65 0 -7 -17 -19 -37 -28 -101 -42 -270 -107 -280 -107 -7 0
-17 8 -22 18 -5 9 -34 48 -65 87 -31 38 -52 72 -48 76 13 14 287 118 308 119
12 0 28 -10 37 -23z m311 -372 c36 -43 63 -82 58 -86 -4 -4 -54 -26 -112 -49
-58 -23 -127 -50 -153 -61 -59 -24 -81 -18 -111 29 -13 20 -38 54 -55 76 -17
21 -31 43 -31 48 0 5 17 16 38 24 20 8 46 19 57 24 21 10 190 75 215 83 18 6
13 10 94 -88z m2603 30 c76 -31 144 -59 152 -64 15 -9 0 -36 -58 -107 -14 -17
-34 -41 -44 -53 -21 -26 -17 -26 -172 34 -60 24 -123 47 -140 52 -16 5 -31 17
-33 25 -3 14 94 140 123 160 17 13 30 9 172 -47z m-246 -310 c90 -36 167 -69
171 -73 4 -4 -12 -39 -37 -77 -24 -39 -50 -82 -56 -97 -6 -16 -14 -28 -18 -28
-4 0 -65 21 -137 46 -71 25 -157 56 -191 67 -35 12 -63 26 -63 32 0 18 148
195 164 195 2 0 77 -29 167 -65z m-2144 23 c48 -52 113 -139 113 -151 0 -11
-304 -124 -362 -134 -22 -4 -29 -1 -37 19 -5 14 -28 53 -50 88 -23 35 -41 68
-41 74 0 6 33 24 73 40 184 73 243 95 258 96 8 0 29 -15 46 -32z m1387 -223
c119 -16 143 -23 366 -105 63 -23 170 -61 238 -85 67 -23 128 -48 135 -54 11
-9 11 -28 1 -113 -20 -162 -18 -210 15 -291 68 -171 101 -362 101 -588 0 -167
-6 -191 -42 -156 -29 28 -125 95 -158 110 -104 47 -118 50 -231 55 -129 5
-186 -6 -294 -58 -189 -92 -325 -302 -325 -502 0 -52 3 -62 30 -88 41 -40 88
-41 130 -2 27 24 32 36 39 102 11 97 47 175 110 239 120 121 294 152 446 80
167 -79 256 -258 215 -430 -26 -109 -91 -295 -140 -404 -58 -129 -161 -356
-186 -412 -45 -99 -93 -258 -105 -349 -12 -97 -5 -154 37 -294 20 -66 23 -199
6 -257 -15 -51 -91 -164 -149 -220 -49 -48 -165 -141 -284 -228 -45 -33 -114
-86 -153 -117 l-71 -58 -152 0 -153 0 -37 33 c-21 18 -78 62 -126 97 -310 228
-399 311 -463 432 -37 71 -39 76 -39 173 0 80 5 115 25 175 46 138 30 362 -36
507 -8 18 -21 50 -28 70 -13 36 -38 91 -108 243 -116 248 -174 400 -224 585
-24 90 -25 106 -15 160 25 137 104 239 229 298 58 27 77 31 152 31 220 0 371
-138 400 -366 7 -58 13 -73 37 -94 37 -32 83 -31 121 1 40 33 47 79 28 180
-42 220 -203 393 -425 459 -71 21 -224 21 -305 0 -78 -20 -183 -75 -242 -127
-32 -28 -48 -37 -56 -29 -7 7 -10 72 -10 179 2 251 39 436 133 651 l23 53 -18
102 c-32 177 -33 164 5 181 19 8 99 38 179 66 80 28 197 71 260 95 190 74 377
96 765 90 127 -3 283 -11 349 -20z m-2264 -280 c134 -22 246 -58 388 -127
l122 -59 0 -36 c0 -39 -56 -214 -72 -224 -5 -3 -48 7 -95 22 -145 49 -279 69
-453 69 -228 0 -413 -40 -675 -147 -115 -46 -342 -158 -433 -212 -29 -17 -55
-31 -56 -31 -2 0 -37 -20 -77 -45 -93 -57 -107 -58 -76 -2 151 276 422 545
682 675 234 117 493 157 745 117z m4160 -13 c336 -82 619 -285 865 -621 63
-86 130 -199 122 -207 -2 -2 -73 36 -158 84 -502 289 -837 402 -1189 402 -162
0 -272 -17 -429 -66 -62 -19 -119 -33 -126 -31 -12 5 -21 31 -56 167 l-19 75
25 20 c84 67 305 155 470 186 136 25 372 21 495 -9z m-162 -527 c282 -43 616
-187 1041 -448 133 -82 135 -76 -44 -125 -207 -57 -281 -67 -505 -66 -203 1
-206 1 -343 37 -185 49 -400 152 -542 259 -103 78 -214 184 -248 238 l-19 30
29 11 c180 71 425 96 631 64z m-1560 -3500 c-3 -146 -6 -164 -28 -209 -30 -59
-79 -110 -132 -137 -61 -31 -196 -41 -508 -37 l-285 3 -57 27 c-72 33 -119 78
-149 143 -21 45 -24 67 -27 213 -4 187 -2 198 30 181 13 -7 25 -15 28 -18 3
-4 55 -45 115 -91 61 -46 126 -99 144 -117 19 -19 44 -36 56 -39 11 -3 117 -4
235 -2 l215 3 80 68 c44 37 123 100 175 140 89 69 96 72 103 53 5 -12 7 -93 5
-181z"/>
<path d="M6438 5730 c-45 -13 -78 -57 -78 -104 0 -57 89 -117 142 -97 67 25
92 128 43 176 -13 14 -31 25 -39 25 -8 0 -20 2 -28 4 -7 2 -25 1 -40 -4z"/>
<path d="M4777 5719 c-22 -13 -47 -61 -47 -92 0 -40 41 -90 80 -98 102 -21
171 91 104 170 -22 27 -32 31 -72 31 -26 0 -55 -5 -65 -11z"/>
<path d="M5180 4100 c-13 -13 -20 -33 -20 -60 0 -36 9 -51 92 -147 122 -142
113 -135 162 -140 36 -4 47 -1 65 18 54 58 40 92 -94 242 -95 106 -96 107
-140 107 -32 0 -51 -6 -65 -20z"/>
<path d="M6009 4108 c-16 -13 -134 -147 -182 -206 -36 -44 -36 -90 -1 -126 26
-26 64 -33 99 -20 9 4 63 61 121 127 88 102 104 125 104 154 0 48 -37 83 -88
83 -21 0 -45 -6 -53 -12z"/>
<path d="M3239 6011 c-62 -63 -20 -172 67 -175 74 -1 121 51 110 124 -12 80
-118 110 -177 51z"/>
</g>
</svg>
