<?xml version="1.0" standalone="no"?>
<!DOCTYPE svg PUBLIC "-//W3C//DTD SVG 20010904//EN"
 "http://www.w3.org/TR/2001/REC-SVG-20010904/DTD/svg10.dtd">
<svg version="1.0" xmlns="http://www.w3.org/2000/svg"
 width="886.000000pt" height="1068.000000pt" viewBox="0 0 886.000000 1068.000000"
 preserveAspectRatio="xMidYMid meet">

<g transform="translate(0.000000,1068.000000) scale(0.100000,-0.100000)"
fill="#000000" stroke="none">
<path d="M2655 10550 c-294 -37 -397 -72 -558 -189 -51 -37 -124 -87 -162
-113 -90 -59 -190 -151 -264 -242 -86 -105 -365 -681 -450 -929 -33 -98 -65
-186 -71 -196 -9 -18 -81 -272 -126 -446 -13 -49 -31 -137 -40 -195 -9 -58
-34 -168 -54 -245 -21 -77 -55 -214 -75 -305 -21 -91 -43 -181 -50 -201 -16
-43 -45 -195 -75 -379 -30 -189 -73 -408 -115 -590 -57 -246 -73 -320 -125
-566 -27 -127 -65 -287 -84 -355 -69 -246 -124 -455 -130 -494 -4 -22 -22
-121 -41 -220 -18 -99 -41 -229 -50 -290 -9 -60 -24 -146 -32 -190 -21 -110
-32 -334 -39 -765 -5 -300 -3 -390 10 -505 24 -208 25 -225 36 -409 17 -289
59 -475 166 -733 19 -46 55 -140 80 -210 25 -70 72 -180 106 -243 34 -63 81
-153 106 -200 45 -85 73 -128 187 -283 67 -92 241 -269 331 -337 32 -24 100
-83 149 -130 95 -90 172 -134 370 -215 50 -20 99 -40 110 -45 113 -52 312 -99
550 -129 50 -7 131 -22 180 -34 196 -47 536 -13 791 78 71 26 136 51 144 56 8
5 31 17 50 26 61 30 153 95 224 157 56 49 96 102 211 276 215 325 252 395 347
665 60 171 144 550 160 721 13 144 -3 510 -27 614 -8 36 -18 106 -21 155 -6
78 -18 123 -96 345 -50 140 -100 284 -113 320 -26 76 -96 218 -135 275 -47 69
-89 144 -116 207 -25 59 -193 399 -312 628 -73 142 -147 310 -173 395 -11 36
-39 111 -63 167 -25 57 -51 130 -60 163 -8 33 -29 101 -46 150 -17 50 -37 124
-46 165 -8 41 -26 111 -39 155 -13 44 -31 123 -40 175 -9 52 -23 118 -30 145
-8 28 -19 91 -25 140 -33 265 -53 408 -67 480 -31 164 -34 195 -43 395 -12
249 -25 404 -45 530 -31 192 -45 404 -55 780 -5 212 -14 466 -20 565 -20 322
13 537 126 822 24 61 44 119 44 129 0 10 12 52 27 93 18 51 27 97 27 141 1 62
-2 69 -49 142 -60 91 -91 111 -198 127 -84 12 -83 12 -172 1z"/>
<path d="M5559 10551 c-51 -16 -108 -63 -127 -104 -39 -83 -53 -213 -32 -302
5 -22 14 -128 20 -235 6 -107 17 -265 25 -350 8 -85 22 -294 30 -465 8 -170
20 -375 25 -455 6 -80 15 -230 20 -335 5 -104 14 -251 20 -325 14 -185 -7
-961 -39 -1420 -6 -80 -11 -194 -11 -255 0 -65 -11 -179 -26 -280 -14 -93 -30
-208 -35 -255 -25 -215 -52 -405 -74 -520 -13 -69 -35 -197 -50 -285 -14 -88
-37 -209 -51 -270 -46 -208 -124 -580 -144 -695 -12 -63 -32 -158 -45 -210
-13 -52 -37 -166 -54 -252 -31 -159 -86 -375 -122 -480 -10 -32 -33 -113 -50
-180 -17 -68 -50 -193 -74 -278 -24 -85 -54 -209 -66 -275 -11 -66 -34 -172
-50 -235 -45 -179 -50 -233 -56 -583 -6 -349 -3 -387 44 -587 31 -133 101
-274 194 -391 132 -166 184 -199 393 -250 67 -16 166 -41 221 -55 158 -41 258
-49 560 -48 254 1 294 3 435 27 85 15 180 27 211 27 62 0 180 31 459 120 325
104 394 137 670 319 251 165 537 435 617 580 19 36 57 104 82 151 73 131 130
270 151 367 10 48 26 107 34 131 9 24 23 83 31 130 9 48 25 114 35 147 45 140
55 399 55 1350 -1 490 -5 763 -13 830 -6 55 -16 159 -22 230 -6 72 -17 175
-25 230 -7 55 -16 137 -19 182 -8 111 -39 277 -69 371 -23 70 -34 117 -84 347
-8 39 -25 102 -38 140 -12 39 -28 104 -35 145 -6 41 -27 134 -45 205 -18 72
-45 186 -60 255 -14 69 -52 202 -82 295 -31 94 -64 204 -73 245 -26 114 -76
287 -105 365 -25 68 -67 210 -155 519 -45 159 -75 247 -115 336 -13 30 -41 98
-60 150 -20 52 -56 138 -80 190 -24 52 -54 121 -65 152 -35 95 -173 358 -223
427 -26 35 -105 178 -174 318 -86 172 -142 272 -173 308 -25 29 -83 97 -130
151 -166 194 -236 265 -298 304 -35 22 -67 40 -71 40 -4 0 -34 17 -67 38 -32
21 -72 45 -89 54 -16 8 -70 37 -119 63 -141 76 -251 105 -436 115 -142 9 -201
14 -255 25 -11 2 -32 0 -46 -4z"/>
</g>
</svg>
