<?xml version="1.0" standalone="no"?>
<!DOCTYPE svg PUBLIC "-//W3C//DTD SVG 20010904//EN"
 "http://www.w3.org/TR/2001/REC-SVG-20010904/DTD/svg10.dtd">
<svg version="1.0" xmlns="http://www.w3.org/2000/svg"
 width="1089.000000pt" height="1085.000000pt" viewBox="0 0 1089.000000 1085.000000"
 preserveAspectRatio="xMidYMid meet">

<g transform="translate(0.000000,1085.000000) scale(0.100000,-0.100000)"
fill="#000000" stroke="none">
<path d="M3640 10823 c-14 -2 -51 -10 -83 -19 -32 -8 -79 -19 -105 -24 -213
-37 -310 -64 -417 -115 -66 -32 -132 -73 -165 -102 -74 -65 -166 -133 -215
-159 -28 -15 -47 -35 -65 -70 -60 -117 -17 -229 148 -389 217 -211 722 -715
832 -831 63 -67 268 -279 456 -470 188 -192 386 -401 440 -465 158 -185 314
-375 404 -494 46 -60 107 -137 135 -170 28 -33 91 -114 141 -180 49 -66 127
-165 173 -220 74 -88 259 -355 273 -395 3 -8 39 -61 79 -117 92 -127 176 -257
255 -393 33 -58 105 -177 158 -264 54 -87 125 -211 159 -275 61 -117 189 -344
329 -586 41 -71 92 -164 113 -205 21 -41 71 -133 112 -203 41 -70 110 -205
154 -300 44 -95 118 -248 164 -342 46 -93 103 -213 128 -265 25 -52 76 -148
113 -212 38 -64 97 -170 132 -235 34 -65 103 -172 152 -238 137 -182 360 -436
442 -502 101 -83 205 -156 255 -182 112 -56 272 -99 433 -116 111 -12 177 13
515 189 72 38 141 79 155 91 14 12 45 34 70 48 25 15 75 52 110 83 36 31 99
83 140 116 76 61 239 231 335 348 29 36 74 85 100 110 47 44 176 233 307 448
80 132 166 308 202 413 46 138 114 402 126 489 50 376 52 461 10 642 -17 73
-36 156 -42 183 -22 99 -67 223 -103 284 -21 35 -49 91 -62 125 -14 33 -47 97
-73 141 -27 44 -57 103 -68 131 -24 60 -94 163 -172 254 -31 36 -91 112 -135
170 -91 123 -138 179 -242 292 -42 46 -129 144 -193 218 -65 74 -143 162 -175
195 -54 57 -85 93 -237 282 -73 90 -263 280 -462 461 -76 70 -192 177 -256
237 -104 98 -200 172 -332 258 -24 15 -88 61 -143 102 -55 41 -133 96 -173
122 -40 26 -101 69 -135 96 -34 26 -95 71 -136 100 -41 28 -146 105 -235 170
-89 65 -235 164 -326 219 -91 55 -212 133 -270 173 -115 80 -230 153 -271 171
-26 12 -90 53 -359 229 -229 150 -297 187 -830 449 -85 42 -158 76 -163 76 -4
0 -60 22 -125 49 -64 27 -153 57 -197 66 -44 9 -107 28 -140 42 -179 78 -220
95 -325 136 -122 49 -161 59 -280 76 -41 6 -118 18 -170 26 -195 30 -303 39
-370 28z"/>
<path d="M613 8610 c-31 -13 -122 -77 -162 -114 -18 -17 -79 -85 -134 -151
-123 -147 -173 -246 -211 -415 -14 -63 -32 -137 -40 -165 -36 -122 -48 -228
-44 -370 4 -121 9 -153 36 -235 16 -52 47 -160 67 -240 56 -221 100 -366 145
-475 23 -55 58 -145 79 -200 21 -55 68 -162 105 -237 36 -75 66 -141 66 -145
0 -12 123 -233 172 -310 24 -38 55 -93 68 -123 14 -30 40 -84 59 -120 18 -36
81 -157 139 -270 130 -255 218 -407 347 -605 18 -27 55 -90 82 -140 52 -93 73
-131 226 -420 50 -93 121 -223 159 -289 37 -65 68 -120 68 -122 0 -3 11 -21
23 -42 13 -20 61 -116 107 -212 138 -291 204 -420 263 -518 32 -51 74 -123 94
-160 20 -37 55 -95 77 -129 54 -82 103 -161 162 -258 26 -44 82 -120 124 -170
75 -89 116 -141 156 -200 59 -87 373 -445 477 -545 67 -63 195 -189 287 -280
273 -272 352 -333 635 -482 88 -47 201 -108 251 -136 85 -48 183 -91 299 -132
28 -10 88 -32 135 -50 103 -39 237 -73 390 -101 95 -17 164 -22 400 -24 157
-2 312 1 344 7 93 15 367 101 470 148 22 10 57 23 77 29 20 7 63 28 95 48 33
19 79 47 104 60 25 14 68 42 95 63 44 32 105 69 263 158 74 41 175 135 292
273 112 131 165 207 218 316 16 32 33 67 39 78 6 11 21 45 32 75 71 187 84
321 52 550 -44 318 -64 428 -96 540 -45 153 -143 394 -201 494 -27 45 -75 131
-107 191 -90 166 -129 221 -287 395 -128 141 -190 202 -256 249 -32 24 -90 75
-129 115 -63 64 -99 88 -360 236 -159 91 -306 172 -325 181 -37 16 -166 62
-285 100 -38 12 -110 41 -160 65 -95 45 -256 113 -340 144 -27 10 -76 30 -108
44 -32 14 -62 26 -68 26 -30 0 -422 179 -499 228 -30 19 -95 54 -145 78 -49
23 -120 61 -156 85 -36 24 -94 60 -128 79 -34 19 -92 58 -129 86 -37 28 -96
70 -132 93 -138 87 -361 266 -587 468 -87 77 -187 163 -223 189 -36 27 -114
100 -175 163 -160 166 -389 388 -475 461 -112 96 -388 375 -630 639 -118 129
-244 264 -280 301 -158 160 -261 297 -341 453 -50 97 -119 261 -119 282 0 5
-15 42 -34 80 -19 39 -49 102 -66 141 -41 93 -87 137 -165 159 -74 21 -153 28
-182 15z"/>
</g>
</svg>
