<?xml version="1.0" standalone="no"?>
<!DOCTYPE svg PUBLIC "-//W3C//DTD SVG 20010904//EN"
 "http://www.w3.org/TR/2001/REC-SVG-20010904/DTD/svg10.dtd">
<svg version="1.0" xmlns="http://www.w3.org/2000/svg"
 width="640.000000pt" height="480.000000pt" viewBox="0 0 640.000000 480.000000"
 preserveAspectRatio="xMidYMid meet">

<g transform="translate(0.000000,480.000000) scale(0.100000,-0.100000)"
fill="#000000" stroke="none">
<path d="M2940 4144 c-230 -8 -699 -48 -890 -75 -448 -63 -706 -140 -809 -241
-154 -151 -379 -664 -504 -1148 -51 -196 -67 -306 -67 -455 0 -189 28 -285
113 -381 87 -99 191 -145 454 -204 191 -43 253 -66 278 -104 49 -75 102 -265
179 -647 50 -248 65 -297 100 -344 86 -112 446 -203 1106 -279 260 -30 756
-76 822 -76 137 0 213 101 389 516 117 277 202 438 237 448 9 2 51 8 92 11
107 9 407 52 525 75 353 68 445 113 491 242 87 248 102 1104 29 1643 -67 486
-171 727 -355 820 -98 50 -325 107 -553 140 -284 42 -543 56 -1047 59 -272 2
-538 2 -590 0z m1235 -288 c429 -37 683 -84 825 -156 44 -22 60 -37 78 -73 53
-107 106 -310 136 -522 60 -419 62 -1176 5 -1464 -13 -66 -12 -65 -121 -96
-128 -35 -472 -91 -678 -110 -182 -16 -230 -38 -311 -138 -61 -75 -127 -205
-243 -474 -105 -245 -135 -307 -162 -340 l-19 -23 -150 15 c-82 8 -204 19
-270 25 -579 54 -1006 122 -1187 190 -31 11 -61 26 -66 33 -6 7 -34 127 -62
267 -89 437 -132 577 -213 700 -68 105 -152 150 -367 197 -379 83 -430 119
-430 301 0 290 139 774 340 1187 113 232 124 247 212 288 208 99 809 184 1473
211 220 8 1038 -4 1210 -18z"/>
<path d="M1902 3360 c-144 -20 -183 -54 -232 -196 -32 -93 -53 -247 -47 -348
7 -120 20 -158 70 -210 34 -35 53 -46 100 -57 101 -22 294 14 534 99 130 47
149 56 186 90 89 84 89 389 -1 517 -57 82 -134 105 -372 110 -96 2 -203 0
-238 -5z"/>
<path d="M4067 3311 c-54 -11 -83 -44 -133 -149 -69 -144 -96 -235 -97 -322
-2 -118 24 -150 198 -248 111 -62 242 -117 332 -138 79 -19 185 -14 232 10
108 56 176 211 188 431 12 233 -27 293 -232 358 -145 45 -402 76 -488 58z"/>
<path d="M3014 2492 c-94 -69 -209 -211 -265 -327 -95 -198 33 -304 359 -293
110 3 134 7 177 28 72 36 88 70 82 185 -5 104 -44 223 -106 327 -49 81 -88
108 -156 108 -41 0 -60 -6 -91 -28z"/>
<path d="M2324 1560 c-34 -14 -58 -52 -87 -141 l-27 -84 -108 0 c-87 0 -113
-3 -135 -18 -51 -33 -58 -96 -16 -138 19 -19 28 -20 116 -13 l96 7 -7 -39 c-4
-21 -10 -73 -13 -114 -5 -70 -4 -78 18 -104 54 -62 148 -23 150 62 0 20 6 66
13 102 l12 65 55 -3 c57 -3 343 -40 370 -48 14 -4 13 -13 -4 -82 -14 -51 -18
-89 -13 -113 9 -49 50 -89 90 -89 57 1 85 42 87 128 1 63 21 116 45 120 20 3
412 -73 420 -81 3 -3 -2 -40 -11 -82 -18 -89 -13 -134 22 -176 19 -22 33 -29
62 -29 57 0 81 31 81 106 0 65 16 134 30 134 21 0 119 -42 130 -55 7 -8 29
-15 50 -15 31 0 44 6 65 32 31 37 29 77 -6 114 -24 26 -108 68 -156 78 -18 4
-33 10 -33 12 0 10 44 90 61 113 27 34 24 68 -10 102 -61 61 -124 28 -186 -99
-26 -52 -41 -72 -51 -68 -8 3 -97 22 -197 41 -100 20 -192 38 -204 41 l-22 4
30 65 c35 78 36 105 5 141 -28 33 -84 38 -114 10 -11 -9 -37 -55 -58 -102 -20
-46 -41 -84 -46 -84 -4 0 -52 7 -106 15 -53 8 -137 19 -187 25 -121 14 -145
20 -145 33 0 6 12 42 26 80 23 59 25 72 14 98 -7 16 -25 36 -41 44 -32 17 -36
17 -65 5z"/>
</g>
</svg>
