<?xml version="1.0" standalone="no"?>
<!DOCTYPE svg PUBLIC "-//W3C//DTD SVG 20010904//EN"
 "http://www.w3.org/TR/2001/REC-SVG-20010904/DTD/svg10.dtd">
<svg version="1.0" xmlns="http://www.w3.org/2000/svg"
 width="2154.000000pt" height="2154.000000pt" viewBox="0 0 2154.000000 2154.000000"
 preserveAspectRatio="xMidYMid meet">

<g transform="translate(0.000000,2154.000000) scale(0.100000,-0.100000)"
fill="#000000" stroke="none">
<path d="M10540 21480 c-717 -128 -1809 -839 -3170 -2064 -821 -739 -1987
-1918 -2821 -2851 -1515 -1696 -2725 -3465 -3315 -4846 -169 -398 -324 -879
-374 -1163 -52 -301 -56 -749 -9 -1021 45 -263 201 -561 404 -773 404 -423
1001 -628 2130 -731 414 -38 937 -61 1401 -61 l230 0 52 -182 c90 -319 145
-603 179 -930 15 -147 18 -260 17 -743 l-2 -570 -119 -260 c-256 -554 -366
-880 -425 -1260 -19 -121 -22 -181 -23 -450 0 -340 9 -429 65 -650 150 -594
583 -1203 1280 -1800 235 -201 471 -372 731 -530 l172 -104 96 51 c278 148
487 321 644 533 125 168 263 428 317 598 35 107 49 131 71 122 22 -8 32 -32
95 -220 127 -374 321 -677 616 -960 197 -189 433 -356 674 -476 123 -62 125
-62 167 -49 64 19 221 101 322 167 132 87 227 167 345 290 227 235 360 478
435 791 44 186 67 189 114 15 44 -165 75 -252 131 -369 154 -320 428 -606 761
-794 196 -111 260 -118 403 -47 50 25 145 81 211 125 549 363 878 773 1070
1332 31 91 66 174 76 185 19 19 21 19 34 2 7 -10 30 -67 51 -125 101 -290 213
-483 410 -704 161 -181 344 -319 565 -429 l86 -42 234 155 c703 466 1206 939
1556 1463 221 332 372 682 418 970 40 250 44 669 10 930 -38 294 -173 712
-388 1200 -155 352 -185 536 -174 1065 14 644 93 1176 244 1630 l18 55 150 7
c83 3 317 11 520 18 404 12 619 23 910 45 1116 88 1736 293 2155 714 283 285
423 597 461 1031 87 988 -455 2352 -1641 4130 -861 1291 -2052 2703 -3575
4239 -1557 1570 -2812 2593 -3765 3070 -496 248 -881 333 -1230 271z m415
-669 c960 -232 3787 -2897 6012 -5667 1337 -1666 2242 -3109 2587 -4126 112
-331 148 -520 149 -783 1 -329 -48 -471 -222 -646 -198 -198 -528 -374 -986
-525 -514 -169 -1058 -277 -1840 -364 -379 -42 -465 -56 -492 -82 -114 -107
-506 -1198 -678 -1888 -24 -96 -46 -182 -50 -191 -10 -27 -46 -39 -145 -48
-52 -5 -119 -18 -148 -29 -167 -64 -289 -210 -328 -394 -18 -82 -15 -245 6
-314 28 -95 157 -230 272 -286 29 -15 96 -38 148 -53 52 -15 103 -34 112 -42
9 -8 20 -36 24 -62 9 -61 45 -168 105 -309 27 -64 49 -121 49 -127 0 -5 -42
-27 -93 -49 -201 -84 -322 -172 -446 -322 -273 -330 -364 -713 -254 -1069 90
-289 305 -496 590 -567 74 -19 113 -22 243 -21 161 2 190 -1 190 -19 0 -19
-120 -226 -178 -307 -167 -233 -467 -524 -744 -722 -179 -129 -221 -142 -284
-94 -72 55 -65 87 31 150 128 85 205 252 205 445 0 104 -19 181 -67 272 -41
79 -146 196 -236 264 -74 56 -220 128 -302 149 -161 41 -399 -4 -524 -99 -44
-33 -55 -33 -80 2 -42 60 -161 383 -206 562 -40 161 -36 165 -61 -58 -84 -747
-270 -1275 -584 -1657 -154 -186 -384 -376 -569 -468 -92 -46 -111 -52 -166
-52 -55 0 -74 6 -156 47 -247 125 -486 366 -643 646 -189 337 -346 833 -385
1212 -14 130 -22 183 -27 177 -2 -2 -18 -93 -34 -203 -55 -363 -107 -573 -204
-823 -194 -497 -459 -822 -816 -1003 -80 -41 -90 -43 -170 -43 -77 0 -91 4
-150 34 -90 46 -300 184 -300 196 0 6 60 30 133 53 192 62 301 119 393 204
124 116 199 237 235 376 98 384 -190 862 -645 1072 -154 71 -219 85 -396 84
-186 -1 -260 -18 -423 -96 -73 -35 -110 -49 -115 -41 -4 6 -18 113 -31 237
-13 124 -27 226 -30 226 -4 0 -17 -42 -30 -93 -13 -50 -50 -174 -82 -274 -137
-419 -407 -843 -773 -1209 -130 -130 -379 -344 -400 -344 -11 0 -271 186 -361
258 -136 109 -332 292 -438 410 -161 178 -289 385 -380 617 -38 97 -104 332
-95 340 3 3 48 17 99 30 217 58 373 174 457 340 55 110 64 149 63 284 -2 205
-46 357 -145 495 -51 71 -152 170 -184 180 -14 5 -22 15 -22 30 0 27 44 139
128 321 70 154 105 248 122 328 16 80 47 111 156 162 209 97 302 249 292 476
-5 124 -27 192 -95 294 -95 144 -190 223 -313 265 -56 19 -78 31 -87 50 -6 14
-52 177 -103 364 -95 353 -188 650 -297 946 -68 184 -298 767 -311 786 -4 7
-141 27 -337 48 -393 44 -620 75 -891 121 -1236 212 -2053 569 -2261 988 -52
103 -74 210 -80 387 -6 186 10 327 62 538 256 1040 1210 2614 2734 4507 608
756 1278 1522 2015 2305 300 319 1138 1157 1431 1432 1190 1113 2070 1760
2535 1864 86 19 224 17 315 -5z"/>
<path d="M8305 13653 c-420 -21 -837 -129 -1175 -305 -359 -186 -732 -518
-1005 -893 -315 -433 -516 -981 -602 -1640 -25 -199 -25 -710 0 -910 71 -546
241 -1045 506 -1483 312 -515 706 -884 1220 -1140 354 -176 568 -241 904 -273
163 -15 579 -7 745 15 386 51 599 115 987 299 600 283 635 293 941 284 251 -7
320 -29 774 -247 470 -226 670 -289 1075 -337 190 -22 671 -25 815 -5 319 46
584 128 860 269 139 71 361 216 488 318 267 216 523 514 712 830 230 384 419
905 474 1302 47 336 42 915 -10 1293 -33 241 -148 623 -269 898 -279 632 -765
1153 -1340 1437 -298 147 -576 227 -945 272 -198 24 -661 23 -880 -1 -390 -42
-748 -150 -1194 -358 -208 -97 -341 -152 -406 -169 -36 -9 -108 -14 -210 -13
-146 0 -160 2 -245 31 -49 17 -202 84 -340 148 -398 187 -532 236 -817 301
-265 60 -729 94 -1063 77z m5040 -339 c148 -18 361 -69 509 -122 227 -82 524
-249 713 -403 446 -363 764 -876 907 -1461 63 -258 80 -399 80 -693 0 -270 -9
-371 -55 -594 -121 -596 -450 -1155 -904 -1538 -619 -524 -1511 -708 -2258
-466 -477 153 -893 446 -1220 858 -118 149 -240 328 -288 425 -22 44 -45 80
-50 80 -5 0 -27 -37 -48 -82 -110 -230 -351 -546 -563 -737 -388 -348 -837
-561 -1333 -633 -134 -19 -493 -16 -633 6 -444 69 -847 245 -1192 522 -110 88
-307 286 -394 394 -266 335 -461 754 -546 1174 -128 633 -44 1285 240 1861
210 426 508 771 885 1024 284 190 582 308 942 373 113 20 159 23 403 23 245 0
289 -3 405 -24 486 -87 902 -308 1294 -686 201 -194 335 -369 460 -601 38 -71
75 -129 82 -129 7 0 55 72 108 160 113 189 137 224 244 358 149 189 372 394
567 524 490 325 1051 457 1645 387z"/>
<path d="M8520 12849 c-306 -34 -604 -185 -849 -429 -340 -338 -466 -798 -345
-1253 113 -422 503 -813 959 -962 436 -142 950 -53 1327 231 104 77 257 236
321 332 115 172 203 389 228 561 14 102 6 352 -14 433 -67 262 -191 482 -377
669 -210 211 -516 371 -786 409 -111 15 -363 21 -464 9z"/>
<path d="M12660 12851 c-230 -25 -421 -97 -630 -236 -332 -222 -541 -529 -611
-895 -20 -100 -17 -348 4 -450 38 -180 96 -321 193 -465 224 -337 592 -578
982 -645 467 -81 949 72 1288 410 198 197 331 442 390 715 20 96 23 320 5 414
-59 303 -222 591 -451 794 -184 163 -464 301 -695 342 -106 18 -368 27 -475
16z"/>
<path d="M11276 6019 c-149 -29 -289 -137 -357 -273 -58 -117 -78 -238 -57
-345 31 -154 118 -272 253 -343 166 -86 340 -95 491 -24 210 99 302 341 222
581 -43 130 -143 267 -245 334 -93 62 -211 88 -307 70z"/>
<path d="M8125 5504 c-233 -49 -431 -235 -490 -459 -19 -74 -19 -105 0 -180
45 -175 179 -367 301 -428 73 -37 252 -29 387 18 195 67 346 225 402 419 48
165 -13 437 -118 533 -106 95 -302 134 -482 97z"/>
<path d="M13250 5339 c-261 -31 -522 -233 -585 -453 -24 -82 -22 -219 4 -319
46 -177 173 -348 306 -413 55 -26 69 -29 170 -28 92 0 123 5 190 27 128 43
237 110 335 207 138 136 184 247 183 445 0 165 -41 298 -118 384 -89 98 -320
170 -485 150z"/>
<path d="M10106 4644 c-216 -52 -426 -284 -497 -551 -28 -103 -31 -280 -6
-372 46 -170 157 -310 303 -382 73 -37 92 -42 173 -47 286 -16 579 123 676
322 141 289 76 683 -148 892 -141 132 -320 182 -501 138z"/>
<path d="M6797 3151 c-94 -38 -183 -122 -231 -218 -63 -125 -60 -367 5 -494
31 -62 136 -161 205 -195 56 -27 66 -29 184 -29 158 0 217 17 289 81 96 86
159 262 147 414 -6 89 -18 128 -61 195 -121 190 -382 309 -538 246z"/>
<path d="M11710 2851 c-51 -16 -88 -41 -131 -89 -74 -82 -149 -258 -149 -349
0 -159 115 -345 256 -414 64 -32 65 -32 181 -26 65 3 142 12 171 20 131 36
216 200 217 417 0 97 -3 110 -31 170 -79 164 -258 282 -428 279 -33 0 -72 -4
-86 -8z"/>
</g>
</svg>
